<svg id="ekevhsgeqvw1" xmlns="http://www.w3.org/2000/svg" xmlns:xlink="http://www.w3.org/1999/xlink" viewBox="0 0 871.134000 566.910000" shape-rendering="geometricPrecision" text-rendering="geometricPrecision"><defs><linearGradient id="ekevhsgeqvw4-fill" x1="0.500000" y1="0" x2="0.500000" y2="1" spreadMethod="pad" gradientUnits="objectBoundingBox"><stop id="ekevhsgeqvw4-fill-0" offset="0%" stop-color="rgb(91,211,255)"/><stop id="ekevhsgeqvw4-fill-1" offset="100%" stop-color="rgb(142,149,255)"/></linearGradient><linearGradient id="ekevhsgeqvw24-fill" x1="-0.030000" y1="0.503000" x2="0.970000" y2="0.503000" spreadMethod="pad" gradientUnits="objectBoundingBox"><stop id="ekevhsgeqvw24-fill-0" offset="0%" stop-color="rgba(128,128,128,0.251)"/><stop id="ekevhsgeqvw24-fill-1" offset="54%" stop-color="rgba(128,128,128,0.122)"/><stop id="ekevhsgeqvw24-fill-2" offset="100%" stop-color="rgba(128,128,128,0.102)"/></linearGradient></defs><g id="ekevhsgeqvw2" transform="matrix(1 0 0 1 -966.86599999999999 -445)"><g id="ekevhsgeqvw3" transform="matrix(1 0 0 1 966.87000000000000 445)"><path id="ekevhsgeqvw4" d="M426.567000,0C662.153000,0,853.133000,190.980000,853.133000,426.567000C853.133000,662.154000,747.892000,426.567000,512.306000,426.567000C276.720000,426.567000,0,662.153000,0,426.567000C0,190.981000,190.980000,0,426.567000,0Z" transform="matrix(1 0 0 1 6.39162500000009 5.55083333000007)" fill="url(#ekevhsgeqvw4-fill)" stroke="none" stroke-width="1"/></g><rect id="ekevhsgeqvw5" width="230.285000" height="53.324000" rx="0" ry="0" transform="matrix(1 0 0 1 1229.99000000000001 704.05600000000004)" fill="rgb(86,86,97)" stroke="none" stroke-width="1"/><rect id="ekevhsgeqvw6" width="230.285000" height="53.324000" rx="0" ry="0" transform="matrix(1 0 0 1 1229.99000000000001 704.05600000000004)" opacity="0.1" fill="rgb(0,0,0)" stroke="none" stroke-width="1"/><path id="ekevhsgeqvw7" d="M388.776000,427.030000L390.393000,539.506000L368.244000,583.685000L366.530000,427.030000Z" transform="matrix(1 0 0 1 868.76599999999996 332.10500000000002)" fill="rgb(188,190,201)" stroke="none" stroke-width="1"/><path id="ekevhsgeqvw8" d="M362.990000,371.840000L587.200000,373.189000L587.200000,412.900000L362.990000,412.900000Z" transform="matrix(1 0 0 1 869.42999999999995 342.45400000000001)" fill="rgb(86,86,97)" stroke="none" stroke-width="1"/><path id="ekevhsgeqvw9" d="M615.330000,427.030000L634.513000,429.736000L634.513000,623.142000L615.330000,563.984000Z" transform="matrix(1 0 0 1 822.11400000000003 332.10500000000002)" fill="rgb(188,190,201)" stroke="none" stroke-width="1"/><rect id="ekevhsgeqvw10" width="108.054000" height="229.611000" rx="0" ry="0" transform="matrix(1 0 0 1 1463.92000000000007 706.19299999999998)" fill="rgb(239,239,240)" stroke="none" stroke-width="1"/><rect id="ekevhsgeqvw11" width="90.764000" height="176.498000" rx="0" ry="0" transform="matrix(1 0 0 1 1472.55999999999995 712.57100000000003)" fill="rgb(86,86,97)" stroke="none" stroke-width="1"/><rect id="ekevhsgeqvw12" width="90.764000" height="176.498000" rx="0" ry="0" transform="matrix(1 0 0 1 1472.55999999999995 712.57100000000003)" opacity="0.1" fill="rgb(0,0,0)" stroke="none" stroke-width="1"/><rect id="ekevhsgeqvw13" width="90.764000" height="39.170000" rx="0" ry="0" transform="matrix(1 0 0 1 1472.55999999999995 716.18700000000001)" fill="rgb(86,86,97)" stroke="none" stroke-width="1"/><rect id="ekevhsgeqvw14" width="90.764000" height="83.199000" rx="0" ry="0" transform="matrix(1 0 0 1 1472.55999999999995 759.13499999999999)" fill="rgb(86,86,97)" stroke="none" stroke-width="1"/><rect id="ekevhsgeqvw15" width="90.764000" height="83.199000" rx="0" ry="0" transform="matrix(1 0 0 1 1472.55999999999995 847.47000000000003)" fill="rgb(86,86,97)" stroke="none" stroke-width="1"/><rect id="ekevhsgeqvw16" width="90.764000" height="83.199000" rx="0" ry="0" transform="matrix(1 0 0 1 1472.55999999999995 847.47000000000003)" opacity="0.1" fill="rgb(0,0,0)" stroke="none" stroke-width="1"/><ellipse id="ekevhsgeqvw17" rx="5.850000" ry="7.475000" transform="matrix(1 0 0 1 1476.34999999999991 943.27900000000000)" fill="rgb(86,86,97)" stroke="none" stroke-width="1"/><ellipse id="ekevhsgeqvw18" rx="5.850000" ry="7.475000" transform="matrix(1 0 0 1 1557.46999999999980 943.63599999999997)" fill="rgb(86,86,97)" stroke="none" stroke-width="1"/><path id="ekevhsgeqvw19" d="M357.566000,613.544000L365.400000,613.544000L363.245000,364.320000L351.350000,364.320000Z" transform="matrix(1 0 0 1 871.61199999999997 343.86399999999998)" fill="rgb(239,239,240)" stroke="none" stroke-width="1"/><path id="ekevhsgeqvw20" d="M638.940000,361.870000L638.940000,610.924000L646.228000,610.924000L646.228000,363.861000Z" transform="matrix(1 0 0 1 817.68799999999999 344.32299999999998)" fill="rgb(239,239,240)" stroke="none" stroke-width="1"/><path id="ekevhsgeqvw21" d="M366.460000,419.380000L366.460000,428.300000L587.848000,428.300000L587.848000,421.816000Z" transform="matrix(1 0 0 1 868.77900000000000 333.54000000000002)" fill="rgb(239,239,240)" stroke="none" stroke-width="1"/><path id="ekevhsgeqvw22" d="M378.322000,341.260000L658.990000,341.260000L699.777000,354.760000L699.777000,362.600000L349.690000,359.900000L349.690000,351.929000Z" transform="matrix(1 0 0 1 871.92399999999998 348.18799999999999)" fill="rgb(255,255,255)" stroke="none" stroke-width="1"/><path id="ekevhsgeqvw23" d="M349.690000,354.390000L699.777000,357.226000L699.777000,365.058000L349.690000,362.358000Z" transform="matrix(1 0 0 1 871.92399999999998 345.72600000000000)" fill="rgb(188,190,201)" stroke="none" stroke-width="1"/><path id="ekevhsgeqvw24" d="M423.267000,549.274000L421.642000,549.030000L421.642000,548.830000C421.593000,548.448000,421.536000,548.074000,421.480000,547.692000C422.146000,548.220000,422.780000,548.748000,423.365000,549.276000Z" transform="matrix(1 0 0 1 830.05799999999999 243.72600000000000)" fill="url(#ekevhsgeqvw24-fill)" stroke="none" stroke-width="1"/><g id="ekevhsgeqvw25" transform="matrix(1 0 0 1 966.87000000000000 445)"><path id="ekevhsgeqvw26" d="M377.549000,703.709000C378.605000,703.465000,379.678000,703.262000,380.749000,703.116000C388.114961,702.066967,395.627106,703.173176,402.378000,706.301000C401.696000,711.322000,401.021000,716.514000,402.467000,721.365000C403.475000,724.777000,405.498000,727.865000,405.928000,731.424000C408.141260,731.804520,409.949779,733.402458,410.600000,735.552000C410.911592,736.484158,411.068006,737.461155,411.063000,738.444000C411.053957,739.660059,410.901231,740.870789,410.608000,742.051000C410.402608,744.011710,408.673605,745.452546,406.708000,745.301000C400.419000,746.016000,394.252000,743.538000,388.402000,741.108000L377.027000,736.379000C375.695000,735.827000,374.354000,735.266000,373.078000,734.579000C370.658551,733.271579,368.510539,731.514886,366.749000,729.403000C366.376361,729.026110,366.114787,728.553823,365.993000,728.038000C365.782000,726.608000,367.455000,725.755000,368.520000,724.788000C368.831898,724.493452,369.105088,724.160449,369.333000,723.797000C370.592000,721.897000,370.714000,719.271000,371.470000,717.029000C373.258000,711.707000,378.782000,708.278000,380.732000,703.087000C380.838000,702.803000,380.932000,702.518000,381.016000,702.226000" transform="matrix(1 0 0 1 -126.40000000000001 -230.25000000000000)" fill="rgb(126,49,49)" stroke="none" stroke-width="1"/></g><g id="ekevhsgeqvw27" transform="matrix(1 0 0 1 966.87000000000000 445)"><path id="ekevhsgeqvw28" d="M411.065000,743.421000C411.056017,744.637393,410.903291,745.848461,410.610000,747.029000C410.404608,748.989710,408.675605,750.430546,406.710000,750.279000C400.421000,750.994000,394.254000,748.516000,388.404000,746.087000L377.029000,741.358000C375.697000,740.806000,374.356000,740.245000,373.080000,739.558000C370.660564,738.250559,368.512556,736.493869,366.751000,734.382000C366.378361,734.005110,366.116787,733.532823,365.995000,733.017000C365.784000,731.587000,367.457000,730.734000,368.522000,729.767000C368.833882,729.472437,369.107070,729.139436,369.335000,728.776000C372.471000,729.450000,376.363000,731.425000,378.760000,732.189000C381.160629,732.842837,383.465735,733.806967,385.617000,735.057000C388.607000,736.974000,390.760000,739.932000,393.295000,742.369000C395.830000,744.806000,399.104000,747.025000,402.639000,746.724000C404.507781,746.442421,406.308977,745.820103,407.953000,744.888000Z" transform="matrix(1 0 0 1 -126.40000000000001 -235.22999999999999)" opacity="0.97" fill="rgb(102,38,38)" stroke="none" stroke-width="1"/></g><path id="ekevhsgeqvw29" d="M399.985000,602.853000C400.417984,604.362829,399.867375,605.982758,398.604000,606.916000C397.540000,607.574000,396.167000,607.485000,395.110000,608.200000C393.802000,609.118000,393.615000,610.938000,393.388000,612.514000C392.576000,617.933000,389.888000,622.849000,387.588000,627.829000C385.288000,632.809000,383.347000,638.245000,384.188000,643.656000C384.765000,647.328000,386.569000,651.245000,384.879000,654.556000C384.465000,655.369000,383.847000,656.092000,383.379000,656.880000C381.063000,660.748000,382.379000,665.647000,382.290000,670.148000C382.323751,670.647765,382.213753,671.146748,381.973000,671.586000C381.617699,672.001113,381.180592,672.338475,380.689000,672.577000C379.017926,673.805433,377.997849,675.728523,377.918000,677.801000C377.849477,679.846863,378.096026,681.891094,378.649000,683.862000C378.738739,684.657461,379.090542,685.400470,379.649000,685.974000C380.296027,686.401435,381.059974,686.617060,381.835000,686.591000C386.939210,687.005199,391.945930,688.223214,396.670000,690.200000C399.749000,691.484000,402.739000,693.092000,406.014000,693.710000C406.653334,693.909592,407.346632,693.837260,407.931000,693.510000C408.343011,693.138408,408.627477,692.646454,408.744000,692.104000C410.003000,687.960000,411.279000,683.687000,410.844000,679.380000C410.657000,677.528000,410.162000,675.716000,410.032000,673.863000C409.463000,666.551000,414.411000,659.953000,415.979000,652.738000C416.686000,649.488000,416.686000,646.124000,417.190000,642.838000C418.555000,633.844000,423.511000,625.776000,425.421000,616.879000C425.687487,615.219032,426.101802,613.586203,426.659000,612C428.081000,608.555000,431.371000,605.760000,431.445000,602.031000C431.490338,601.210571,431.274316,600.396900,430.828000,599.707000C430.062186,598.866369,429.044789,598.296275,427.928000,598.082000C423.513806,596.867524,419.020691,595.960681,414.481000,595.368000C412.400486,594.959134,410.277059,594.811660,408.160000,594.929000C405.410690,595.252284,402.768155,596.184944,400.425000,597.659000C397.287000,599.595000,399.300000,600.058000,399.985000,602.853000Z" transform="matrix(1 0 0 1 838.22799999999995 234.87500000000000)" fill="rgb(69,75,105)" stroke="none" stroke-width="1"/><g id="ekevhsgeqvw30" transform="matrix(1 0 0 1 966.87000000000000 445)"><path id="ekevhsgeqvw31" d="M399.985000,602.853000C400.417984,604.362829,399.867375,605.982758,398.604000,606.916000C397.540000,607.574000,396.167000,607.485000,395.110000,608.200000C393.802000,609.118000,393.615000,610.938000,393.388000,612.514000C392.576000,617.933000,389.888000,622.849000,387.588000,627.829000C385.288000,632.809000,383.347000,638.245000,384.188000,643.656000C384.765000,647.328000,386.569000,651.245000,384.879000,654.556000C384.465000,655.369000,383.847000,656.092000,383.379000,656.880000C381.063000,660.748000,382.379000,665.647000,382.290000,670.148000C382.323751,670.647765,382.213753,671.146748,381.973000,671.586000C381.617699,672.001113,381.180592,672.338475,380.689000,672.577000C379.017926,673.805433,377.997849,675.728523,377.918000,677.801000C377.849477,679.846863,378.096026,681.891094,378.649000,683.862000C378.738739,684.657461,379.090542,685.400470,379.649000,685.974000C380.296027,686.401435,381.059974,686.617060,381.835000,686.591000C386.939210,687.005199,391.945930,688.223214,396.670000,690.200000C399.749000,691.484000,402.739000,693.092000,406.014000,693.710000C406.653334,693.909592,407.346632,693.837260,407.931000,693.510000C408.343011,693.138408,408.627477,692.646454,408.744000,692.104000C410.003000,687.960000,411.279000,683.687000,410.844000,679.380000C410.657000,677.528000,410.162000,675.716000,410.032000,673.863000C409.463000,666.551000,414.411000,659.953000,415.979000,652.738000C416.686000,649.488000,416.686000,646.124000,417.190000,642.838000C418.555000,633.844000,423.511000,625.776000,425.421000,616.879000C425.687487,615.219032,426.101802,613.586203,426.659000,612C428.081000,608.555000,431.371000,605.760000,431.445000,602.031000C431.490338,601.210571,431.274316,600.396900,430.828000,599.707000C430.062186,598.866369,429.044789,598.296275,427.928000,598.082000C423.513806,596.867524,419.020691,595.960681,414.481000,595.368000C412.400486,594.959134,410.277059,594.811660,408.160000,594.929000C405.410690,595.252284,402.768155,596.184944,400.425000,597.659000C397.287000,599.595000,399.300000,600.058000,399.985000,602.853000Z" transform="matrix(1 0 0 1 -128.63999999999999 -210.12000000000000)" fill="rgb(41,41,41)" stroke="none" stroke-width="1"/></g><path id="ekevhsgeqvw32" d="M347.831000,651.274000L340.900000,651.274000L336.366000,558.130000L336.049000,552.830000L341.940000,550.758000L342.340000,556.389000Z" transform="matrix(1 0 0 1 874.48000000000002 308.90499999999997)" fill="rgb(86,86,97)" stroke="none" stroke-width="1"/><path id="ekevhsgeqvw33" d="M342.339000,556.391000L336.367000,558.130000L336.050000,552.830000L341.941000,550.758000Z" transform="matrix(1 0 0 1 874.48000000000002 308.90499999999997)" opacity="0.1" fill="rgb(0,0,0)" stroke="none" stroke-width="1"/><path id="ekevhsgeqvw34" d="M411.047000,665.252000L399.615000,666.633000L346.949000,547.107000L332.749000,546.067000L307.805000,553.347000L302.954000,695.655000L291.521000,695.655000L296.021000,548.147000L268.648000,548.847000L219.800000,670.444000L209.410000,670.444000L260.784000,528.331000L262.766000,522.855000L339.327000,520.231000L358.412000,530.931000L358.656000,531.549000Z" transform="matrix(1 0 0 1 898.22699999999998 314.63000000000000)" fill="rgb(231,229,235)" stroke="none" stroke-width="1"/><path id="ekevhsgeqvw35" d="M405.473000,612.478000C389.020000,617.434000,371.941000,622.845000,371.941000,622.845000C371.941000,622.845000,356.365000,628.281000,349.768000,622.845000C348.936195,622.196077,348.006620,621.683359,347.014000,621.326000C347.870032,621.937349,348.794236,622.447104,349.768000,622.845000L307.600000,609.252000L309.574000,603.784000L386.143000,601.160000L405.228000,611.860000Z" transform="matrix(1 0 0 1 851.41099999999994 233.69999999999999)" opacity="0.1" fill="rgb(0,0,0)" stroke="none" stroke-width="1"/><path id="ekevhsgeqvw36" d="M332.208000,584.461000L363.383000,577.530000C363.383000,577.530000,437.872000,591.391000,443.414000,596.930000C443.414000,596.930000,383.826000,609.052000,377.245000,613.180000C370.664000,617.308000,331.509000,621.876000,332.208000,584.461000Z" transform="matrix(1 0 0 1 846.79899999999998 238.13000000000000)" fill="rgb(255,255,255)" stroke="none" stroke-width="1"/><g id="ekevhsgeqvw37" transform="matrix(1 0 0 1 966.87000000000000 445)"><path id="ekevhsgeqvw38" d="M310.700000,473.671000C308.263000,481.398000,301.608000,488.361000,293.508000,488.694000C292.918681,488.762757,292.322207,488.655225,291.794000,488.385000C290.778000,487.751000,290.754000,486.264000,291.168000,485.135000C291.724420,484.082143,292.144787,482.962844,292.419000,481.804000C292.443136,481.561954,292.426574,481.317576,292.370000,481.081000C292.159000,480.114000,291.370000,479.253000,290.444000,479.456000C291.750698,478.410392,292.049741,476.543429,291.135000,475.142000C290.767377,474.726643,290.435843,474.280694,290.144000,473.809000C289.470000,472.428000,290.518000,470.876000,290.957000,469.397000C291.857000,466.147000,289.568000,462.897000,289.381000,459.509000C289.219000,456.478000,290.754000,453.627000,291.136000,450.620000C291.745000,445.745000,289.324000,441.073000,289.036000,436.206000C288.997264,432.796789,289.529971,429.405177,290.612000,426.172000C291.581376,423.280023,292.182117,420.277326,292.400000,417.235000C292.400000,415.017000,292.018000,412.823000,291.912000,410.613000C291.743432,408.592891,292.110432,406.564044,292.976000,404.731000C293.538160,403.652903,294.496242,402.834609,295.649000,402.448000C298.314000,401.554000,300.061000,402.948000,300.449000,405.471000C301.099000,409.771000,300.725000,414.157000,301.578000,418.471000C302.366795,422.505617,303.561884,426.450048,305.145000,430.244000C306.583000,433.673000,308.330000,436.988000,309.435000,440.538000C310.266786,443.464452,310.861706,446.453100,311.214000,449.475000C312.313000,457.591000,313.166000,465.944000,310.700000,473.671000Z" transform="matrix(1 0 0 1 -111.97000000000000 -173.99000000000001)" fill="rgb(27,85,191)" stroke="none" stroke-width="1"/></g><g id="ekevhsgeqvw39" transform="matrix(1 0 0 1 966.87000000000000 445)"><path id="ekevhsgeqvw40" d="M533.451000,727.163000C531.372276,730.093237,528.141543,731.996750,524.571000,732.395000C521.045000,732.834000,517.380000,731.948000,513.960000,732.915000C512.884256,733.092299,511.969079,733.797176,511.523000,734.792000C511.438456,735.452679,511.387058,736.117178,511.369000,736.783000C510.969000,738.952000,508.119000,739.440000,505.901000,739.424000L496.752000,739.367000C494.852000,739.367000,492.746000,739.261000,491.381000,737.945000C490.039780,736.457741,490.005165,734.207813,491.300000,732.680000C491.583940,732.343931,491.932065,732.067878,492.324000,731.868000C491.158947,731.482592,490.310315,730.473826,490.130000,729.260000C489.963750,728.065422,490.021742,726.850316,490.301000,725.677000C490.301000,722.277000,491.114000,716.593000,493.501000,713.937000C496.434000,710.630000,501.520000,706.356000,505.948000,705.471000C508.980764,704.890329,512.109323,705.780599,514.382000,707.871000C516.482000,709.821000,518.006000,712.871000,520.882000,713.217000C522.450000,713.412000,523.961000,712.673000,525.513000,712.404000C529.126824,711.938910,532.642829,713.795992,534.296000,717.043000C534.689888,717.846353,534.963803,718.703140,535.109000,719.586000C535.538606,722.231709,534.946255,724.941794,533.452000,727.167000Z" transform="matrix(1 0 0 1 -149.66000000000000 -230.83000000000001)" fill="rgb(126,49,49)" stroke="none" stroke-width="1"/></g><g id="ekevhsgeqvw41" transform="matrix(1 0 0 1 966.87000000000000 445)"><path id="ekevhsgeqvw42" d="M533.523000,730.462000C531.444051,733.392481,528.212905,735.296023,524.642000,735.694000C521.116000,736.133000,517.451000,735.247000,514.031000,736.214000C512.954882,736.390988,512.039269,737.095912,511.593000,738.091000C511.508451,738.751679,511.457053,739.416178,511.439000,740.082000C511.039000,742.251000,508.189000,742.739000,505.971000,742.723000L496.822000,742.666000C494.922000,742.666000,492.816000,742.560000,491.451000,741.244000C490.109780,739.756741,490.075165,737.506813,491.370000,735.979000C496.651000,735.760000,501.843000,735.979000,507.108000,734.890000C509.245000,734.459000,511.349000,733.890000,513.508000,733.590000C518.188000,732.924000,523.169000,733.490000,527.467000,731.510000C531.050000,729.885000,533.618000,726.578000,535.137000,722.889000C535.575926,725.526689,534.998061,728.232684,533.520000,730.461000Z" transform="matrix(1 0 0 1 -149.74000000000001 -234.13000000000000)" opacity="0.29" fill="rgb(42,11,11)" stroke="none" stroke-width="1"/></g><g id="ekevhsgeqvw43" transform="matrix(1 0 0 1 966.87000000000000 445)"><path id="ekevhsgeqvw44" d="M471.586000,683.050000C468.336000,685.569000,464.525000,687.535000,460.430000,687.750000C456.335000,687.965000,451.988000,686.125000,449.981000,682.566000C447.048000,677.342000,449.648000,670.078000,446.057000,665.284000C444.936000,663.784000,443.319000,662.716000,442.133000,661.262000C440.947000,659.808000,440.264000,657.622000,441.321000,656.078000C440.045000,656.565000,438.697000,655.331000,438.321000,654.014000C437.945000,652.697000,438.183000,651.284000,437.955000,649.952000C437.362000,646.418000,433.893000,644.152000,432.227000,641.015000C430.561000,637.878000,430.789000,633.808000,430.602000,630.095000C430.186775,621.048560,426.819394,612.387222,421.015000,605.436000C419.915000,604.120000,418.496000,602.779000,416.774000,602.844000C417.074000,599.870000,415.092000,597.027000,412.525000,595.532000C409.854192,594.164614,406.922106,593.383520,403.925000,593.241000C373.920000,590.284000,342.655000,601.441000,314.006000,592.055000C306.035000,589.447000,298.349000,585.084000,293.474000,578.243000C289.637067,572.983264,288.086523,566.397056,289.174000,559.978000L289.174000,559.864000C290.303000,554.095000,293.350000,552.673000,298.396000,550.041000C304.220861,546.961641,310.309032,544.408504,316.588000,542.412000C328.775000,538.601000,341.897000,537.228000,354.475000,540.023000C360.349000,541.339000,366.012000,543.517000,371.895000,544.792000C374.211000,545.292000,376.542000,545.653000,378.895000,545.954000C382.543000,546.409000,386.207000,546.710000,389.880000,547.132000C401.623233,548.483907,413.188697,551.084963,424.380000,554.891000C428.604625,556.162386,432.620246,558.045708,436.299000,560.481000C442.024043,564.638796,445.840973,570.920250,446.894000,577.917000C447.235000,580.306000,447.243000,582.792000,447.763000,585.108000C448.255752,587.053992,448.907957,588.956089,449.713000,590.795000C456.655410,607.957637,462.328653,625.606724,466.687000,643.600000C466.934156,644.936852,467.392202,646.225929,468.044000,647.419000C469.084000,649.101000,470.871000,650.230000,471.920000,651.912000C474.357000,655.877000,472.009000,661.412000,474.171000,665.538000C474.918000,666.968000,476.162000,668.097000,476.909000,669.527000C479.346000,674.218000,475.746000,679.824000,471.586000,683.050000Z" transform="matrix(1 0 0 1 -111.94000000000000 -199.56000000000000)" fill="rgb(41,41,41)" stroke="none" stroke-width="1"/></g><path id="ekevhsgeqvw45" d="M460.776000,599.781000C461.930923,598.867089,462.927281,597.769033,463.725000,596.531000C464.525568,595.287014,464.843540,593.793188,464.619000,592.331000C465.261325,596.082184,464.088766,599.915904,461.458000,602.666000C459.419000,604.754000,455.592000,606.802000,452.610000,606.087000C453.033000,603.700000,458.882000,601.389000,460.776000,599.781000Z" transform="matrix(1 0 0 1 824.22100000000000 235.35499999999999)" opacity="0.1" fill="rgb(0,0,0)" stroke="none" stroke-width="1"/><path id="ekevhsgeqvw46" d="M379.387000,549.200000C378.888687,550.969006,377.532650,552.367902,375.780000,552.921000C374.047636,553.450588,372.233808,553.662665,370.426000,553.547000L368.800000,553.547000C347.480000,553.076000,325.933000,548.347000,305.109000,552.856000C302.599333,553.373230,300.137143,554.098742,297.748000,555.025000C294.704074,556.224813,291.854001,557.867530,289.290000,559.900000L289.290000,559.786000C290.419000,554.017000,293.466000,552.595000,298.512000,549.963000C304.331386,546.910095,310.411061,544.381443,316.679000,542.407000C328.866000,538.596000,341.988000,537.223000,354.566000,540.018000C360.440000,541.334000,366.103000,543.512000,371.986000,544.787000C374.302000,545.287000,376.633000,545.648000,378.986000,545.949000C379.441304,546.967913,379.582652,548.099392,379.392000,549.199000Z" transform="matrix(1 0 0 1 854.84400000000005 245.44100000000000)" opacity="0.1" fill="rgb(0,0,0)" stroke="none" stroke-width="1"/><path id="ekevhsgeqvw47" d="M311.144000,473.684000C308.707000,481.411000,302.052000,488.374000,293.952000,488.707000C293.362681,488.775757,292.766207,488.668225,292.238000,488.398000C291.222000,487.764000,291.198000,486.277000,291.612000,485.148000C292.168400,484.095134,292.588766,482.975837,292.863000,481.817000C292.887136,481.574954,292.870574,481.330576,292.814000,481.094000C297.114000,475.033000,301.280000,468.907000,302.930000,461.732000C303.263634,460.496745,303.365353,459.210339,303.230000,457.938000C302.867133,456.509715,302.411158,455.106715,301.865000,453.738000C301.150000,451.238000,301.483000,448.587000,301.686000,445.995000C302.532095,434.582311,300.626377,423.133257,296.129000,412.610000C294.877845,410.139457,293.959843,407.513904,293.399000,404.802000C293.961160,403.723903,294.919242,402.905609,296.072000,402.519000C298.737000,401.625000,300.484000,403.019000,300.872000,405.541000C301.522000,409.841000,301.148000,414.227000,302.001000,418.541000C302.789828,422.575609,303.984916,426.520036,305.568000,430.314000C307.006000,433.743000,308.753000,437.058000,309.858000,440.608000C310.689761,443.534459,311.284681,446.523104,311.637000,449.545000C312.753000,457.600000,313.606000,465.957000,311.144000,473.684000Z" transform="matrix(1 0 0 1 854.45600000000002 270.99700000000001)" opacity="0.1" fill="rgb(0,0,0)" stroke="none" stroke-width="1"/><path id="ekevhsgeqvw48" d="M379.219000,544.992000C378.724496,546.764913,377.367490,548.167817,375.612000,548.721000C373.879933,549.251639,372.065364,549.460751,370.258000,549.338000L368.633000,549.338000C361.692904,544.728780,353.349510,542.714992,345.071000,543.651000C342.422000,543.968000,339.771000,544.585000,337.125000,544.342000C331.771000,543.855000,327.432000,540.003000,322.663000,537.542000C311.560394,532.059322,298.241003,533.865944,289,542.108000L288.537000,542.514000C288.470284,542.189852,288.426840,541.861347,288.407000,541.531000C288.261000,538.598000,289.307000,536.908000,291.714000,535.324000C298.848000,530.612000,307.550000,527.378000,315.691000,524.948000C320.019143,523.579570,324.490082,522.712560,329.016000,522.364000C335.416000,521.990000,341.816000,523.176000,348.045000,524.680000C355.707000,526.573000,363.287000,529.080000,370.080000,533.080000C373.387000,535.054000,376.637000,537.492000,378.432000,540.953000C379.148521,542.169353,379.426633,543.594497,379.220000,544.991000Z" transform="matrix(1 0 0 1 855.01199999999994 248.48800000000000)" opacity="0.1" fill="rgb(0,0,0)" stroke="none" stroke-width="1"/><g id="ekevhsgeqvw49" transform="matrix(1 0 0 1 966.87000000000000 445)"><path id="ekevhsgeqvw50" d="M395.772000,425.726000L395.658000,426.018000C393.838000,430.739000,390.491000,434.728000,388.346000,439.327000C385.640000,445.153000,384.974000,451.685000,384.373000,458.087000C383.700959,463.559644,383.494552,469.079449,383.756000,474.587000C384.796000,488.139000,391.418000,500.993000,393.189000,514.287000C393.625425,517.357050,393.737042,520.464550,393.522000,523.558000C393.376000,525.516000,393.022000,527.620000,391.722000,529.067000C390.422000,530.514000,387.895000,531.082000,386.498000,529.693000C387.124000,528.499000,387.757000,527.312000,388.391000,526.118000C384.678000,523.234000,379.091000,525.306000,374.749000,523.502000C372.909486,522.551093,371.213695,521.344815,369.712000,519.919000C362.332054,513.918673,352.844324,511.147738,343.395000,512.233000C340.746000,512.558000,338.095000,513.175000,335.449000,512.933000C330.095000,512.433000,325.756000,508.594000,320.987000,506.133000C309.885499,500.653170,296.569476,502.456225,287.325000,510.691000C286.187000,511.747000,284.660000,512.982000,283.263000,512.316000C282.721148,511.985026,282.283444,511.508161,282,510.940000C276.678000,501.848000,280.594000,490.124000,286.282000,481.268000C291.970000,472.412000,299.501000,464.246000,301.841000,453.984000C302.178590,452.749433,302.280368,451.462281,302.141000,450.190000C301.778130,448.761716,301.322155,447.358716,300.776000,445.990000C300.061000,443.490000,300.394000,440.839000,300.597000,438.247000C301.449428,426.832944,299.549180,415.381043,295.056000,404.854000C293.756000,401.823000,292.212000,398.754000,292.212000,395.462000C292.212000,390.278000,295.925000,385.980000,298.996000,381.812000C302.530000,377.018000,305.496000,371.712000,309.973000,367.772000C314.214000,364.026000,320.357000,361.735000,325.605000,363.636000C334.523548,361.470834,343.703232,360.576331,352.872000,360.979000C356.041000,361.125000,359.315000,361.458000,362.094000,362.994000C365.068000,364.619000,367.205000,367.511000,370.130000,369.242000C372.267000,370.518000,374.730000,371.119000,377.052000,372.013000C383.468330,374.519079,388.764982,379.256132,391.969000,385.354000C395.219000,391.654000,396.031000,398.890000,396.746000,405.943000C397.430000,412.580000,398.080000,419.478000,395.772000,425.726000Z" transform="matrix(1 0 0 1 -110.18000000000001 -166.25000000000000)" fill="rgb(37,67,204)" stroke="none" stroke-width="1"/></g><path id="ekevhsgeqvw51" d="M403.732000,479.927000C404.772000,493.479000,411.394000,506.333000,413.165000,519.627000C409.623000,516.627000,404.691000,513.614000,404.033000,510.127000C403.302000,506.357000,400.962000,501.417000,400.572000,497.606000C400.182000,493.795000,402.855000,489.140000,400.052000,486.524000C398.687000,485.248000,402.319000,485.606000,400.986000,484.298000C397.986000,481.381000,397.249000,476.888000,397.062000,472.720000C396.745000,465.343000,397.679000,457.884000,396.323000,450.628000C395.511000,446.151000,393.812000,441.886000,392.456000,437.539000C390.880000,432.477000,389.742000,427.293000,388.605000,422.102000C387.485575,417.485923,386.671478,412.801112,386.168000,408.078000C385.819000,404.016000,385.981000,399.709000,387.793000,396.004000C389.605000,392.299000,393.269000,389.293000,397.380000,389.350000C411.127000,389.529000,408.755000,408.167000,411.780000,416.780000C412.991000,420.209000,414.624000,423.524000,415.280000,427.099000C415.520024,428.500382,415.650420,429.918346,415.670000,431.340000C413.850000,436.061000,410.503000,440.050000,408.358000,444.649000C405.652000,450.475000,404.986000,457.007000,404.385000,463.409000C403.685060,468.885339,403.466556,474.412497,403.732000,479.927000Z" transform="matrix(1 0 0 1 836.70699999999999 273.41600000000000)" opacity="0.1" fill="rgb(0,0,0)" stroke="none" stroke-width="1"/><g id="ekevhsgeqvw52" transform="matrix(1 0 0 1 966.87000000000000 445)"><path id="ekevhsgeqvw53" d="M412.885000,416.500000C414.096000,419.929000,415.729000,423.244000,416.385000,426.819000C417.485000,432.807000,415.785000,439.169000,417.628000,444.970000C418.107264,446.208216,418.508057,447.475392,418.828000,448.764000C419.145000,450.608000,418.779000,452.493000,418.779000,454.370000C418.779000,457.392000,419.730000,460.317000,420.579000,463.218000C423.436580,473.074916,425.327833,483.186602,426.226000,493.410000C426.360211,496.157228,426.793435,498.881647,427.518000,501.535000C427.859047,502.434055,428.151798,503.350696,428.395000,504.281000C428.613093,505.522605,428.664881,506.787723,428.549000,508.043000C428.330000,512.024000,427.883000,516.022000,428.330000,519.987000C428.777000,523.952000,430.223000,527.974000,433.205000,530.631000C430.540000,531.208000,427.721000,531.785000,425.121000,530.931000C421.465000,529.737000,419.271000,526.056000,417.410000,522.709000C415.054000,518.435000,406.100000,514.584000,405.174000,509.782000C404.451000,506.020000,402.111000,501.082000,401.721000,497.261000C401.331000,493.440000,403.996000,488.803000,401.193000,486.187000C399.836000,484.911000,403.468000,485.261000,402.127000,483.961000C399.137000,481.044000,398.398000,476.551000,398.211000,472.375000C397.894000,465.006000,398.820000,457.547000,397.472000,450.291000C396.660000,445.814000,394.961000,441.549000,393.605000,437.191000C392.029000,432.137000,390.891000,426.954000,389.754000,421.754000C388.631381,417.138588,387.817247,412.453564,387.317000,407.730000C386.968000,403.668000,387.122000,399.353000,388.942000,395.648000C390.762000,391.943000,394.426000,388.948000,398.529000,388.994000C412.218000,389.244000,409.862000,407.890000,412.885000,416.500000Z" transform="matrix(1 0 0 1 -130.37000000000000 -171.52000000000001)" fill="rgb(23,82,189)" stroke="none" stroke-width="1"/></g><path id="ekevhsgeqvw54" d="M369.692000,425.500000C370.976000,427,372.625000,428.652000,374.567000,428.360000C374.260313,428.846025,373.621266,428.997565,373.129000,428.701000C372.662762,428.392194,372.289133,427.962573,372.048000,427.458000L369.269000,422.770000C368.903000,422.161000,366.385000,418.610000,365.769000,420.658000C365.523000,421.524000,369.066000,424.766000,369.692000,425.500000Z" transform="matrix(1 0 0 1 840.50599999999997 267.66399999999999)" opacity="0.1" fill="rgb(0,0,0)" stroke="none" stroke-width="1"/><path id="ekevhsgeqvw55" d="M365.269000,439.258000C365.189026,437.726289,364.543319,436.278795,363.457000,435.196000C362.480266,434.310202,361.340385,433.623081,360.101000,433.173000C356.966122,431.777733,353.571343,431.062039,350.140000,431.073000C351.340000,432.828000,355.202000,433.873000,357.140000,434.867000Q361.247000,436.991000,365.269000,439.258000Z" transform="matrix(1 0 0 1 843.43499999999995 265.59500000000003)" opacity="0.1" fill="rgb(0,0,0)" stroke="none" stroke-width="1"/><path id="ekevhsgeqvw56" d="M372.800000,479.319000C372.239000,483.479000,368.835000,486.631000,365.390000,489.069000C361.945000,491.507000,358.078000,493.603000,355.827000,497.129000C354.267000,499.567000,353.568000,502.394000,352.244000,504.937000C350.782000,507.737000,348.596000,510.096000,346.849000,512.729000C345.102000,515.362000,343.737000,518.506000,344.273000,521.629000C344.288746,521.919073,344.424189,522.189598,344.647000,522.376000C344.987453,522.519812,345.378145,522.476654,345.679000,522.262000C349.221000,520.409000,350.619000,516.176000,352.106000,512.512000C353.666934,508.813438,355.424441,505.200952,357.371000,501.690000C358.248000,500.065000,359.215000,498.290000,360.848000,497.390000C361.966274,496.924257,363.111303,496.525551,364.277000,496.196000C365.930382,495.437767,367.380895,494.299082,368.510000,492.873000C372.945436,487.581744,375.261377,480.833804,375.010000,473.934000C374.961000,472.480000,374.880000,465.476000,372.694000,467.634000C370.508000,469.792000,373.173000,476.491000,372.800000,479.319000Z" transform="matrix(1 0 0 1 844.55700000000002 258.81299999999999)" opacity="0.1" fill="rgb(0,0,0)" stroke="none" stroke-width="1"/><g id="ekevhsgeqvw57" transform="matrix(1 0 0 1 966.87000000000000 445)"><path id="ekevhsgeqvw58" d="M367.500000,284.382000C374.487000,287.429000,380.500000,294.132000,380.281000,301.729000C380.094000,309.708000,373.415000,317.223000,375.715000,324.869000C377.048000,329.305000,381.061000,332.279000,384.238000,335.651000C396.338000,348.451000,396.312000,370.808000,384.173000,383.588000C379.526000,388.463000,373.554000,391.932000,368.638000,396.588000C351.308000,412.919000,350.568000,441.170000,359.847000,463.099000C352.737640,464.636803,345.491299,465.453603,338.218000,465.537000C334.818000,465.537000,330.646000,464.960000,329.411000,461.783000C328.273000,458.850000,330.223000,454.883000,327.981000,452.716000C326.925000,451.700000,325.340000,451.562000,323.919000,451.327000C314.770000,449.848000,307.263000,442.544000,303.834000,433.940000C300.405000,425.336000,300.584000,415.651000,302.550000,406.600000C303.950000,400.059000,306.133000,392.861000,302.891000,387.011000C298.829000,379.650000,287.145000,376.546000,287.324000,368.129000C287.470000,361.229000,295.603000,357.875000,300.218000,352.749000C308.733000,343.308000,304.679000,328.659000,304.662000,315.935000C304.662000,304.735000,308.578000,293.185000,316.914000,285.727000C329.309000,274.535000,353.188000,278.167000,367.500000,284.382000Z" transform="matrix(1 0 0 1 -111.65000000000001 -150.80000000000001)" fill="rgb(50,48,55)" stroke="none" stroke-width="1"/></g><g id="ekevhsgeqvw59" transform="matrix(1 0 0 1 1142.55999999999995 594.21500000000003)" opacity="0.1"><path id="ekevhsgeqvw60" d="M304.227000,398.100000C300.660000,391.665000,291.292000,388.480000,289.115000,382.151000C288.025659,383.628025,287.413353,385.402492,287.360000,387.237000C287.181000,395.654000,298.849000,398.758000,302.927000,406.127000C304.266337,408.735806,304.830251,411.673707,304.552000,414.593000C305.836000,408.938000,306.965000,403.039000,304.227000,398.100000Z" transform="matrix(1 0 0 1 -287.35700000000003 -319.44999999999999)" fill="rgb(0,0,0)" stroke="none" stroke-width="1"/><path id="ekevhsgeqvw61" d="M397.246000,319.418000C398.708000,315.152000,400.829000,310.846000,400.935000,306.418000C400.949663,305.938278,400.935973,305.458108,400.894000,304.980000C399.261000,309.871000,396.758000,314.616000,397.246000,319.418000Z" transform="matrix(1 0 0 1 -307.95100000000002 -304.98000000000002)" fill="rgb(0,0,0)" stroke="none" stroke-width="1"/><path id="ekevhsgeqvw62" d="M309.624000,343.070000C312.419000,334.238000,310.006000,323.286000,309.998000,313.487000C309.998000,312.301000,310.047000,311.106000,310.136000,309.920000C309.173431,313.706720,308.687670,317.598855,308.690000,321.506000C308.706000,328.500000,309.933000,336.090000,309.624000,343.070000Z" transform="matrix(1 0 0 1 -291.35700000000003 -305.90600000000001)" fill="rgb(0,0,0)" stroke="none" stroke-width="1"/><path id="ekevhsgeqvw63" d="M401.279000,394.387000C396.632000,399.262000,390.660000,402.731000,385.744000,407.387000C376.969000,415.650000,372.460000,426.968000,371.330000,438.969000C373.275208,429.991010,377.838893,421.791411,384.444000,415.407000C389.319000,410.776000,395.331000,407.323000,399.979000,402.407000C405.506991,396.382350,408.717217,388.591201,409.038000,380.421000C407.634823,385.641661,404.970384,390.437583,401.279000,394.387000Z" transform="matrix(1 0 0 1 -303.10300000000001 -319.12500000000000)" fill="rgb(0,0,0)" stroke="none" stroke-width="1"/><path id="ekevhsgeqvw64" d="M342.773000,486.500000C339.373000,486.500000,335.201000,485.915000,333.966000,482.738000C332.828000,479.813000,334.778000,475.848000,332.536000,473.671000C331.480000,472.655000,329.887000,472.517000,328.474000,472.282000C319.333000,470.811000,311.826000,463.499000,308.397000,454.903000C306.009517,448.480584,305.174466,441.584647,305.960000,434.778000C305.895000,435.046000,305.838000,435.314000,305.781000,435.591000C303.847000,444.642000,303.644000,454.335000,307.065000,462.940000C310.486000,471.545000,318,478.850000,327.140000,480.320000C328.586000,480.556000,330.179000,480.702000,331.203000,481.709000C333.470000,483.886000,331.495000,487.851000,332.633000,490.776000C333.868000,493.953000,338.033000,494.576000,341.440000,494.538000C348.713233,494.454409,355.959521,493.637949,363.069000,492.101000C362.066367,489.730543,361.190464,487.308458,360.445000,484.845000C354.609815,485.881306,348.699135,486.434847,342.773000,486.500000Z" transform="matrix(1 0 0 1 -290.55200000000002 -329.31799999999998)" fill="rgb(0,0,0)" stroke="none" stroke-width="1"/></g><path id="ekevhsgeqvw65" d="M384.375000,453.517000C386.382000,455.028000,388.559000,449.268000,387.316000,447.830000C386.983000,448.200000,384.066000,453.306000,384.375000,453.517000Z" transform="matrix(1 0 0 1 837.01999999999998 262.44999999999999)" opacity="0.1" fill="rgb(0,0,0)" stroke="none" stroke-width="1"/><g id="ekevhsgeqvw66" transform="matrix(1 0 0 1 966.87000000000000 445)"><path id="ekevhsgeqvw67" d="M394.910000,581.051000C397.274000,580.239000,399.785000,579.426000,401.329000,577.476000C402.605000,575.908000,403.653000,569.684000,400.955000,572.666000C398.664000,575.225000,397.583000,578.600000,394.910000,581.051000Z" transform="matrix(1 0 0 1 -131.83000000000001 -205.81000000000000)" opacity="0.1" fill="rgb(0,0,0)" stroke="none" stroke-width="1"/></g><path id="ekevhsgeqvw68" d="M423.835000,573.109000C423.682942,575.055456,422.924355,576.905232,421.666000,578.398000C421.414000,578.658000,420.854000,578.821000,420.780000,578.471000C422.295802,577.664121,423.704456,576.670370,424.973000,575.513000C427.719000,572.791000,428.093000,566.088000,423.909000,564.313000C423.867000,567.251000,424.282000,570.119000,423.835000,573.109000Z" transform="matrix(1 0 0 1 830.18799999999999 240.60900000000001)" opacity="0.1" fill="rgb(0,0,0)" stroke="none" stroke-width="1"/><path id="ekevhsgeqvw69" d="M452.351000,558.379000C452.351000,558.379000,429.292000,549.320000,420.956000,550.254000C412.620000,551.188000,430.397000,564.326000,430.397000,564.326000L441.024000,571.492000C441.024000,571.492000,447.524000,569.054000,447.955000,568.868000C448.386000,568.682000,452.351000,558.379000,452.351000,558.379000Z" transform="matrix(1 0 0 1 830.57200000000000 243.25800000000001)" fill="rgb(44,44,44)" stroke="none" stroke-width="1"/><path id="ekevhsgeqvw70" d="M264.840000,439.768000C264.840000,439.768000,282.162000,429.726000,305.026000,442.206000C327.890000,454.686000,331.700000,528.127000,331.700000,528.127000C331.700000,528.127000,322.348000,602.950000,358.407000,586.301000C358.407000,586.301000,424.219000,565.867000,430.807000,570.368000C430.807000,570.368000,437.047000,570.368000,424.575000,573.139000C412.103000,575.910000,363.922000,591.176000,363.922000,591.176000C363.922000,591.176000,348.346000,596.620000,341.749000,591.176000C335.152000,585.732000,316.456000,591.876000,314.027000,554.451000C312.419348,530.868108,309.528063,507.390316,305.366000,484.122000L298.939000,465.069000Z" transform="matrix(1 0 0 1 859.42899999999997 264.67800000000000)" fill="rgb(86,86,97)" stroke="none" stroke-width="1"/><path id="ekevhsgeqvw71" d="M260.744000,555.805000C260.744000,555.805000,268.365000,479.934000,255.869000,452.561000C244.998000,428.706000,287.036000,439.861000,298.005000,443.112000C299.702581,443.619413,301.183254,444.676885,302.214000,446.118000C308.714000,455.259000,332.033000,491.894000,325.159000,540.912000C325.159000,540.912000,322.388000,584.567000,339.711000,591.490000L286.338000,574.300000C282.007000,572.900000,277.612000,571.741000,273.176000,570.733000C267.520000,569.447000,258.307000,565.800000,260.744000,555.805000Z" transform="matrix(1 0 0 1 861.44399999999996 264.35599999999999)" fill="rgb(74,74,74)" stroke="none" stroke-width="1"/><path id="ekevhsgeqvw72" d="M694.530000,653.274000L701.461000,653.274000L706,560.129000L706.309000,554.829000L700.418000,552.757000L700.028000,558.388000Z" transform="matrix(1 0 0 1 807.26400000000001 308.52999999999997)" fill="rgb(86,86,97)" stroke="none" stroke-width="1"/><path id="ekevhsgeqvw73" d="M701.300000,558.391000L707.272000,560.130000L707.581000,554.830000L701.690000,552.758000Z" transform="matrix(1 0 0 1 805.99400000000003 308.52999999999997)" opacity="0.1" fill="rgb(0,0,0)" stroke="none" stroke-width="1"/><path id="ekevhsgeqvw74" d="M648.184000,704.439000C648.013528,705.714763,647.686046,706.964568,647.209000,708.160000C646.715165,709.719427,645.657615,711.038690,644.243000,711.860000C643.291664,712.252820,642.272245,712.454325,641.243000,712.453000C637.416000,712.681000,633.370000,712.624000,630.079000,710.674000C628.677124,709.770764,627.391788,708.698364,626.252000,707.481000C618.858703,700.135953,612.137873,692.143714,606.170000,683.600000C605.170000,682.162000,604.139000,680.464000,604.586000,678.725000C612.317447,676.580393,619.658990,673.220836,626.336000,668.772000C627.257458,668.065109,628.289806,667.515988,629.391000,667.147000C631.276243,666.744131,633.217253,666.672730,635.127000,666.936000C636.971000,667.236000,637.053000,667.294000,637.759000,669.374000C638.929000,672.892000,638.734000,676.686000,640.050000,680.205000C640.885508,682.149017,641.903040,684.009638,643.089000,685.762000C646.486000,691.439000,649.094000,698.142000,648.184000,704.439000Z" transform="matrix(1 0 0 1 795.74400000000003 221.39599999999999)" fill="rgb(126,49,49)" stroke="none" stroke-width="1"/><path id="ekevhsgeqvw75" d="M648.184000,706.622000C648.013528,707.897763,647.686046,709.147568,647.209000,710.343000C646.715165,711.902427,645.657615,713.221690,644.243000,714.043000C643.291664,714.435820,642.272245,714.637325,641.243000,714.636000C637.416000,714.864000,633.370000,714.807000,630.079000,712.857000C628.677124,711.953764,627.391788,710.881364,626.252000,709.664000C618.857382,702.317179,612.135536,694.322919,606.167000,685.777000C605.167000,684.339000,604.136000,682.641000,604.583000,680.902000C607.105450,680.203026,609.589811,679.373237,612.026000,678.416000L612.148000,678.505000C614.642000,680.284000,616.454000,682.836000,618.217000,685.338000L623.905000,693.338000C624.918833,694.909855,626.116266,696.355369,627.472000,697.644000C629.152892,698.993025,631.008762,700.108162,632.989000,700.959000C635.662000,702.251000,638.335000,703.543000,641.114000,704.583000C642.911000,705.314000,645.949000,705.600000,648.184000,706.622000Z" transform="matrix(1 0 0 1 795.74400000000003 219.21299999999999)" fill="rgb(101,37,37)" stroke="none" stroke-width="1"/><path id="ekevhsgeqvw76" d="M658.872000,604.316000C658.312151,605.666080,657.632432,606.963268,656.841000,608.192000C649.289408,620.872884,643.463984,634.504888,639.519000,648.727000C638.398000,648.475000,637.764000,650.003000,637.772000,651.164000C637.780000,652.325000,637.772000,653.788000,636.699000,654.211000C636.382000,654.333000,636.025000,654.333000,635.716000,654.471000C635.034000,654.780000,634.838000,655.649000,634.741000,656.397000L633.782000,663.433000C633.449000,665.871000,633.156000,668.511000,634.351000,670.664000C635.174876,671.943706,636.243306,673.048158,637.495000,673.914000L653.355000,686.426000C654.005000,686.938000,654.809000,687.482000,655.589000,687.198000C657.368000,686.548000,655.789000,683.363000,657.214000,682.071000C658.157000,681.185000,659.652000,681.852000,660.960000,681.746000C662.684842,681.445447,664.047307,680.115166,664.389000,678.398000C664.691108,676.718398,664.721158,675.001143,664.478000,673.312000C664.370760,672.541251,664.460200,671.755899,664.738000,671.029000C665.222757,670.258660,665.889718,669.619517,666.680000,669.168000C672.267509,665.087372,675.466529,658.500515,675.219000,651.586000C675.089991,650.549260,675.128482,649.498522,675.333000,648.474000C675.663636,647.536222,676.162081,646.666400,676.804000,645.907000C682.565000,638.115000,687.366000,629.657000,692.136000,621.215000C694.882000,616.340000,697.677000,611.392000,698.636000,605.900000C698.804474,605.485690,698.768207,605.016259,698.538097,604.632742C698.307987,604.249225,697.910849,603.996316,697.466000,603.950000C695.086644,603.207219,692.659772,602.626226,690.202000,602.211000C682.735000,600.700000,675.528000,598.368000,668.265000,596.126000C661.002000,593.884000,661.058000,598.450000,658.872000,604.316000Z" transform="matrix(1 0 0 1 790.30499999999995 234.75299999999999)" fill="rgb(69,75,105)" stroke="none" stroke-width="1"/><path id="ekevhsgeqvw77" d="M587.500000,667.252000L598.940000,668.633000L651.600000,549.107000L665.800000,548.067000L690.752000,555.347000L695.594000,697.655000L707.026000,697.655000L702.526000,550.147000L729.899000,550.847000L778.746000,672.447000L789.138000,672.447000L737.763000,530.331000L735.789000,524.855000L659.220000,522.231000L640.135000,532.931000L639.891000,533.548000Z" transform="matrix(1 0 0 1 827.75699975999999 312.63000000000000)" fill="rgb(231,229,235)" stroke="none" stroke-width="1"/><path id="ekevhsgeqvw78" d="M686.940000,614.478000C703.393000,619.434000,720.472000,624.845000,720.472000,624.845000C720.472000,624.845000,736.047000,630.281000,742.645000,624.845000C743.476805,624.196077,744.406380,623.683359,745.399000,623.326000C744.542983,623.937372,743.618776,624.447129,742.645000,624.845000L784.813000,611.252000L782.863000,605.784000L706.294000,603.160000L687.209000,613.860000Z" transform="matrix(1 0 0 1 780.28200000000004 233.32499999999999)" opacity="0.1" fill="rgb(0,0,0)" stroke="none" stroke-width="1"/><path id="ekevhsgeqvw79" d="M757.126000,586.461000L725.951000,579.530000C725.951000,579.530000,651.462000,593.391000,645.920000,598.930000C645.920000,598.930000,705.508000,611.052000,712.089000,615.180000C718.670000,619.308000,757.825000,623.876000,757.126000,586.461000Z" transform="matrix(1 0 0 1 787.97400000000005 237.75500000000000)" fill="rgb(255,255,255)" stroke="none" stroke-width="1"/><g id="ekevhsgeqvw80" transform="matrix(1 0 0 1 966.87000000000000 445)"><path id="ekevhsgeqvw81" d="M627.031000,717.500000C625.154000,721.075000,620.531000,722.083000,616.469000,722.139000C610.828697,722.208887,605.226331,721.208197,599.959000,719.190000C597.021270,717.878116,594.019486,716.714650,590.965000,715.704000C586.342000,714.437000,581.215000,714.542000,577.153000,712.004000C574.998357,710.567536,573.218239,708.636905,571.961000,706.373000C571.725000,705.973000,571.498000,705.561000,571.287000,705.138000C569.217186,701.407873,568.589781,697.047356,569.524000,692.885000C570.605000,688.806000,574.524000,684.313000,579.079000,684.378000C584.479000,684.459000,590.925000,687.019000,596.141000,688.343000C602.641000,689.968000,609.141000,691.843000,614.885000,695.282000C619.795601,698.085410,623.743714,702.308210,626.211000,707.396000C626.646914,708.374159,627.005674,709.384906,627.284000,710.419000C628.118594,712.723230,628.027914,715.261209,627.031000,717.500000Z" transform="matrix(1 0 0 1 -164.47999999999999 -226.90000000000001)" fill="rgb(126,49,49)" stroke="none" stroke-width="1"/></g><g id="ekevhsgeqvw82" transform="matrix(1 0 0 1 966.87000000000000 445)"><path id="ekevhsgeqvw83" d="M627.545000,722.286000C625.668000,725.861000,621.045000,726.869000,616.983000,726.925000C611.342697,726.994887,605.740331,725.994197,600.473000,723.976000C597.535258,722.664143,594.533476,721.500677,591.479000,720.490000C586.856000,719.223000,581.729000,719.328000,577.667000,716.790000C575.512357,715.353536,573.732239,713.422905,572.475000,711.159000C572.239000,710.759000,572.012000,710.347000,571.801000,709.924000C572.614000,709.989000,573.361000,710.070000,573.767000,710.111000C578.756000,710.590000,583.517000,712.411000,588.278000,713.783000C594.887766,715.692445,601.712714,716.757247,608.590000,716.952000C613.465000,717.090000,618.551000,716.733000,622.809000,714.352000C624.080415,713.550071,625.399155,712.825750,626.758000,712.183000C627.193903,713.160820,627.552663,714.171234,627.831000,715.205000C628.638791,717.515942,628.536533,720.047732,627.545000,722.286000Z" transform="matrix(1 0 0 1 -165 -231.69000000000000)" fill="rgb(101,37,37)" stroke="none" stroke-width="1"/></g><g id="ekevhsgeqvw84" transform="matrix(1 0 0 1 966.87000000000000 445)"><path id="ekevhsgeqvw85" d="M657.858000,534.276000C647.296000,532.545000,636.538000,532.123000,625.829000,531.700000L612.729000,531.180000C611.797584,531.072004,610.853833,531.186118,609.975000,531.513000C609.217558,531.999851,608.497856,532.543054,607.822000,533.138000C606.419223,533.902660,604.836632,534.276030,603.240000,534.219000C592.000879,534.838242,580.823009,536.288537,569.798000,538.558000C564.111000,539.720000,558.204000,541.239000,553.930000,545.164000C549.412000,549.316000,547.430000,555.645000,547.276000,561.771000C547.122000,567.897000,548.730000,573.918000,550.428000,579.800000C552.589902,586.881366,553.784389,594.222535,553.979000,601.624000C553.902811,603.677351,553.981702,605.733524,554.215000,607.775000C554.593060,609.723624,555.167318,611.628995,555.929000,613.462000L561.909000,629.428000C562.437000,630.828000,562.957000,632.215000,563.534000,633.580000C564.111000,634.945000,564.663000,636.018000,565.159000,637.301000C565.890000,639.056000,566.467000,640.876000,567.044000,642.688000L571.025000,655.188000L571.545000,656.813000C572.983000,661.313000,574.454000,665.897000,577.167000,669.764000C579.880000,673.631000,584.081000,676.751000,588.802000,676.987000C590.325043,676.930011,591.850173,676.970761,593.368000,677.109000C594.661962,677.424879,595.917940,677.879862,597.114000,678.466000C600.658669,679.938675,604.463701,680.682132,608.302000,680.652000C611.836000,680.652000,615.761000,679.669000,617.678000,676.695000C618.604717,674.983410,619.158529,673.094998,619.303000,671.154000C619.815000,667.303000,620.310000,663.281000,619.003000,659.625000C618.191000,657.439000,616.826000,655.563000,615.883000,653.409000C614.567000,650.476000,614.136000,647.234000,613.283000,644.138000C611.436669,637.475260,607.680177,631.498801,602.477000,626.946000C600.629193,619.629380,599.272172,612.197504,598.415000,604.700000C598.295838,603.039829,597.965509,601.401622,597.432000,599.825000C596.481000,597.388000,594.556000,595.413000,593.751000,592.925000C592.995000,590.617000,593.223000,587.952000,591.851000,585.962000C603.283000,589.106000,614.601000,588.400000,626.471000,588.213000C630.272283,588.225109,634.070840,588.008049,637.846000,587.563000C639.605932,587.240270,641.387601,587.050069,643.176000,586.994000C646.848000,586.994000,650.293000,588.619000,653.665000,590.049000C663.196000,594.111000,673.238000,597.305000,683.589000,597.743000C694.273000,598.190000,704.836000,595.679000,715.276000,593.193000C719.867000,592.093000,724.636000,590.910000,728.276000,587.893000C731.916000,584.876000,733.964000,579.443000,731.721000,575.307000C730.015000,572.195000,726.480000,570.668000,723.182000,569.368000C714.050000,565.761000,704.868000,562.242000,696.069000,557.879000C682.631000,551.339000,672.580000,536.714000,657.858000,534.276000Z" transform="matrix(1 0 0 1 -160.38999999999999 -198.16999999999999)" fill="rgb(42,42,42)" stroke="none" stroke-width="1"/></g><path id="ekevhsgeqvw86" d="M658.377000,485.692000C657.101000,488.454000,654.956000,490.713000,653.377000,493.313000C650.726893,497.592745,649.852475,502.738066,650.940000,507.653000C652.097849,512.577285,655.474389,516.685944,660.081000,518.776000C662.109876,519.584057,664.243748,520.098247,666.418000,520.303000C669.278000,520.652000,672.325000,520.726000,674.852000,519.344000C676.743583,518.208017,678.295311,516.584798,679.345000,514.644000C681.391600,510.906444,682.927309,506.911112,683.911000,502.765000C686.011000,495.193000,687.811000,487.425000,687.551000,479.565000C687.462000,476.859000,686.925000,473.812000,684.683000,472.253000C683.525487,471.584546,682.241667,471.163984,680.913000,471.018000L670.196000,469.101000C668.124000,468.727000,664.509000,467.208000,662.713000,468.701000C660.917000,470.194000,660.779000,474.616000,660.471000,476.688000C659.978000,479.761000,659.677000,482.873000,658.377000,485.692000Z" transform="matrix(1 0 0 1 787.11900000000003 258.65600000000001)" fill="rgb(230,148,160)" stroke="none" stroke-width="1"/><path id="ekevhsgeqvw87" d="M815.040000,448.956000L812.240000,472.456000C811.659470,476.646790,811.325561,480.868057,811.240000,485.098000C811.240000,487.454000,811.313000,490.070000,809.753000,491.834000C808.990005,492.636388,808.024265,493.217560,806.958000,493.516000C803.558000,494.572000,799.841000,493.630000,796.591000,492.175000C794.691000,491.363000,792.748000,490.184000,791.891000,488.291000C791.390679,486.978676,791.182841,485.572958,791.282000,484.172000C791.282000,470.157000,792.606000,455.540000,799.927000,443.596000C800.551606,442.423915,801.432033,441.407459,802.503000,440.622000C804.534000,439.322000,807.191000,439.688000,809.490000,440.394000C810.904000,440.825000,814.722000,441.304000,815.624000,442.563000C816.526000,443.822000,815.235000,447.339000,815.040000,448.956000Z" transform="matrix(1 0 0 1 760.72400000000005 263.96499999999997)" fill="rgb(161,97,106)" stroke="none" stroke-width="1"/><g id="ekevhsgeqvw88" transform="matrix(1 0 0 1 966.87000000000000 445)"><circle id="ekevhsgeqvw89" r="29.250000" transform="matrix(1 0 0 1 534.52999999999997 153.69999999999999)" fill="rgb(230,148,160)" stroke="none" stroke-width="1"/></g><g id="ekevhsgeqvw90" transform="matrix(1 0 0 1 966.87000000000000 445)"><path id="ekevhsgeqvw91" d="M717.169000,355.851000C717.063495,358.126684,716.444001,360.348927,715.357000,362.351000Q737.757000,358.939000,760.044000,354.751000C755.114648,352.216972,751.387836,347.835892,749.677000,342.564000C748.869092,339.736770,748.426824,336.817662,748.361000,333.878000C748.125244,329.216436,748.214794,324.544107,748.629000,319.895000C743.429000,320.439000,738.505000,322.389000,733.549000,324.063000C728.566048,325.746913,723.497256,327.165240,718.364000,328.312000C715.886000,328.865000,713.392000,329.336000,710.889000,329.774000C707.964000,330.294000,706.558000,330.286000,708.589000,332.853000C714.041000,339.707000,717.933000,346.678000,717.169000,355.851000Z" transform="matrix(1 0 0 1 -190.46000000000001 -158.56000000000000)" fill="rgb(230,148,160)" stroke="none" stroke-width="1"/></g><g id="ekevhsgeqvw92" transform="matrix(1 0 0 1 966.87000000000000 445)"><path id="ekevhsgeqvw93" d="M717.263000,357.653000C713.404000,358.230000,709.357000,358.880000,706.278000,361.269000C705.106067,362.275605,703.991327,363.346944,702.939000,364.478000C696.821000,370.417000,688.184000,372.806000,680.758000,376.999000C679.547009,377.597718,678.473651,378.441557,677.606000,379.477000C676.793000,380.606000,676.379000,382.045000,675.526000,383.166000C674.535000,384.466000,672.967000,385.278000,672.195000,386.717000C671.423000,388.156000,671.595000,389.683000,671.513000,391.210000C671.326000,394.566000,670.059000,397.751000,669.076000,400.960000C664.567000,416.324000,667.037000,433.460000,660.212000,447.971000C660.845995,449.660299,662.143489,451.016689,663.803000,451.725000C665.520364,452.343845,667.313048,452.729289,669.133000,452.871000L684.253000,454.748000C686.414000,455.016000,688.705000,455.268000,690.680000,454.366000C688.873793,459.344824,687.596428,464.499866,686.869000,469.746000C686.501520,472.952773,685.931717,476.133114,685.163000,479.268000C683.083000,486.418000,677.851000,492.374000,671.651000,496.444000C670.870411,496.853152,670.211836,497.461360,669.742000,498.207000C668.930000,499.832000,670.132000,501.652000,670.985000,503.244000C673.463000,507.859000,673.122000,513.400000,673.085000,518.633000C673.048000,523.866000,673.585000,529.610000,677.237000,533.364000C679.398000,535.582000,682.356000,536.785000,685.232000,537.930000L708.884000,547.379000C712.787150,549.040858,716.812779,550.398893,720.925000,551.441000C727.157000,552.863000,733.632000,552.806000,740.025000,552.530000Q746.362000,552.262000,752.684000,551.718000C754.360485,551.712509,756.007821,551.279163,757.470000,550.459000C758.727049,549.466186,759.694122,548.153730,760.270000,546.659000C763.561000,539.501000,764.670000,531.148000,769.770000,525.152000C773.270000,521.033000,778.708000,517.742000,779.106000,512.352000C779.293000,509.671000,778.099000,507.063000,778.082000,504.373000C778.082000,501.066000,779.813000,497.922000,779.707000,494.623000C779.488000,489.252000,774.426000,485.157000,773.621000,479.844000C771.574000,466.373000,778.415000,452.918000,782.615000,439.959000C783.371000,437.643000,784.346000,435.084000,786.572000,434.093000C788.798000,433.102000,791.934000,433.622000,792.731000,431.428000C794.738000,425.919000,795.217000,419.460000,794.957000,413.602000C794.811000,410.214000,793.608000,406.902000,793.746000,403.502000C793.846000,401.113000,794.607000,398.790000,794.810000,396.409000C795.119000,392.809000,794.168000,389.235000,793.185000,385.757000C792.901075,384.515575,792.475974,383.310733,791.918000,382.166000C791.317552,381.127754,790.609303,380.155713,789.805000,379.266000L785.848000,374.566000C783.996000,372.366000,782.037000,370.081000,779.348000,368.966000C778.479000,366.813000,775.700000,365.326000,773.709000,364.140000C771.702678,363.001343,769.629968,361.983855,767.502000,361.093000L745.126000,351.213000C744.289529,350.791925,743.393457,350.501554,742.469000,350.352000C741.106922,350.305941,739.753399,350.584254,738.520000,351.164000C731.700000,353.867000,724.576000,356.564000,717.263000,357.653000Z" transform="matrix(1 0 0 1 -181.56999999999999 -164.27000000000001)" fill="rgb(37,67,204)" stroke="none" stroke-width="1"/></g><g id="ekevhsgeqvw94" transform="matrix(1 0 0 1 966.87000000000000 445)"><path id="ekevhsgeqvw95" d="M700.255000,305.570000C699.394000,302.539000,697.192000,299.923000,696.855000,296.787000C696.555000,294,697.781000,291.303000,698.480000,288.587000C699.179000,285.871000,699.154000,282.558000,697.001000,280.755000C696.644000,280.446000,696.189000,280.170000,696.059000,279.715000C695.799000,278.903000,696.620000,278.163000,696.872000,277.343000C697.335000,275.718000,695.328000,273.922000,696.060000,272.362000C696.474000,271.509000,697.514000,271.208000,698.424000,270.940000C701.901000,269.908000,705.424000,267.617000,706.183000,264.066000C708.905000,265.203000,711.805000,263.066000,713.894000,260.995000C715.983000,258.924000,718.550000,256.559000,721.426000,257.184000L720.784000,258.492000C725.219143,256.881920,730.069923,256.827615,734.540000,258.338000L733.175000,258.338000C737.095759,258.404575,740.898342,259.691210,744.054000,262.019000C743.705000,262.019000,743.672000,262.539000,743.810000,262.832000C744.948000,265.489000,747.872000,266.894000,750.692000,267.553000C752.392000,267.959000,754.234000,268.253000,755.478000,269.470000C756.722000,270.687000,756.745000,273.232000,755.104000,273.817000C758.450924,275.120219,761.620236,276.840107,764.537000,278.936000C765.349000,279.529000,766.268000,280.336000,766.162000,281.374000C766.046904,281.895877,765.879387,282.404793,765.662000,282.893000C765.499957,283.760287,765.558762,284.654407,765.833000,285.493000L766.733000,289.214000C767.724000,293.350000,768.504000,298.330000,765.490000,301.328000C767.806909,305.657096,767.011161,310.993238,763.532000,314.458000C764.017134,315.926783,763.850474,317.532968,763.074117,318.870857C762.297759,320.208746,760.985938,321.150410,759.470000,321.458000C760.470000,323.018000,759.551000,325.244000,757.970000,326.219000C756.304169,327.063357,754.410596,327.348445,752.570000,327.032000C750.744829,326.706650,748.887048,326.602899,747.037000,326.723000C744.364000,327.137000,741.748000,328.957000,739.172000,328.145000C738.212072,327.734405,737.290460,327.239466,736.418000,326.666000C734.618000,325.699000,732.518000,325.480000,730.518000,325.041000C727.114712,324.306167,723.883777,322.925942,721,320.975000C719.085821,319.824287,717.560514,318.126212,716.621000,316.100000C714.834000,311.583000,717.840000,305.659000,714.679000,301.979000C712.627330,299.889333,709.309569,299.740471,707.079000,301.638000C706.047000,302.556000,705.909000,304.490000,704.837000,305.180000C703.341063,305.558458,701.793380,305.690190,700.255000,305.570000Z" transform="matrix(1 0 0 1 -188.25999999999999 -146.78000000000000)" fill="rgb(50,48,55)" stroke="none" stroke-width="1"/></g><path id="ekevhsgeqvw96" d="M651.413000,601.781000C650.258077,600.867089,649.261719,599.769033,648.464000,598.531000C647.663432,597.287014,647.345460,595.793188,647.570000,594.331000C646.927675,598.082184,648.100234,601.915904,650.731000,604.666000C652.770000,606.754000,656.597000,608.802000,659.579000,608.087000C659.156000,605.700000,653.306000,603.389000,651.413000,601.781000Z" transform="matrix(1 0 0 1 787.69600000000003 234.97999999999999)" opacity="0.1" fill="rgb(0,0,0)" stroke="none" stroke-width="1"/><path id="ekevhsgeqvw97" d="M811.500000,441.768000C811.500000,441.768000,794.178000,431.726000,771.314000,444.205000C748.450000,456.684000,744.640000,530.126000,744.640000,530.126000C744.640000,530.126000,753.992000,604.949000,717.933000,588.301000C717.933000,588.301000,652.121000,567.867000,645.533000,572.368000C645.533000,572.368000,639.293000,572.368000,651.765000,575.139000C664.237000,577.910000,712.418000,593.176000,712.418000,593.176000C712.418000,593.176000,727.993000,598.620000,734.591000,593.176000C741.189000,587.732000,759.884000,593.876000,762.313000,556.451000C763.920553,532.867768,766.811838,509.389637,770.974000,486.121000L777.401000,467.068000Z" transform="matrix(1 0 0 1 788.34000000000003 264.30300000000000)" fill="rgb(86,86,97)" stroke="none" stroke-width="1"/><path id="ekevhsgeqvw98" d="M834.500000,557.805000C834.500000,557.805000,826.879000,481.934000,839.375000,454.561000C850.246000,430.706000,808.208000,441.861000,797.239000,445.112000C795.541419,445.619413,794.060746,446.676885,793.030000,448.118000C786.530000,457.259000,763.212000,493.894000,770.085000,542.912000C770.085000,542.912000,772.856000,586.567000,755.533000,593.490000L808.900000,576.300000C813.231000,574.900000,817.626000,573.741000,822.062000,572.733000C827.720000,571.447000,836.934000,567.800000,834.500000,557.805000Z" transform="matrix(1 0 0 1 767.42100000000005 263.98099999999999)" fill="rgb(74,74,74)" stroke="none" stroke-width="1"/><ellipse id="ekevhsgeqvw99" rx="79.169000" ry="12.716000" transform="matrix(1 0 0 1 1741.83900000000017 956.60400000000004)" opacity="0.1" fill="rgb(108,99,255)" stroke="none" stroke-width="1"/><rect id="ekevhsgeqvw100" width="5.094000" height="114.700000" rx="0" ry="0" transform="matrix(1 0 0 1 1739.28999999999996 713.00999999999999)" fill="rgb(192,246,220)" stroke="none" stroke-width="1"/><g id="ekevhsgeqvw101" transform="matrix(1 0 0 1 966.87000000000000 445)"><path id="ekevhsgeqvw102" d="M1051.512000,590.134000L1051.195000,595.301000L1050.740000,602.613000L1050.553000,605.652000L1050.106000,612.964000L1049.911000,616.003000L1049.456000,623.316000L1044.321000,706.247000C1043.833328,713.633417,1037.700499,719.375702,1030.298000,719.377000L1003.591000,719.377000C996.174538,719.373592,990.039869,713.602439,989.584000,706.200000L984.433000,623.261000L983.986000,615.949000L983.799000,612.910000L983.336000,605.598000L983.149000,602.559000L982.702000,595.247000L982.377000,590.080000C982.263178,588.078201,982.976367,586.117485,984.349696,584.656621C985.723026,583.195758,987.635992,582.362929,989.641000,582.353000L1044.257000,582.353000C1046.270965,582.364497,1048.191014,583.206174,1049.564183,584.679468C1050.937352,586.152762,1051.642039,588.127204,1051.512000,590.137000Z" transform="matrix(1 0 0 1 -241.97999999999999 -207.77000000000001)" fill="rgb(55,55,55)" stroke="none" stroke-width="1"/></g><path id="ekevhsgeqvw103" d="M1016.313000,517.360000L1015.858000,524.648000L948.275000,524.648000L947.820000,517.360000Z" transform="matrix(1 0 0 1 759.77099999999996 315.16800000000001)" fill="rgb(255,255,255)" stroke="none" stroke-width="1"/><path id="ekevhsgeqvw104" d="M1015.819000,530.080000L1015.372000,537.380000L949.065000,537.380000L948.610000,530.080000Z" transform="matrix(1 0 0 1 759.62199999999996 312.78300000000002)" fill="rgb(51,51,51)" stroke="none" stroke-width="1"/><path id="ekevhsgeqvw105" d="M1015.326000,542.800000L1014.871000,550.088000L949.855000,550.088000L949.400000,542.800000Z" transform="matrix(1 0 0 1 759.47400000000005 310.39800000000002)" fill="rgb(255,255,255)" stroke="none" stroke-width="1"/><g id="ekevhsgeqvw106" transform="matrix(1 0 0 1 966.87000000000000 445)"><path id="ekevhsgeqvw107" d="M958.100000,498.865000C987.772000,520.331000,1000.130000,553.903000,1000.130000,553.903000C1000.130000,553.903000,964.380000,552.676000,934.700000,531.210000C905.020000,509.744000,892.678000,476.180000,892.678000,476.180000C892.678000,476.180000,928.438000,477.407000,958.100000,498.865000Z" transform="matrix(1 0 0 1 -225.16000000000000 -187.87000000000000)" fill="rgb(63,133,39)" stroke="none" stroke-width="1"/></g><g id="ekevhsgeqvw108" transform="matrix(1 0 0 1 966.87000000000000 445)"><path id="ekevhsgeqvw109" d="M892.680000,476.180000C892.680000,476.180000,929.787000,496.780000,941.698000,513.831000C953.609000,530.882000,1000.132000,553.903000,1000.132000,553.903000" transform="matrix(1 0 0 1 -225.16000000000000 -187.87000000000000)" fill="none" stroke="rgb(255,255,255)" stroke-width="2" stroke-miterlimit="10"/></g><g id="ekevhsgeqvw110" transform="matrix(1 0 0 1 966.87000000000000 445)"><path id="ekevhsgeqvw111" d="M988.563000,448.030000C1004.715000,459.706000,1011.443000,477.987000,1011.443000,477.987000C1011.443000,477.987000,991.943000,477.313000,975.831000,465.637000C959.719000,453.961000,953,435.680000,953,435.680000C953,435.680000,972.419000,436.346000,988.563000,448.030000Z" transform="matrix(1 0 0 1 -236.47000000000000 -180.27000000000001)" fill="rgb(63,133,39)" stroke="none" stroke-width="1"/></g><g id="ekevhsgeqvw112" transform="matrix(1 0 0 1 966.87000000000000 445)"><path id="ekevhsgeqvw113" d="M953,435.680000C953,435.680000,973.200000,446.892000,979.674000,456.171000C986.148000,465.450000,1011.483000,477.986000,1011.483000,477.986000" transform="matrix(1 0 0 1 -236.47000000000000 -180.27000000000001)" fill="none" stroke="rgb(255,255,255)" stroke-width="2" stroke-miterlimit="10"/></g><g id="ekevhsgeqvw114" transform="matrix(1 0 0 1 966.87000000000000 445)"><path id="ekevhsgeqvw115" d="M1048.624000,480.412000C1030.075000,500.797000,1026.150000,527.439000,1026.150000,527.439000C1026.150000,527.439000,1052.304000,521.020000,1070.837000,500.627000C1089.370000,480.234000,1093.311000,453.600000,1093.311000,453.600000C1093.311000,453.600000,1067.173000,460.027000,1048.624000,480.412000Z" transform="matrix(1 0 0 1 -250.19000000000000 -183.63000000000000)" fill="rgb(63,133,39)" stroke="none" stroke-width="1"/></g><g id="ekevhsgeqvw116" transform="matrix(1 0 0 1 966.87000000000000 445)"><path id="ekevhsgeqvw117" d="M1093.327000,453.610000C1093.327000,453.610000,1069.164000,474.510000,1063.021000,488.905000C1056.878000,503.300000,1026.150000,527.442000,1026.150000,527.442000" transform="matrix(1 0 0 1 -250.19000000000000 -183.63000000000000)" fill="none" stroke="rgb(255,255,255)" stroke-width="2" stroke-miterlimit="10"/></g><path id="ekevhsgeqvw118" d="M579.263000,418.585000L579.263000,420.437000L524.330000,420.437000L524.330000,418.937000C525.836055,418.372000,527.261798,417.612567,528.571000,416.678000C533.305090,413.288232,536.112776,407.822554,536.111000,402C536.111725,400.500963,535.923235,399.007829,535.550000,397.556000C534.204498,392.263585,530.536846,387.864020,525.573000,385.588000L578.889000,385.588000C573.924681,387.863664,570.256588,392.263317,568.911000,397.556000C568.540726,399.008203,568.355260,400.501340,568.359000,402C568.355174,407.820053,571.159922,413.284321,575.891000,416.674000C576.945404,417.426102,578.075547,418.065912,579.263000,418.583000Z" transform="matrix(1 0 0 1 810.77200000000005 274.12000000000000)" fill="rgb(223,230,245)" stroke="none" stroke-width="1"/><path id="ekevhsgeqvw119" d="M579.176000,385.590000C574.212064,387.865902,570.544370,392.265518,569.199000,397.558000L535.837000,397.558000C534.491498,392.265585,530.823846,387.866020,525.860000,385.590000Z" transform="matrix(1 0 0 1 810.48500000000001 274.12000000000000)" opacity="0.1" fill="rgb(0,0,0)" stroke="none" stroke-width="1"/><path id="ekevhsgeqvw120" d="M446.920000,373.940000L446.920000,384.372000C446.920000,390.124000,451.129000,394.796000,456.329000,394.796000L617.942000,394.796000C623.142000,394.796000,627.359000,390.124000,627.359000,384.372000L627.359000,373.940000Z" transform="matrix(1 0 0 1 825.28700000000003 276.30500000000001)" fill="rgb(223,230,245)" stroke="none" stroke-width="1"/><path id="ekevhsgeqvw121" d="M579.263000,425.759000L579.263000,427.611000L524.330000,427.611000L524.330000,426.111000C525.836055,425.546000,527.261798,424.786567,528.571000,423.852000L575.891000,423.852000C576.945404,424.604102,578.075547,425.243912,579.263000,425.761000Z" transform="matrix(1 0 0 1 810.77200000000005 266.94600000000003)" opacity="0.1" fill="rgb(0,0,0)" stroke="none" stroke-width="1"/><rect id="ekevhsgeqvw122" width="91.235000" height="5.501000" rx="2.750000" ry="2.750000" transform="matrix(1 0 0 1 1316.95000000000005 691.37300000000005)" fill="rgb(223,230,245)" stroke="none" stroke-width="1"/><path id="ekevhsgeqvw123" d="M627.359000,231.139000C627.359001,228.642191,626.366600,226.247762,624.600340,224.483002C622.834079,222.718242,620.438808,221.727877,617.942000,221.730000L456.329000,221.730000C453.832846,221.727609,451.438240,222.718144,449.673192,224.483192C447.908144,226.248240,446.917609,228.642846,446.920000,231.139000L446.920000,347.431000L627.359000,347.431000Z" transform="matrix(1 0 0 1 825.28700000000003 304.84500000000003)" fill="rgb(43,43,45)" stroke="none" stroke-width="1"/><path id="ekevhsgeqvw124" d="M623.571000,237.411000L623.571000,337.348000C623.573124,338.577603,623.086154,339.757572,622.217443,340.627784C621.348732,341.497996,620.169605,341.987002,618.940000,341.987000L457.611000,341.987000C456.381395,341.987002,455.202268,341.497996,454.333557,340.627784C453.464846,339.757572,452.977876,338.577603,452.980000,337.348000L452.980000,237.411000C452.975764,236.597831,453.188769,235.798284,453.597000,235.095000C454.424735,233.660907,455.955172,232.777875,457.611000,232.779000L618.940000,232.779000C621.497631,232.779000,623.571000,234.852369,623.571000,237.410000Z" transform="matrix(1 0 0 1 824.15099999999995 302.77300000000002)" fill="rgb(255,255,255)" stroke="none" stroke-width="1"/><circle id="ekevhsgeqvw125" r="2.169000" transform="matrix(1 0 0 1 1362.42900000000009 531.05999999999995)" fill="rgb(255,255,255)" stroke="none" stroke-width="1"/><circle id="ekevhsgeqvw126" r="5.354000" transform="matrix(1 0 0 1 1362.42399999999998 661.10800000000006)" fill="rgb(255,255,255)" stroke="none" stroke-width="1"/><path id="ekevhsgeqvw127" d="M623.575000,237.411000L453,237.411000C453,234.853369,455.073369,232.780000,457.631000,232.780000L618.944000,232.780000C621.501631,232.780000,623.575000,234.853369,623.575000,237.411000Z" transform="matrix(1 0 0 1 824.14700000000005 302.77300000000002)" fill="rgb(200,202,215)" stroke="none" stroke-width="1"/><circle id="ekevhsgeqvw128" r="1.162000" transform="matrix(1 0 0 1 1281.76199999999994 537.86900000000003)" fill="rgb(237,237,244)" stroke="none" stroke-width="1"/><circle id="ekevhsgeqvw129" r="1.162000" transform="matrix(1 0 0 1 1285.24199999999996 537.86900000000003)" fill="rgb(237,237,244)" stroke="none" stroke-width="1"/><circle id="ekevhsgeqvw130" r="1.162000" transform="matrix(1 0 0 1 1288.72199999999998 537.86900000000003)" fill="rgb(237,237,244)" stroke="none" stroke-width="1"/><g id="ekevhsgeqvw131" transform="matrix(1 0 0 1 966.87000000000000 445)"><rect id="ekevhsgeqvw132" width="96" height="130" rx="0" ry="0" transform="matrix(1 0 0 1 350.13000000000000 51)" fill="rgb(255,255,255)" stroke="none" stroke-width="1"/></g><g id="ekevhsgeqvw133" transform="matrix(1 0 0 1 1326.82999999999993 506.26200000000000)"><circle id="ekevhsgeqvw134" r="4.500000" transform="matrix(1 0 0 1 8.66500000000000 4.23800000000000)" fill="rgb(0,8,123)" stroke="none" stroke-width="1"/><path id="ekevhsgeqvw135" d="M9.458000,21.842000C6.635000,21.842000,1,23.259000,1,26.071000L1,28.185000L17.916000,28.185000L17.916000,26.071000C17.916000,23.259000,12.281000,21.842000,9.458000,21.842000Z" transform="matrix(1 0 0 1 -1 -11.13500000000000)" fill="rgb(0,8,123)" stroke="none" stroke-width="1"/></g><text id="ekevhsgeqvw136" dx="0" dy="0" font-family="Lato-Bold, Lato" font-size="15" font-weight="bold" transform="matrix(1 0 0 1 1349 522.51562500000000)" fill="rgb(0,8,123)" stroke="none" stroke-width="1"><![CDATA[Resume]]></text><line id="ekevhsgeqvw137" x1="0" y1="0" x2="76" y2="0" transform="matrix(1 0 0 1 1326.50000000000000 535.50000000000000)" fill="none" stroke="rgb(0,8,123)" stroke-width="1"/><line id="ekevhsgeqvw138" x1="0" y1="0" x2="76" y2="0" transform="matrix(1 0 0 1 1326.50000000000000 542.50000000000000)" fill="none" stroke="rgb(0,8,123)" stroke-width="1"/><line id="ekevhsgeqvw139" x1="0" y1="0" x2="76" y2="0" transform="matrix(1 0 0 1 1326.50000000000000 548.50000000000000)" fill="none" stroke="rgb(0,8,123)" stroke-width="1"/><line id="ekevhsgeqvw140" x1="0" y1="0" x2="76" y2="0" transform="matrix(1 0 0 1 1326.50000000000000 554.50000000000000)" fill="none" stroke="rgb(0,8,123)" stroke-width="1"/><line id="ekevhsgeqvw141" x1="0" y1="0" x2="76" y2="0" transform="matrix(1 0 0 1 1326.50000000000000 560.50000000000000)" fill="none" stroke="rgb(0,8,123)" stroke-width="1"/><path id="ekevhsgeqvw142" d="M12,2C6.477153,2,2,6.477153,2,12C2,17.522847,6.477153,22,12,22C17.522847,22,22,17.522847,22,12C22,6.477153,17.522847,2,12,2ZM17,13L13,13L13,17L11,17L11,13L7,13L7,11L11,11L11,7L13,7L13,11L17,11Z" transform="matrix(0.68199800000000 -0.73135400000000 0.73135400000000 0.68199800000000 1370.03999999999996 587.59199999999998)" opacity="0.72" fill="rgb(255,0,0)" stroke="none" stroke-width="1"/><path id="ekevhsgeqvw143" d="M12,2C6.477153,2,2,6.477153,2,12C2,17.522847,6.477153,22,12,22C17.522847,22,22,17.522847,22,12C22,6.477153,17.522847,2,12,2ZM19.134000,13.928000L9.104000,13.828000L7.104000,13.828000L7.104000,7.828000L9.104000,7.828000L9.104000,11.828000L19.134000,11.928000Z" transform="matrix(0.68199800000000 -0.73135400000000 0.73135400000000 0.68199800000000 1329.03999999999996 587.59199999999998)" opacity="0.72" fill="rgb(0,255,43)" stroke="none" stroke-width="1"/></g></svg>