<?xml version="1.0" encoding="utf-8"?>
<!-- Generator: Adobe Illustrator 24.0.1, SVG Export Plug-In . SVG Version: 6.00 Build 0)  -->
<svg version="1.1" id="Layer_1" xmlns="http://www.w3.org/2000/svg" xmlns:xlink="http://www.w3.org/1999/xlink" x="0px" y="0px"
	 viewBox="0 0 503.4 290.5" style="enable-background:new 0 0 503.4 290.5;" xml:space="preserve">
<style type="text/css">
	.st0{fill:#0C519E;}
	.st1{fill:url(#SVGID_1_);}
	.st2{fill:url(#SVGID_2_);}
	.st3{fill:url(#SVGID_3_);}
	.st4{fill:url(#SVGID_4_);}
	.st5{fill:url(#SVGID_5_);}
	.st6{fill:url(#SVGID_6_);}
	.st7{fill:url(#SVGID_7_);}
	.st8{fill:url(#SVGID_8_);}
	.st9{fill:url(#SVGID_9_);}
	.st10{fill:url(#SVGID_10_);}
	.st11{fill:url(#SVGID_11_);}
	.st12{fill:url(#SVGID_12_);}
	.st13{fill:url(#SVGID_13_);}
	.st14{fill:url(#SVGID_14_);}
	.st15{fill:url(#SVGID_15_);}
	.st16{fill:url(#SVGID_16_);}
	.st17{fill:url(#SVGID_17_);}
	.st18{fill:url(#SVGID_18_);}
</style>
<path class="st0" d="M503.4,65.7l-134.3,56.7L503.4,160L503.4,65.7z"/>
<linearGradient id="SVGID_1_" gradientUnits="userSpaceOnUse" x1="-1092.6396" y1="-1015.8995" x2="-936.5396" y2="-1015.8995" gradientTransform="matrix(-1 0 0 -1 -589.2396 -922.2495)">
	<stop  offset="0" style="stop-color:#0D7ABF"/>
	<stop  offset="1" style="stop-color:#0C519E"/>
</linearGradient>
<path class="st1" d="M503.4,65.7l-156.1-0.8l21.8,57.5L503.4,65.7z"/>
<linearGradient id="SVGID_2_" gradientUnits="userSpaceOnUse" x1="-958.3396" y1="-1014.0496" x2="-861.0396" y2="-1014.0496" gradientTransform="matrix(-1 0 0 -1 -589.2396 -922.2495)">
	<stop  offset="0" style="stop-color:#4996D1"/>
	<stop  offset="1" style="stop-color:#0B7ABF"/>
</linearGradient>
<path class="st2" d="M369.1,122.4l-21.8-57.5l-75.5-3.7L369.1,122.4z"/>
<linearGradient id="SVGID_3_" gradientUnits="userSpaceOnUse" x1="-1092.6396" y1="-1086.7495" x2="-949.4396" y2="-1086.7495" gradientTransform="matrix(-1 0 0 -1 -589.2396 -922.2495)">
	<stop  offset="0" style="stop-color:#138BCC"/>
	<stop  offset="1" style="stop-color:#0273B0"/>
</linearGradient>
<path class="st3" d="M369.1,122.4l-8.9,84.2L503.4,160L369.1,122.4z"/>
<linearGradient id="SVGID_4_" gradientUnits="userSpaceOnUse" x1="-728.7287" y1="-1235.5806" x2="-626.8026" y2="-1235.5806" gradientTransform="matrix(-0.9881 0.1539 -0.1539 -0.9881 -534.8161 -945.8995)">
	<stop  offset="0" style="stop-color:#86BBE7"/>
	<stop  offset="1" style="stop-color:#0E90D0"/>
</linearGradient>
<path class="st4" d="M369.1,122.4L271.8,160l88.4,46.6L369.1,122.4z"/>
<linearGradient id="SVGID_5_" gradientUnits="userSpaceOnUse" x1="-728.7286" y1="-1168.0342" x2="-626.8026" y2="-1168.0342" gradientTransform="matrix(-0.9881 0.1539 -0.1539 -0.9881 -534.8161 -945.8995)">
	<stop  offset="0.1558" style="stop-color:#3384C6"/>
	<stop  offset="1" style="stop-color:#0C519E"/>
</linearGradient>
<path class="st5" d="M369.1,122.4L271.8,160V61.2L369.1,122.4z"/>
<linearGradient id="SVGID_6_" gradientUnits="userSpaceOnUse" x1="-855.6404" y1="-1310.2954" x2="-706.9768" y2="-1310.2954" gradientTransform="matrix(-0.9881 0.1539 -0.1539 -0.9881 -534.8161 -945.8995)">
	<stop  offset="0" style="stop-color:#8CB6DF"/>
	<stop  offset="1" style="stop-color:#317FC0"/>
</linearGradient>
<path class="st6" d="M503.4,160l-86.6,130.5l-56.6-83.9L503.4,160z"/>
<linearGradient id="SVGID_7_" gradientUnits="userSpaceOnUse" x1="-642.0075" y1="-1168.0342" x2="-550.0392" y2="-1168.0342" gradientTransform="matrix(-0.9881 0.1539 -0.1539 -0.9881 -534.8161 -945.8995)">
	<stop  offset="0" style="stop-color:#43AFD3"/>
	<stop  offset="0.4623" style="stop-color:#049AC7"/>
	<stop  offset="1" style="stop-color:#0989C8"/>
</linearGradient>
<path class="st7" d="M271.8,61.2l-87.3,37.1l87.3,61.7V61.2z"/>
<linearGradient id="SVGID_8_" gradientUnits="userSpaceOnUse" x1="-706.9768" y1="-1246.6693" x2="-562.9186" y2="-1246.6693" gradientTransform="matrix(-0.9881 0.1539 -0.1539 -0.9881 -534.8161 -945.8995)">
	<stop  offset="0" style="stop-color:#82CDF4"/>
	<stop  offset="1" style="stop-color:#01A6C7"/>
</linearGradient>
<path class="st8" d="M271.8,160l-54.5,65.2l142.9-18.6L271.8,160z"/>
<linearGradient id="SVGID_9_" gradientUnits="userSpaceOnUse" x1="-798.7811" y1="-1088.3077" x2="-733.785" y2="-1046.1024" gradientTransform="matrix(-1 0 0 -1 -589.2396 -922.2495)">
	<stop  offset="5.025131e-03" style="stop-color:#44ADD9"/>
	<stop  offset="0.6734" style="stop-color:#66C2CD"/>
	<stop  offset="1" style="stop-color:#96D0D5"/>
</linearGradient>
<path class="st9" d="M271.8,160l-156.9-3.9l69.6-57.8L271.8,160z"/>
<linearGradient id="SVGID_10_" gradientUnits="userSpaceOnUse" x1="-550.0392" y1="-1149.7582" x2="-450.6465" y2="-1149.7582" gradientTransform="matrix(-0.9881 0.1539 -0.1539 -0.9881 -534.8161 -945.8995)">
	<stop  offset="0" style="stop-color:#03B3C0"/>
	<stop  offset="0.6834" style="stop-color:#85C6A7"/>
	<stop  offset="0.99" style="stop-color:#C8E1C1"/>
</linearGradient>
<path class="st10" d="M114.9,156.1l69.6-57.8L81.4,82.2L114.9,156.1z"/>
<linearGradient id="SVGID_11_" gradientUnits="userSpaceOnUse" x1="-472.3741" y1="-1149.7582" x2="-387.7227" y2="-1149.7582" gradientTransform="matrix(-0.9881 0.1539 -0.1539 -0.9881 -534.8161 -945.8995)">
	<stop  offset="0" style="stop-color:#3D94AC"/>
	<stop  offset="0.1809" style="stop-color:#03B3C0"/>
	<stop  offset="1" style="stop-color:#C6DDB2"/>
</linearGradient>
<path class="st11" d="M114.9,156.1L81.4,82.2l-50.6,84L114.9,156.1z"/>
<linearGradient id="SVGID_12_" gradientUnits="userSpaceOnUse" x1="-782.5604" y1="-1082.5446" x2="-781.9279" y2="-1131.2528" gradientTransform="matrix(-1 0 0 -1 -589.2396 -922.2495)">
	<stop  offset="0" style="stop-color:#009FD6"/>
	<stop  offset="0.5678" style="stop-color:#25B9E0"/>
	<stop  offset="1" style="stop-color:#7CCADB"/>
</linearGradient>
<path class="st12" d="M271.8,160l-156.9-3.9l102.4,69.1L271.8,160z"/>
<linearGradient id="SVGID_13_" gradientUnits="userSpaceOnUse" x1="-644.6579" y1="-1056.0626" x2="-629.3672" y2="-1050.3287" gradientTransform="matrix(-1 0 0 -1 -589.2396 -922.2495)">
	<stop  offset="0" style="stop-color:#15ACBA"/>
	<stop  offset="1" style="stop-color:#92CCBB"/>
</linearGradient>
<path class="st13" d="M30.8,166.2l10.3-63.4l30.6-4.5L30.8,166.2z"/>
<linearGradient id="SVGID_14_" gradientUnits="userSpaceOnUse" x1="-642.0075" y1="-1115.7592" x2="-550.0392" y2="-1115.7592" gradientTransform="matrix(-0.9881 0.1539 -0.1539 -0.9881 -534.8161 -945.8995)">
	<stop  offset="0" style="stop-color:#82CDF4"/>
	<stop  offset="1" style="stop-color:#31ACD2"/>
</linearGradient>
<path class="st14" d="M184.5,98.3l35.2-59.5l52.1,22.4L184.5,98.3z"/>
<linearGradient id="SVGID_15_" gradientUnits="userSpaceOnUse" x1="-407.6569" y1="-1149.3806" x2="-373.3605" y2="-1149.3806" gradientTransform="matrix(-0.9881 0.1539 -0.1539 -0.9881 -534.8161 -945.8995)">
	<stop  offset="5.025131e-03" style="stop-color:#079DAC"/>
	<stop  offset="0.3467" style="stop-color:#15ACBA"/>
	<stop  offset="1" style="stop-color:#86C7BA"/>
</linearGradient>
<path class="st15" d="M13.3,147.4l19.5,6.4l8.3-51L13.3,147.4z"/>
<linearGradient id="SVGID_16_" gradientUnits="userSpaceOnUse" x1="-391.4039" y1="-1145.3104" x2="-365.8738" y2="-1145.3104" gradientTransform="matrix(-0.9881 0.1539 -0.1539 -0.9881 -534.8161 -945.8995)">
	<stop  offset="0" style="stop-color:#029BAB"/>
	<stop  offset="1" style="stop-color:#86C7BA"/>
</linearGradient>
<path class="st16" d="M27.9,124l-14.6,23.4L0,110.4L27.9,124z"/>
<linearGradient id="SVGID_17_" gradientUnits="userSpaceOnUse" x1="-880.2638" y1="-1126.8536" x2="-716.0377" y2="-1126.8536" gradientTransform="matrix(-0.9881 0.1539 -0.1539 -0.9881 -534.8161 -945.8995)">
	<stop  offset="0" style="stop-color:#138BCC"/>
	<stop  offset="1" style="stop-color:#0273B0"/>
</linearGradient>
<path class="st17" d="M503.4,65.7V0L347.3,64.9L503.4,65.7z"/>
<linearGradient id="SVGID_18_" gradientUnits="userSpaceOnUse" x1="-1092.6396" y1="-1147.4995" x2="-1006.0396" y2="-1147.4995" gradientTransform="matrix(-1 0 0 -1 -589.2396 -922.2495)">
	<stop  offset="0" style="stop-color:#0D7ABF"/>
	<stop  offset="1" style="stop-color:#0C519E"/>
</linearGradient>
<path class="st18" d="M503.4,160v119.2l-86.6,11.3L503.4,160z"/>
</svg>
