<svg version="1.1" id="L9" xmlns="http://www.w3.org/2000/svg" xmlns:xlink="http://www.w3.org/1999/xlink" x="0px" y="0px"
     viewBox="0 0 100 100" enable-background="new 0 0 0 0" xml:space="preserve">
<g xmlns="http://www.w3.org/2000/svg" id="Group_355" data-name="Group 355">
  <g transform="matrix(1, 0, 0, 1, 0, 0)" filter="url(#Path_1201)">
    <path id="Path_1201-2" data-name="Path 1201" d="M426.567,0C662.153,0,853.133,190.98,853.133,426.567s-105.241,0-340.827,0S0,662.153,0,426.567,190.98,0,426.567,0Z" transform="translate(975.87 451)" fill="url(#linear-gradient-5)"/>
  </g>
  <rect id="Rectangle_121" data-name="Rectangle 121" width="230.285" height="53.324" transform="translate(1229.99 704.056)" fill="#565661"/>
  <rect id="Rectangle_122" data-name="Rectangle 122" width="230.285" height="53.324" transform="translate(1229.99 704.056)" opacity="0.1"/>
  <path id="Path_1363" data-name="Path 1363" d="M388.776,427.03l1.617,112.476-22.149,44.179L366.53,427.03Z" transform="translate(868.766 332.105)" fill="#bcbec9"/>
  <path id="Path_1364" data-name="Path 1364" d="M362.99,371.84,587.2,373.189V412.9H362.99Z" transform="translate(869.43 342.454)" fill="#565661"/>
  <path id="Path_1365" data-name="Path 1365" d="M615.33,427.03l19.183,2.706V623.142L615.33,563.984Z" transform="translate(822.114 332.105)" fill="#bcbec9"/>
  <rect id="Rectangle_123" data-name="Rectangle 123" width="108.054" height="229.611" transform="translate(1463.915 706.193)" fill="#efeff0"/>
  <rect id="Rectangle_124" data-name="Rectangle 124" width="90.764" height="176.498" transform="translate(1472.561 712.571)" fill="#565661"/>
  <rect id="Rectangle_125" data-name="Rectangle 125" width="90.764" height="176.498" transform="translate(1472.561 712.571)" opacity="0.1"/>
  <rect id="Rectangle_126" data-name="Rectangle 126" width="90.764" height="39.17" transform="translate(1472.561 716.187)" fill="#565661"/>
  <rect id="Rectangle_127" data-name="Rectangle 127" width="90.764" height="83.199" transform="translate(1472.561 759.135)" fill="#565661"/>
  <rect id="Rectangle_128" data-name="Rectangle 128" width="90.764" height="83.199" transform="translate(1472.561 847.47)" fill="#565661"/>
  <rect id="Rectangle_129" data-name="Rectangle 129" width="90.764" height="83.199" transform="translate(1472.561 847.47)" opacity="0.1"/>
  <ellipse id="Ellipse_33" data-name="Ellipse 33" cx="5.85" cy="7.475" rx="5.85" ry="7.475" transform="translate(1470.496 935.804)" fill="#565661"/>
  <ellipse id="Ellipse_34" data-name="Ellipse 34" cx="5.85" cy="7.475" rx="5.85" ry="7.475" transform="translate(1551.624 936.161)" fill="#565661"/>
  <path id="Path_1366" data-name="Path 1366" d="M357.566,613.544H365.4L363.245,364.32H351.35Z" transform="translate(871.612 343.864)" fill="#efeff0"/>
  <path id="Path_1367" data-name="Path 1367" d="M638.94,361.87V610.924h7.288V363.861Z" transform="translate(817.688 344.323)" fill="#efeff0"/>
  <path id="Path_1368" data-name="Path 1368" d="M366.46,419.38V428.3H587.848v-6.484Z" transform="translate(868.779 333.54)" fill="#efeff0"/>
  <path id="Path_1369" data-name="Path 1369" d="M378.322,341.26H658.99l40.787,13.5V362.6L349.69,359.9v-7.971Z" transform="translate(871.924 348.188)" fill="#fff"/>
  <path id="Path_1370" data-name="Path 1370" d="M349.69,354.39l350.087,2.836v7.832l-350.087-2.7Z" transform="translate(871.924 345.726)" fill="#bcbec9"/>
  <path id="Path_1371" data-name="Path 1371" d="M423.267,549.274l-1.625-.244v-.2c-.049-.382-.106-.756-.162-1.138.666.528,1.3,1.056,1.885,1.584Z" transform="translate(830.058 243.726)" fill="url(#linear-gradient-6)"/>
  <g transform="matrix(1, 0, 0, 1, 0, 0)" filter="url(#Path_1372)">
    <path id="Path_1372-2" data-name="Path 1372" d="M377.549,703.709c1.056-.244,2.129-.447,3.2-.593a38.528,38.528,0,0,1,21.629,3.185c-.682,5.021-1.357,10.213.089,15.064,1.008,3.412,3.031,6.5,3.461,10.059a5.931,5.931,0,0,1,4.672,4.128,8.978,8.978,0,0,1,.463,2.892,15.435,15.435,0,0,1-.455,3.607,3.64,3.64,0,0,1-3.9,3.25c-6.289.715-12.456-1.763-18.306-4.193l-11.375-4.729c-1.332-.552-2.673-1.113-3.949-1.8a21.636,21.636,0,0,1-6.329-5.176,2.884,2.884,0,0,1-.756-1.365c-.211-1.43,1.462-2.283,2.527-3.25a5.062,5.062,0,0,0,.813-.991c1.259-1.9,1.381-4.526,2.137-6.768,1.788-5.322,7.312-8.751,9.262-13.942.106-.284.2-.569.284-.861" transform="translate(840.46 214.75)" fill="#7e3131"/>
  </g>
  <g transform="matrix(1, 0, 0, 1, 0, 0)" filter="url(#Path_1373)">
    <path id="Path_1373-2" data-name="Path 1373" d="M411.065,743.421a15.437,15.437,0,0,1-.455,3.608,3.64,3.64,0,0,1-3.9,3.25c-6.289.715-12.456-1.763-18.306-4.192l-11.375-4.729c-1.332-.552-2.673-1.113-3.949-1.8a21.637,21.637,0,0,1-6.329-5.176,2.884,2.884,0,0,1-.756-1.365c-.211-1.43,1.462-2.283,2.527-3.25a5.064,5.064,0,0,0,.813-.991c3.136.674,7.028,2.649,9.425,3.413a28.616,28.616,0,0,1,6.857,2.868c2.99,1.917,5.143,4.875,7.678,7.312s5.809,4.656,9.344,4.355a15.438,15.438,0,0,0,5.314-1.836Z" transform="translate(840.46 209.77)" fill="#662626" opacity="0.97"/>
  </g>
  <path id="Path_1374" data-name="Path 1374" d="M399.985,602.853a3.762,3.762,0,0,1-1.381,4.063c-1.064.658-2.437.569-3.494,1.284-1.308.918-1.495,2.738-1.722,4.314-.812,5.419-3.5,10.335-5.8,15.315s-4.241,10.416-3.4,15.827c.577,3.672,2.381,7.589.691,10.9-.414.813-1.032,1.536-1.5,2.324-2.316,3.868-1,8.767-1.089,13.268a2.624,2.624,0,0,1-.317,1.438,3.973,3.973,0,0,1-1.284.991,6.809,6.809,0,0,0-2.771,5.224,19.963,19.963,0,0,0,.731,6.061,3.607,3.607,0,0,0,1,2.112,3.738,3.738,0,0,0,2.186.617A48.618,48.618,0,0,1,396.67,690.2c3.079,1.284,6.069,2.892,9.344,3.51a2.437,2.437,0,0,0,1.917-.2,2.64,2.64,0,0,0,.813-1.406c1.259-4.144,2.535-8.417,2.1-12.724-.187-1.852-.682-3.664-.812-5.517-.569-7.312,4.379-13.91,5.947-21.125.707-3.25.707-6.614,1.211-9.9,1.365-8.994,6.321-17.062,8.231-25.959A28.216,28.216,0,0,1,426.659,612c1.422-3.445,4.712-6.24,4.786-9.969a3.884,3.884,0,0,0-.617-2.324,5.265,5.265,0,0,0-2.9-1.625,99.009,99.009,0,0,0-13.447-2.714,25.47,25.47,0,0,0-6.321-.439,18.607,18.607,0,0,0-7.735,2.73C397.287,599.595,399.3,600.058,399.985,602.853Z" transform="translate(838.228 234.875)" fill="#454b69"/>
  <g transform="matrix(1, 0, 0, 1, 0, 0)" filter="url(#Path_1375)">
    <path id="Path_1375-2" data-name="Path 1375" d="M399.985,602.853a3.762,3.762,0,0,1-1.381,4.063c-1.064.658-2.437.569-3.494,1.284-1.308.918-1.495,2.738-1.722,4.314-.812,5.419-3.5,10.335-5.8,15.315s-4.241,10.416-3.4,15.827c.577,3.672,2.381,7.589.691,10.9-.414.813-1.032,1.536-1.5,2.324-2.316,3.868-1,8.767-1.089,13.268a2.624,2.624,0,0,1-.317,1.438,3.973,3.973,0,0,1-1.284.991,6.809,6.809,0,0,0-2.771,5.224,19.963,19.963,0,0,0,.731,6.061,3.607,3.607,0,0,0,1,2.112,3.738,3.738,0,0,0,2.186.617A48.618,48.618,0,0,1,396.67,690.2c3.079,1.284,6.069,2.892,9.344,3.51a2.437,2.437,0,0,0,1.917-.2,2.64,2.64,0,0,0,.813-1.406c1.259-4.144,2.535-8.417,2.1-12.724-.187-1.852-.682-3.664-.812-5.517-.569-7.312,4.379-13.91,5.947-21.125.707-3.25.707-6.614,1.211-9.9,1.365-8.994,6.321-17.062,8.231-25.959A28.216,28.216,0,0,1,426.659,612c1.422-3.445,4.712-6.24,4.786-9.969a3.884,3.884,0,0,0-.617-2.324,5.265,5.265,0,0,0-2.9-1.625,99.009,99.009,0,0,0-13.447-2.714,25.47,25.47,0,0,0-6.321-.439,18.607,18.607,0,0,0-7.735,2.73C397.287,599.595,399.3,600.058,399.985,602.853Z" transform="translate(838.23 234.88)" fill="#00087b"/>
  </g>
  <path id="Path_1376" data-name="Path 1376" d="M347.831,651.274H340.9l-4.534-93.144-.317-5.3,5.891-2.072.4,5.631Z" transform="translate(874.48 308.905)" fill="#565661"/>
  <path id="Path_1377" data-name="Path 1377" d="M342.339,556.391l-5.972,1.739-.317-5.3,5.891-2.072Z" transform="translate(874.48 308.905)" opacity="0.1"/>
  <path id="Path_1378" data-name="Path 1378" d="M411.047,665.252l-11.432,1.381L346.949,547.107l-14.2-1.04-24.944,7.28-4.851,142.308H291.521l4.5-147.508-27.373.7L219.8,670.444H209.41l51.374-142.113,1.982-5.476,76.561-2.624,19.085,10.7.244.618Z" transform="translate(898.227 314.63)" fill="#292929"/>
  <path id="Path_1379" data-name="Path 1379" d="M405.473,612.478c-16.453,4.956-33.532,10.367-33.532,10.367s-15.576,5.436-22.173,0a9.965,9.965,0,0,0-2.754-1.519,13.572,13.572,0,0,0,2.754,1.519L307.6,609.252l1.974-5.468,76.569-2.624,19.085,10.7Z" transform="translate(851.411 233.7)" opacity="0.1"/>
  <path id="Path_1380" data-name="Path 1380" d="M332.208,584.461l31.175-6.931s74.489,13.861,80.031,19.4c0,0-59.588,12.122-66.169,16.25S331.509,621.876,332.208,584.461Z" transform="translate(846.799 238.13)" fill="#fff"/>
  <g transform="matrix(1, 0, 0, 1, 0, 0)" filter="url(#Path_1381)">
    <path id="Path_1381-2" data-name="Path 1381" d="M310.7,473.671c-2.437,7.727-9.092,14.69-17.192,15.023a3,3,0,0,1-1.714-.309c-1.016-.634-1.04-2.121-.626-3.25a14.056,14.056,0,0,0,1.251-3.331,2.179,2.179,0,0,0-.049-.723c-.211-.967-1-1.828-1.926-1.625a3.25,3.25,0,0,0,.691-4.314,9.757,9.757,0,0,1-.991-1.333c-.674-1.381.374-2.933.813-4.412.9-3.25-1.389-6.5-1.576-9.888-.162-3.031,1.373-5.882,1.755-8.889.609-4.875-1.812-9.547-2.1-14.414a30.524,30.524,0,0,1,1.576-10.034,36.273,36.273,0,0,0,1.788-8.937c0-2.218-.382-4.412-.488-6.622a11.53,11.53,0,0,1,1.064-5.882,4.7,4.7,0,0,1,2.673-2.283c2.665-.894,4.412.5,4.8,3.023.65,4.3.276,8.686,1.129,13a60.931,60.931,0,0,0,3.567,11.773c1.438,3.429,3.185,6.744,4.29,10.294a56.705,56.705,0,0,1,1.779,8.937C312.313,457.591,313.166,465.944,310.7,473.671Z" transform="translate(854.9 271.01)" fill="#ffba3f"/>
  </g>
  <g transform="matrix(1, 0, 0, 1, 0, 0)" filter="url(#Path_1382)">
    <path id="Path_1382-2" data-name="Path 1382" d="M533.451,727.163a12.6,12.6,0,0,1-8.88,5.232c-3.526.439-7.191-.447-10.611.52a3.25,3.25,0,0,0-2.437,1.877,19.946,19.946,0,0,0-.154,1.991c-.4,2.169-3.25,2.657-5.468,2.641l-9.149-.057c-1.9,0-4.006-.106-5.371-1.422a4,4,0,0,1-.081-5.265,3.308,3.308,0,0,1,1.024-.812,3.25,3.25,0,0,1-2.194-2.608,9.7,9.7,0,0,1,.171-3.583c0-3.4.813-9.084,3.2-11.74,2.933-3.307,8.019-7.581,12.447-8.466a9.75,9.75,0,0,1,8.434,2.4c2.1,1.95,3.624,5,6.5,5.346,1.568.195,3.079-.544,4.631-.813a8.621,8.621,0,0,1,8.783,4.639,9.149,9.149,0,0,1,.813,2.543,10.562,10.562,0,0,1-1.657,7.581Z" transform="translate(817.2 214.17)" fill="#7e3131"/>
  </g>
  <g transform="matrix(1, 0, 0, 1, 0, 0)" filter="url(#Path_1383)">
    <path id="Path_1383-2" data-name="Path 1383" d="M533.523,730.462a12.6,12.6,0,0,1-8.881,5.232c-3.526.439-7.191-.447-10.611.52a3.25,3.25,0,0,0-2.438,1.877,19.943,19.943,0,0,0-.154,1.991c-.4,2.169-3.25,2.657-5.468,2.641l-9.149-.057c-1.9,0-4.006-.106-5.371-1.422a4,4,0,0,1-.081-5.265c5.281-.219,10.473,0,15.738-1.089,2.137-.431,4.241-1,6.4-1.3,4.68-.666,9.661-.1,13.959-2.08,3.583-1.625,6.151-4.932,7.67-8.621a10.562,10.562,0,0,1-1.617,7.572Z" transform="translate(817.13 210.87)" fill="#2a0b0b" opacity="0.29"/>
  </g>
  <g transform="matrix(1, 0, 0, 1, 0, 0)" filter="url(#Path_1384)">
    <path id="Path_1384-2" data-name="Path 1384" d="M471.586,683.05c-3.25,2.519-7.061,4.485-11.156,4.7s-8.442-1.625-10.449-5.184c-2.933-5.224-.333-12.488-3.924-17.282-1.121-1.5-2.738-2.568-3.924-4.022s-1.869-3.64-.812-5.184c-1.276.487-2.624-.747-3-2.064s-.138-2.73-.366-4.062c-.593-3.534-4.062-5.8-5.728-8.937s-1.438-7.207-1.625-10.92a41.437,41.437,0,0,0-9.587-24.659c-1.1-1.316-2.519-2.657-4.241-2.592.3-2.974-1.682-5.817-4.249-7.312a21.067,21.067,0,0,0-8.6-2.291c-30.005-2.957-61.27,8.2-89.919-1.186-7.971-2.608-15.657-6.971-20.532-13.812a24.148,24.148,0,0,1-4.3-18.265v-.114c1.129-5.769,4.176-7.191,9.222-9.823a110.691,110.691,0,0,1,18.192-7.629c12.187-3.811,25.309-5.184,37.887-2.389,5.874,1.316,11.537,3.494,17.42,4.769,2.316.5,4.647.861,7,1.162,3.648.455,7.312.756,10.985,1.178a166.176,166.176,0,0,1,34.5,7.759,45.179,45.179,0,0,1,11.919,5.59,26.406,26.406,0,0,1,10.595,17.436c.341,2.389.349,4.875.869,7.191a36.556,36.556,0,0,0,1.95,5.687A378.323,378.323,0,0,1,466.687,643.6a12.831,12.831,0,0,0,1.357,3.819c1.04,1.682,2.827,2.811,3.876,4.493,2.437,3.965.089,9.5,2.251,13.626.747,1.43,1.991,2.559,2.738,3.989C479.346,674.218,475.746,679.824,471.586,683.05Z" transform="translate(854.93 245.44)" fill="#00087b"/>
  </g>
  <path id="Path_1385" data-name="Path 1385" d="M460.776,599.781a13.4,13.4,0,0,0,2.949-3.25,6.061,6.061,0,0,0,.894-4.2,12.017,12.017,0,0,1-3.161,10.335c-2.039,2.088-5.866,4.136-8.848,3.421C453.033,603.7,458.882,601.389,460.776,599.781Z" transform="translate(824.221 235.355)" opacity="0.1"/>
  <path id="Path_1386" data-name="Path 1386" d="M379.387,549.2a5.452,5.452,0,0,1-3.607,3.721,15.031,15.031,0,0,1-5.354.626H368.8c-21.32-.471-42.867-5.2-63.691-.691a46.114,46.114,0,0,0-7.361,2.169,33.235,33.235,0,0,0-8.458,4.875v-.114c1.129-5.769,4.176-7.191,9.222-9.823a110.7,110.7,0,0,1,18.167-7.556c12.187-3.811,25.309-5.184,37.887-2.389,5.874,1.316,11.537,3.494,17.42,4.769,2.316.5,4.647.861,7,1.162a5.615,5.615,0,0,1,.406,3.25Z" transform="translate(854.844 245.441)" opacity="0.1"/>
  <path id="Path_1388" data-name="Path 1388" d="M311.144,473.684c-2.437,7.727-9.092,14.69-17.192,15.023a3,3,0,0,1-1.714-.309c-1.016-.634-1.04-2.121-.626-3.25a14.058,14.058,0,0,0,1.251-3.331,2.179,2.179,0,0,0-.049-.723c4.3-6.061,8.466-12.187,10.116-19.362a10.351,10.351,0,0,0,.3-3.794,33.768,33.768,0,0,0-1.365-4.2c-.715-2.5-.382-5.151-.179-7.743a71.5,71.5,0,0,0-5.557-33.385,31.323,31.323,0,0,1-2.73-7.808,4.7,4.7,0,0,1,2.673-2.283c2.665-.894,4.412.5,4.8,3.022.65,4.3.276,8.686,1.129,13a60.936,60.936,0,0,0,3.567,11.773c1.438,3.429,3.185,6.744,4.29,10.294a56.711,56.711,0,0,1,1.779,8.937C312.753,457.6,313.606,465.957,311.144,473.684Z" transform="translate(854.456 270.997)" opacity="0.1"/>
  <path id="Path_1389" data-name="Path 1389" d="M379.219,544.992a5.443,5.443,0,0,1-3.607,3.729,14.844,14.844,0,0,1-5.354.617h-1.625a35.4,35.4,0,0,0-23.562-5.687c-2.649.317-5.3.934-7.946.691-5.354-.487-9.693-4.339-14.462-6.8A30.371,30.371,0,0,0,289,542.108l-.463.406a6.94,6.94,0,0,1-.13-.983c-.146-2.933.9-4.623,3.307-6.207,7.134-4.712,15.836-7.946,23.977-10.376a59.308,59.308,0,0,1,13.325-2.584c6.4-.374,12.8.812,19.029,2.316,7.662,1.893,15.242,4.4,22.035,8.4,3.307,1.974,6.557,4.412,8.352,7.873a6.175,6.175,0,0,1,.788,4.038Z" transform="translate(855.012 248.488)" opacity="0.1"/>
  <g transform="matrix(1, 0, 0, 1, 0, 0)" filter="url(#Path_1390)">
    <path id="Path_1390-2" data-name="Path 1390" d="M395.772,425.726l-.114.292c-1.82,4.721-5.167,8.71-7.312,13.309-2.706,5.826-3.372,12.358-3.973,18.76a97.459,97.459,0,0,0-.617,16.5c1.04,13.552,7.662,26.406,9.433,39.7a44.129,44.129,0,0,1,.333,9.271c-.146,1.958-.5,4.062-1.8,5.509s-3.827,2.015-5.224.626c.626-1.194,1.259-2.381,1.893-3.575-3.713-2.884-9.3-.812-13.642-2.616a21.963,21.963,0,0,1-5.037-3.583,35.327,35.327,0,0,0-26.317-7.686c-2.649.325-5.3.942-7.946.7-5.354-.5-9.693-4.339-14.462-6.8a30.387,30.387,0,0,0-33.662,4.558c-1.138,1.056-2.665,2.291-4.062,1.625A3.381,3.381,0,0,1,282,510.94c-5.322-9.092-1.406-20.816,4.282-29.672s13.219-17.022,15.559-27.284a10.181,10.181,0,0,0,.3-3.794,33.769,33.769,0,0,0-1.365-4.2c-.715-2.5-.382-5.151-.179-7.743a71.5,71.5,0,0,0-5.541-33.393c-1.3-3.031-2.844-6.1-2.844-9.392,0-5.184,3.713-9.482,6.784-13.65,3.534-4.794,6.5-10.1,10.977-14.04,4.241-3.746,10.384-6.037,15.632-4.136a97.454,97.454,0,0,1,27.267-2.657c3.169.146,6.443.479,9.222,2.015,2.974,1.625,5.111,4.517,8.036,6.248,2.137,1.276,4.6,1.877,6.922,2.771a28.608,28.608,0,0,1,14.917,13.341c3.25,6.3,4.062,13.536,4.777,20.589C397.43,412.58,398.08,419.478,395.772,425.726Z" transform="translate(856.68 278.75)" fill="#ff8923"/>
  </g>
  <path id="Path_1391" data-name="Path 1391" d="M403.732,479.927c1.04,13.552,7.662,26.406,9.433,39.7-3.542-3-8.474-6.013-9.132-9.5-.731-3.77-3.071-8.71-3.461-12.521s2.283-8.466-.52-11.082c-1.365-1.276,2.267-.918.934-2.226-3-2.917-3.737-7.41-3.924-11.578-.317-7.377.617-14.836-.739-22.092-.812-4.477-2.511-8.742-3.867-13.089-1.576-5.062-2.714-10.246-3.851-15.437a108.146,108.146,0,0,1-2.437-14.024c-.349-4.062-.187-8.369,1.625-12.074s5.476-6.711,9.587-6.654c13.747.179,11.375,18.817,14.4,27.43,1.211,3.429,2.844,6.744,3.5,10.319a27.353,27.353,0,0,1,.39,4.241c-1.82,4.721-5.167,8.71-7.312,13.309-2.706,5.826-3.372,12.358-3.973,18.76A94.464,94.464,0,0,0,403.732,479.927Z" transform="translate(836.707 273.416)" opacity="0.1"/>
  <g transform="matrix(1, 0, 0, 1, 0, 0)" filter="url(#Path_1392)">
    <path id="Path_1392-2" data-name="Path 1392" d="M412.885,416.5c1.211,3.429,2.844,6.744,3.5,10.319,1.1,5.988-.6,12.35,1.243,18.151a31.618,31.618,0,0,1,1.2,3.794c.317,1.844-.049,3.729-.049,5.606,0,3.022.951,5.947,1.8,8.848a158.136,158.136,0,0,1,5.647,30.192,37.855,37.855,0,0,0,1.292,8.125,26.986,26.986,0,0,1,.877,2.746,14.2,14.2,0,0,1,.154,3.762c-.219,3.981-.666,7.979-.219,11.944s1.893,7.987,4.875,10.644c-2.665.577-5.484,1.154-8.084.3-3.656-1.194-5.85-4.875-7.711-8.222-2.356-4.274-11.31-8.125-12.236-12.927-.723-3.762-3.063-8.7-3.453-12.521s2.275-8.458-.528-11.074c-1.357-1.276,2.275-.926.934-2.226-2.99-2.917-3.729-7.41-3.916-11.586-.317-7.369.609-14.828-.739-22.084-.812-4.477-2.511-8.742-3.867-13.1-1.576-5.054-2.714-10.237-3.851-15.437a107.032,107.032,0,0,1-2.437-14.024c-.349-4.062-.195-8.377,1.625-12.082s5.484-6.7,9.587-6.654C412.218,389.244,409.862,407.89,412.885,416.5Z" transform="translate(836.49 273.48)" fill="#ff8923"/>
  </g>
  <path id="Path_1393" data-name="Path 1393" d="M369.692,425.5c1.284,1.5,2.933,3.152,4.875,2.86a1.056,1.056,0,0,1-1.438.341,3.088,3.088,0,0,1-1.081-1.243l-2.779-4.688c-.366-.609-2.884-4.16-3.5-2.112C365.523,421.524,369.066,424.766,369.692,425.5Z" transform="translate(840.506 267.664)" opacity="0.1"/>
  <path id="Path_1394" data-name="Path 1394" d="M365.269,439.258a6.191,6.191,0,0,0-1.812-4.062,10.156,10.156,0,0,0-3.356-2.023,24.306,24.306,0,0,0-9.961-2.1c1.2,1.755,5.062,2.8,7,3.794Q361.247,436.991,365.269,439.258Z" transform="translate(843.435 265.595)" opacity="0.1"/>
  <path id="Path_1395" data-name="Path 1395" d="M372.8,479.319c-.561,4.16-3.965,7.312-7.41,9.75s-7.312,4.534-9.563,8.06c-1.56,2.438-2.259,5.265-3.583,7.808-1.462,2.8-3.648,5.159-5.395,7.792s-3.112,5.777-2.576,8.9a1.048,1.048,0,0,0,.374.747,1.064,1.064,0,0,0,1.032-.114c3.542-1.853,4.94-6.086,6.427-9.75a112.66,112.66,0,0,1,5.265-10.822c.877-1.625,1.844-3.4,3.477-4.3a30.5,30.5,0,0,1,3.429-1.194,11.529,11.529,0,0,0,4.233-3.323,27.9,27.9,0,0,0,6.5-18.939c-.049-1.454-.13-8.458-2.316-6.3S373.173,476.491,372.8,479.319Z" transform="translate(844.557 258.813)" opacity="0.1"/>
  <g transform="matrix(1, 0, 0, 1, 0, 0)" filter="url(#Path_1396)">
    <path id="Path_1396-2" data-name="Path 1396" d="M367.5,284.382c6.987,3.047,13,9.75,12.781,17.347-.187,7.979-6.866,15.494-4.566,23.14,1.333,4.436,5.346,7.41,8.523,10.782,12.1,12.8,12.074,35.157-.065,47.937-4.647,4.875-10.619,8.344-15.535,13-17.33,16.331-18.07,44.582-8.791,66.511a108.171,108.171,0,0,1-21.629,2.438c-3.4,0-7.572-.577-8.807-3.754-1.138-2.933.812-6.9-1.43-9.067-1.056-1.016-2.641-1.154-4.062-1.389-9.149-1.479-16.656-8.783-20.085-17.387s-3.25-18.289-1.284-27.34c1.4-6.541,3.583-13.739.341-19.589-4.062-7.361-15.746-10.465-15.567-18.882.146-6.9,8.279-10.254,12.894-15.38,8.515-9.441,4.461-24.09,4.444-36.814,0-11.2,3.916-22.75,12.252-30.208C329.309,274.535,353.188,278.167,367.5,284.382Z" transform="translate(855.21 294.2)" fill="#323037"/>
  </g>
  <g id="Group_324" data-name="Group 324" transform="translate(1142.563 594.215)" opacity="0.1">
    <path id="Path_1397" data-name="Path 1397" d="M304.227,398.1c-3.567-6.435-12.935-9.62-15.112-15.949a9.01,9.01,0,0,0-1.755,5.086c-.179,8.417,11.489,11.521,15.567,18.89a15.348,15.348,0,0,1,1.625,8.466C305.836,408.938,306.965,403.039,304.227,398.1Z" transform="translate(-287.357 -319.45)"/>
    <path id="Path_1398" data-name="Path 1398" d="M397.246,319.418c1.462-4.266,3.583-8.572,3.689-13a12.186,12.186,0,0,0-.041-1.438C399.261,309.871,396.758,314.616,397.246,319.418Z" transform="translate(-307.951 -304.98)"/>
    <path id="Path_1399" data-name="Path 1399" d="M309.624,343.07c2.795-8.832.382-19.784.374-29.583,0-1.186.049-2.381.138-3.567a46.915,46.915,0,0,0-1.446,11.586C308.706,328.5,309.933,336.09,309.624,343.07Z" transform="translate(-291.357 -305.906)"/>
    <path id="Path_1400" data-name="Path 1400" d="M401.279,394.387c-4.647,4.875-10.619,8.344-15.535,13-8.775,8.263-13.284,19.581-14.414,31.582a46.449,46.449,0,0,1,13.114-23.562c4.875-4.631,10.887-8.084,15.535-13a34.523,34.523,0,0,0,9.059-21.986A32.995,32.995,0,0,1,401.279,394.387Z" transform="translate(-303.103 -319.125)"/>
    <path id="Path_1401" data-name="Path 1401" d="M342.773,486.5c-3.4,0-7.572-.585-8.807-3.762-1.138-2.925.812-6.89-1.43-9.067-1.056-1.016-2.649-1.154-4.062-1.389-9.141-1.471-16.648-8.783-20.077-17.379a43.458,43.458,0,0,1-2.437-20.125c-.065.268-.122.536-.179.813-1.934,9.051-2.137,18.744,1.284,27.349S318,478.85,327.14,480.32c1.446.236,3.039.382,4.063,1.389,2.267,2.177.292,6.142,1.43,9.067,1.235,3.177,5.4,3.8,8.807,3.762a108.248,108.248,0,0,0,21.629-2.437,72.619,72.619,0,0,1-2.624-7.256A107.844,107.844,0,0,1,342.773,486.5Z" transform="translate(-290.552 -329.318)"/>
  </g>
  <path id="Path_1402" data-name="Path 1402" d="M384.375,453.517c2.007,1.511,4.184-4.249,2.941-5.687C386.983,448.2,384.066,453.306,384.375,453.517Z" transform="translate(837.02 262.45)" opacity="0.1"/>
  <g transform="matrix(1, 0, 0, 1, 0, 0)" filter="url(#Path_1403)">
    <path id="Path_1403-2" data-name="Path 1403" d="M394.91,581.051c2.364-.812,4.875-1.625,6.419-3.575,1.276-1.568,2.324-7.792-.374-4.81C398.664,575.225,397.583,578.6,394.91,581.051Z" transform="translate(835.04 239.19)" opacity="0.1"/>
  </g>
  <path id="Path_1404" data-name="Path 1404" d="M423.835,573.109a9.334,9.334,0,0,1-2.169,5.289c-.252.26-.812.423-.886.073a20.543,20.543,0,0,0,4.193-2.958c2.746-2.722,3.12-9.425-1.064-11.2C423.867,567.251,424.282,570.119,423.835,573.109Z" transform="translate(830.188 240.609)" opacity="0.1"/>
  <path id="Path_1405" data-name="Path 1405" d="M452.351,558.379s-23.059-9.059-31.395-8.125,9.441,14.072,9.441,14.072l10.627,7.166s6.5-2.438,6.931-2.624S452.351,558.379,452.351,558.379Z" transform="translate(830.572 243.258)" fill="#00087b"/>
  <path id="Path_1406" data-name="Path 1406" d="M264.84,439.768s17.322-10.042,40.186,2.438S331.7,528.127,331.7,528.127s-9.352,74.823,26.707,58.174c0,0,65.812-20.434,72.4-15.933,0,0,6.24,0-6.232,2.771s-60.653,18.037-60.653,18.037-15.576,5.444-22.173,0-25.293.7-27.722-36.725a650.8,650.8,0,0,0-8.661-70.329l-6.427-19.053Z" transform="translate(859.429 264.678)" fill="#565661"/>
  <path id="Path_1407" data-name="Path 1407" d="M260.744,555.805s7.621-75.871-4.875-103.244c-10.871-23.855,31.167-12.7,42.136-9.449a7.987,7.987,0,0,1,4.209,3.006c6.5,9.141,29.819,45.776,22.945,94.794,0,0-2.771,43.655,14.552,50.578L286.338,574.3c-4.331-1.4-8.726-2.559-13.162-3.567C267.52,569.447,258.307,565.8,260.744,555.805Z" transform="translate(861.444 264.356)" fill="#fff"/>
  <path id="Path_1408" data-name="Path 1408" d="M694.53,653.274h6.931L706,560.129l.309-5.3-5.891-2.072-.39,5.631Z" transform="translate(807.264 308.53)" fill="#565661"/>
  <path id="Path_1409" data-name="Path 1409" d="M701.3,558.391l5.972,1.739.309-5.3-5.891-2.072Z" transform="translate(805.994 308.53)" opacity="0.1"/>
  <path id="Path_1410" data-name="Path 1410" d="M648.184,704.439a15.622,15.622,0,0,1-.975,3.721,6.573,6.573,0,0,1-2.966,3.7,7.834,7.834,0,0,1-3,.593c-3.827.228-7.873.171-11.164-1.779a20.317,20.317,0,0,1-3.827-3.193A174.6,174.6,0,0,1,606.17,683.6c-1-1.438-2.031-3.136-1.584-4.875a75.734,75.734,0,0,0,21.75-9.953,10.5,10.5,0,0,1,3.055-1.625,16.6,16.6,0,0,1,5.736-.211c1.844.3,1.926.358,2.632,2.438,1.17,3.518.975,7.312,2.291,10.831a33.552,33.552,0,0,0,3.039,5.557C646.486,691.439,649.094,698.142,648.184,704.439Z" transform="translate(795.744 221.396)" fill="#7e3131"/>
  <path id="Path_1411" data-name="Path 1411" d="M648.184,706.622a15.622,15.622,0,0,1-.975,3.721,6.573,6.573,0,0,1-2.966,3.7,7.834,7.834,0,0,1-3,.593c-3.827.228-7.873.171-11.164-1.779a20.317,20.317,0,0,1-3.827-3.193,174.6,174.6,0,0,1-20.085-23.887c-1-1.438-2.031-3.136-1.584-4.875a75.435,75.435,0,0,0,7.443-2.486l.122.089c2.494,1.779,4.306,4.331,6.069,6.833l5.688,8a23.557,23.557,0,0,0,3.567,4.306,23.868,23.868,0,0,0,5.517,3.315c2.673,1.292,5.346,2.584,8.125,3.624C642.911,705.314,645.949,705.6,648.184,706.622Z" transform="translate(795.744 219.213)" fill="#652525"/>
  <path id="Path_1412" data-name="Path 1412" d="M658.872,604.316a24.462,24.462,0,0,1-2.031,3.876,165.879,165.879,0,0,0-17.322,40.535c-1.121-.252-1.755,1.276-1.747,2.437s0,2.624-1.073,3.047c-.317.122-.674.122-.983.26-.682.309-.878,1.178-.975,1.926l-.959,7.036c-.333,2.438-.626,5.078.569,7.231a11.562,11.562,0,0,0,3.144,3.25l15.86,12.512c.65.512,1.454,1.056,2.234.772,1.779-.65.2-3.835,1.625-5.127.943-.886,2.438-.219,3.746-.325a4.238,4.238,0,0,0,3.429-3.348,15.918,15.918,0,0,0,.089-5.086,4.614,4.614,0,0,1,.26-2.283,5.544,5.544,0,0,1,1.942-1.861,20.848,20.848,0,0,0,8.539-17.582,9.748,9.748,0,0,1,.114-3.112,8.2,8.2,0,0,1,1.471-2.567c5.761-7.792,10.562-16.25,15.332-24.692,2.746-4.875,5.541-9.823,6.5-15.315a1.422,1.422,0,0,0-1.17-1.95,55.277,55.277,0,0,0-7.264-1.739c-7.467-1.511-14.674-3.843-21.937-6.085S661.058,598.45,658.872,604.316Z" transform="translate(790.305 234.753)" fill="#454b69"/>
  <path id="Path_1413" data-name="Path 1413" d="M587.5,667.252l11.44,1.381L651.6,549.107l14.2-1.04,24.952,7.28,4.842,142.308h11.432l-4.5-147.508,27.373.7,48.847,121.6h10.392L737.763,530.331l-1.974-5.476-76.569-2.624-19.085,10.7-.244.617Z" transform="translate(827.332 314.255)" fill="#19191a"/>
  <path id="Path_1414" data-name="Path 1414" d="M686.94,614.478c16.453,4.956,33.532,10.367,33.532,10.367s15.575,5.436,22.173,0a9.965,9.965,0,0,1,2.754-1.519,13.569,13.569,0,0,1-2.754,1.519l42.168-13.593-1.95-5.468-76.569-2.624-19.085,10.7Z" transform="translate(780.282 233.325)" opacity="0.1"/>
  <path id="Path_1415" data-name="Path 1415" d="M757.126,586.461l-31.175-6.931s-74.489,13.861-80.031,19.4c0,0,59.588,12.122,66.169,16.25S757.825,623.876,757.126,586.461Z" transform="translate(787.974 237.755)" fill="#fff"/>
  <g transform="matrix(1, 0, 0, 1, 0, 0)" filter="url(#Path_1416)">
    <path id="Path_1416-2" data-name="Path 1416" d="M627.031,717.5c-1.877,3.575-6.5,4.583-10.562,4.639a44.6,44.6,0,0,1-16.51-2.949,96.061,96.061,0,0,0-8.994-3.486c-4.623-1.267-9.75-1.162-13.812-3.7a16.249,16.249,0,0,1-5.192-5.631c-.236-.4-.463-.812-.674-1.235a17.4,17.4,0,0,1-1.763-12.253c1.081-4.079,5-8.572,9.555-8.507,5.4.081,11.846,2.641,17.062,3.965,6.5,1.625,13,3.5,18.744,6.939a28.035,28.035,0,0,1,11.326,12.114,20.543,20.543,0,0,1,1.073,3.023A9.475,9.475,0,0,1,627.031,717.5Z" transform="translate(802.39 218.1)" fill="#7e3131"/>
  </g>
  <g transform="matrix(1, 0, 0, 1, 0, 0)" filter="url(#Path_1417)">
    <path id="Path_1417-2" data-name="Path 1417" d="M627.545,722.286c-1.877,3.575-6.5,4.583-10.562,4.639a44.6,44.6,0,0,1-16.51-2.949,96.078,96.078,0,0,0-8.994-3.486c-4.623-1.267-9.75-1.162-13.812-3.7a16.249,16.249,0,0,1-5.192-5.631c-.236-.4-.463-.812-.674-1.235.813.065,1.56.146,1.966.187,4.989.479,9.75,2.3,14.511,3.672a81.5,81.5,0,0,0,20.312,3.169c4.875.138,9.961-.219,14.219-2.6a37.292,37.292,0,0,1,3.949-2.169,20.533,20.533,0,0,1,1.073,3.022A9.634,9.634,0,0,1,627.545,722.286Z" transform="translate(801.87 213.31)" fill="#652525"/>
  </g>
  <g transform="matrix(1, 0, 0, 1, 0, 0)" filter="url(#Path_1418)">
    <path id="Path_1418-2" data-name="Path 1418" d="M657.858,534.276c-10.562-1.731-21.32-2.153-32.029-2.576l-13.1-.52a5.938,5.938,0,0,0-2.754.333,17.934,17.934,0,0,0-2.153,1.625,8.909,8.909,0,0,1-4.582,1.081,228.108,228.108,0,0,0-33.442,4.339c-5.687,1.162-11.594,2.681-15.868,6.606-4.518,4.152-6.5,10.481-6.654,16.607s1.454,12.147,3.152,18.029a82.136,82.136,0,0,1,3.551,21.824,40.838,40.838,0,0,0,.236,6.151,29.426,29.426,0,0,0,1.714,5.687l5.98,15.966c.528,1.4,1.048,2.787,1.625,4.152s1.129,2.438,1.625,3.721c.731,1.755,1.308,3.575,1.885,5.387l3.981,12.5.52,1.625c1.438,4.5,2.909,9.084,5.622,12.951s6.914,6.987,11.635,7.223a35.646,35.646,0,0,1,4.566.122,18.462,18.462,0,0,1,3.746,1.357,28.576,28.576,0,0,0,11.188,2.186c3.534,0,7.459-.983,9.376-3.957a13.787,13.787,0,0,0,1.625-5.541c.512-3.851,1.007-7.873-.3-11.529-.812-2.186-2.177-4.062-3.12-6.216-1.316-2.933-1.747-6.175-2.6-9.271a35.409,35.409,0,0,0-10.806-17.192,169.463,169.463,0,0,1-4.062-22.246,19.583,19.583,0,0,0-.983-4.875c-.951-2.437-2.876-4.412-3.681-6.9-.756-2.308-.528-4.973-1.9-6.963,11.432,3.144,22.75,2.438,34.62,2.251a94.584,94.584,0,0,0,11.375-.65,35.764,35.764,0,0,1,5.33-.569c3.672,0,7.117,1.625,10.489,3.055,9.531,4.062,19.573,7.256,29.924,7.694,10.684.447,21.247-2.064,31.687-4.55,4.591-1.1,9.36-2.283,13-5.3s5.688-8.45,3.445-12.586c-1.706-3.112-5.241-4.639-8.539-5.939-9.132-3.607-18.314-7.126-27.113-11.489C682.631,551.339,672.58,536.714,657.858,534.276Z" transform="translate(806.47 246.83)" fill="#00087b"/>
  </g>
  <path id="Path_1419" data-name="Path 1419" d="M658.377,485.692c-1.276,2.762-3.421,5.021-5,7.621a19.313,19.313,0,0,0-2.437,14.34,16.315,16.315,0,0,0,9.141,11.123,22.939,22.939,0,0,0,6.337,1.527c2.86.349,5.907.423,8.434-.959a12.318,12.318,0,0,0,4.493-4.7,47.623,47.623,0,0,0,4.566-11.879c2.1-7.572,3.9-15.34,3.64-23.2-.089-2.706-.626-5.753-2.868-7.312a9.645,9.645,0,0,0-3.77-1.235l-10.717-1.917c-2.072-.374-5.687-1.893-7.483-.4s-1.934,5.915-2.242,7.987C659.978,479.761,659.677,482.873,658.377,485.692Z" transform="translate(787.119 258.656)" fill="#e694a0"/>
  <path id="Path_1420" data-name="Path 1420" d="M815.04,448.956l-2.8,23.5a108.059,108.059,0,0,0-1,12.642c0,2.356.073,4.972-1.487,6.736a6.141,6.141,0,0,1-2.795,1.682c-3.4,1.056-7.117.114-10.367-1.341-1.9-.812-3.843-1.991-4.7-3.884a9.65,9.65,0,0,1-.609-4.119c0-14.015,1.324-28.632,8.645-40.576a8.849,8.849,0,0,1,2.576-2.974c2.031-1.3,4.688-.934,6.987-.228,1.414.431,5.232.91,6.134,2.169S815.235,447.339,815.04,448.956Z" transform="translate(760.724 263.965)" fill="#a1616a"/>
  <g transform="matrix(1, 0, 0, 1, 0, 0)" filter="url(#Ellipse_35)">
    <circle id="Ellipse_35-2" data-name="Ellipse 35" cx="29.25" cy="29.25" r="29.25" transform="translate(1472.15 569.45)" fill="#e694a0"/>
  </g>
  <g transform="matrix(1, 0, 0, 1, 0, 0)" filter="url(#Path_1421)">
    <path id="Path_1421-2" data-name="Path 1421" d="M717.169,355.851a15.087,15.087,0,0,1-1.812,6.5q22.4-3.412,44.687-7.6a20.987,20.987,0,0,1-10.367-12.187,34.417,34.417,0,0,1-1.316-8.686,100.415,100.415,0,0,1,.268-13.983c-5.2.544-10.124,2.494-15.08,4.168a148.691,148.691,0,0,1-15.185,4.249c-2.478.553-4.972,1.024-7.475,1.462-2.925.52-4.331.512-2.3,3.079C714.041,339.707,717.933,346.678,717.169,355.851Z" transform="translate(776.4 286.44)" fill="#e694a0"/>
  </g>
  <g transform="matrix(1, 0, 0, 1, 0, 0)" filter="url(#Path_1422)">
    <path id="Path_1422-2" data-name="Path 1422" d="M717.263,357.653c-3.859.577-7.906,1.227-10.985,3.616a41.449,41.449,0,0,0-3.339,3.209c-6.118,5.939-14.755,8.328-22.181,12.521a9.75,9.75,0,0,0-3.152,2.478c-.813,1.129-1.227,2.568-2.08,3.689-.991,1.3-2.559,2.112-3.331,3.551s-.6,2.966-.682,4.493c-.187,3.356-1.454,6.541-2.437,9.75-4.509,15.364-2.039,32.5-8.864,47.011a6.605,6.605,0,0,0,3.591,3.754,20.392,20.392,0,0,0,5.33,1.146l15.12,1.877c2.161.268,4.452.52,6.427-.382a75.509,75.509,0,0,0-3.811,15.38,76.6,76.6,0,0,1-1.706,9.522c-2.08,7.15-7.312,13.106-13.512,17.176a5,5,0,0,0-1.909,1.763c-.812,1.625.39,3.445,1.243,5.037,2.478,4.615,2.137,10.156,2.1,15.389s.5,10.977,4.152,14.731c2.161,2.218,5.119,3.421,7.995,4.566l23.652,9.449a82.421,82.421,0,0,0,12.041,4.062c6.232,1.422,12.707,1.365,19.1,1.089q6.337-.268,12.659-.812a9.849,9.849,0,0,0,4.786-1.259,8.936,8.936,0,0,0,2.8-3.8c3.291-7.158,4.4-15.511,9.5-21.507,3.5-4.119,8.938-7.41,9.336-12.8.187-2.681-1.007-5.289-1.024-7.979,0-3.307,1.731-6.451,1.625-9.75-.219-5.371-5.281-9.466-6.086-14.779-2.047-13.471,4.794-26.926,8.994-39.885.756-2.316,1.731-4.875,3.957-5.866s5.362-.471,6.159-2.665c2.007-5.509,2.486-11.968,2.226-17.826-.146-3.388-1.349-6.7-1.211-10.1.1-2.389.861-4.712,1.064-7.093.309-3.6-.642-7.174-1.625-10.652a16.687,16.687,0,0,0-1.267-3.591,17.062,17.062,0,0,0-2.113-2.9l-3.957-4.7c-1.852-2.2-3.811-4.485-6.5-5.6-.869-2.153-3.648-3.64-5.639-4.826a57.784,57.784,0,0,0-6.207-3.047l-22.376-9.88a9.164,9.164,0,0,0-2.657-.861,8.6,8.6,0,0,0-3.949.812C731.7,353.867,724.576,356.564,717.263,357.653Z" transform="translate(785.29 280.73)" fill="#ff8923"/>
  </g>
  <g transform="matrix(1, 0, 0, 1, 0, 0)" filter="url(#Path_1423)">
    <path id="Path_1423-2" data-name="Path 1423" d="M700.255,305.57c-.861-3.031-3.063-5.647-3.4-8.783-.3-2.787.926-5.484,1.625-8.2s.674-6.029-1.479-7.832c-.357-.309-.812-.585-.942-1.04-.26-.812.561-1.552.813-2.372.463-1.625-1.544-3.421-.812-4.981.414-.853,1.454-1.154,2.364-1.422,3.477-1.032,7-3.323,7.759-6.874,2.722,1.137,5.622-1,7.711-3.071s4.656-4.436,7.532-3.811l-.642,1.308a20.8,20.8,0,0,1,13.756-.154h-1.365a18.866,18.866,0,0,1,10.879,3.681c-.349,0-.382.52-.244.813,1.138,2.657,4.062,4.062,6.882,4.721,1.7.406,3.542.7,4.786,1.917s1.267,3.762-.374,4.347a42.742,42.742,0,0,1,9.433,5.119c.812.593,1.731,1.4,1.625,2.438a7.936,7.936,0,0,1-.5,1.519,5.258,5.258,0,0,0,.171,2.6l.9,3.721c.991,4.136,1.771,9.116-1.243,12.114a11.123,11.123,0,0,1-1.958,13.13,5.411,5.411,0,0,1-4.062,7c1,1.56.081,3.786-1.5,4.761a8.688,8.688,0,0,1-5.4.813,23.028,23.028,0,0,0-5.533-.309c-2.673.414-5.289,2.234-7.865,1.422a17.654,17.654,0,0,1-2.754-1.479c-1.8-.967-3.9-1.186-5.9-1.625A27.25,27.25,0,0,1,721,320.975a11.171,11.171,0,0,1-4.379-4.875c-1.787-4.517,1.219-10.441-1.942-14.121a5.582,5.582,0,0,0-7.6-.341c-1.032.918-1.17,2.852-2.242,3.542a14.179,14.179,0,0,1-4.582.39Z" transform="translate(778.6 298.22)" fill="#323037"/>
  </g>
  <path id="Path_1424" data-name="Path 1424" d="M651.413,601.781a13.4,13.4,0,0,1-2.949-3.25,6.061,6.061,0,0,1-.894-4.2,12.017,12.017,0,0,0,3.161,10.335c2.039,2.088,5.866,4.136,8.848,3.421C659.156,605.7,653.306,603.389,651.413,601.781Z" transform="translate(787.696 234.98)" opacity="0.1"/>
  <path id="Path_1425" data-name="Path 1425" d="M811.5,441.768s-17.322-10.042-40.186,2.437-26.674,85.921-26.674,85.921,9.352,74.823-26.707,58.175c0,0-65.812-20.434-72.4-15.933,0,0-6.24,0,6.232,2.771s60.653,18.037,60.653,18.037,15.575,5.444,22.173,0,25.293.7,27.722-36.725a650.768,650.768,0,0,1,8.661-70.33l6.427-19.053Z" transform="translate(788.34 264.303)" fill="#565661"/>
  <path id="Path_1426" data-name="Path 1426" d="M834.5,557.805s-7.621-75.871,4.875-103.244c10.871-23.855-31.167-12.7-42.136-9.449a7.987,7.987,0,0,0-4.209,3.006c-6.5,9.141-29.818,45.776-22.945,94.794,0,0,2.771,43.655-14.552,50.578L808.9,576.3c4.331-1.4,8.726-2.559,13.162-3.567C827.72,571.447,836.934,567.8,834.5,557.805Z" transform="translate(767.421 263.981)" fill="#fff"/>
  <ellipse id="Ellipse_36" data-name="Ellipse 36" cx="79.169" cy="12.716" rx="79.169" ry="12.716" transform="translate(1662.668 943.888)" fill="#6c63ff" opacity="0.1"/>
  <rect id="Rectangle_130" data-name="Rectangle 130" width="5.094" height="114.7" transform="translate(1739.285 713.01)" fill="#fff"/>
  <g transform="matrix(1, 0, 0, 1, 0, 0)" filter="url(#Path_1427)">
    <path id="Path_1427-2" data-name="Path 1427" d="M1051.512,590.134l-.317,5.167-.455,7.312-.187,3.039-.447,7.312-.195,3.039-.455,7.313-5.135,82.931a14.056,14.056,0,0,1-14.023,13.13h-26.707A14.04,14.04,0,0,1,989.584,706.2l-5.151-82.939-.447-7.312-.187-3.039-.463-7.312-.187-3.039-.447-7.312-.325-5.167a7.312,7.312,0,0,1,7.264-7.727h54.616a7.312,7.312,0,0,1,7.255,7.784Z" transform="translate(724.89 237.23)" fill="#00087b"/>
  </g>
  <path id="Path_1428" data-name="Path 1428" d="M1016.313,517.36l-.455,7.288H948.275l-.455-7.288Z" transform="translate(759.771 315.168)" fill="#fff"/>
  <path id="Path_1429" data-name="Path 1429" d="M1015.819,530.08l-.447,7.3H949.065l-.455-7.3Z" transform="translate(759.622 312.783)" fill="#fff"/>
  <path id="Path_1430" data-name="Path 1430" d="M1015.326,542.8l-.455,7.288H949.855L949.4,542.8Z" transform="translate(759.474 310.398)" fill="#fff"/>
  <g transform="matrix(1, 0, 0, 1, 0, 0)" filter="url(#Path_1431)">
    <path id="Path_1431-2" data-name="Path 1431" d="M958.1,498.865c29.672,21.466,42.03,55.038,42.03,55.038s-35.75-1.227-65.43-22.693-42.022-55.03-42.022-55.03S928.438,477.407,958.1,498.865Z" transform="translate(741.7 257.13)" fill="#3f8527"/>
  </g>
  <g transform="matrix(1, 0, 0, 1, 0, 0)" filter="url(#Path_1432)">
    <path id="Path_1432-2" data-name="Path 1432" d="M892.68,476.18s37.107,20.6,49.018,37.651,58.434,40.072,58.434,40.072" transform="translate(741.71 257.13)" fill="none" stroke="#fff" stroke-miterlimit="10" stroke-width="2"/>
  </g>
  <g transform="matrix(1, 0, 0, 1, 0, 0)" filter="url(#Path_1433)">
    <path id="Path_1433-2" data-name="Path 1433" d="M988.563,448.03c16.152,11.676,22.88,29.957,22.88,29.957s-19.5-.674-35.612-12.35S953,435.68,953,435.68,972.419,436.346,988.563,448.03Z" transform="translate(730.39 264.73)" fill="#3f8527"/>
  </g>
  <g transform="matrix(1, 0, 0, 1, 0, 0)" filter="url(#Path_1434)">
    <path id="Path_1434-2" data-name="Path 1434" d="M953,435.68s20.2,11.212,26.674,20.491,31.809,21.815,31.809,21.815" transform="translate(730.39 264.73)" fill="none" stroke="#fff" stroke-miterlimit="10" stroke-width="2"/>
  </g>
  <g transform="matrix(1, 0, 0, 1, 0, 0)" filter="url(#Path_1435)">
    <path id="Path_1435-2" data-name="Path 1435" d="M1048.624,480.412c-18.549,20.385-22.474,47.027-22.474,47.027s26.154-6.419,44.687-26.812,22.474-47.027,22.474-47.027S1067.173,460.027,1048.624,480.412Z" transform="translate(716.68 261.37)" fill="#3f8527"/>
  </g>
  <g transform="matrix(1, 0, 0, 1, 0, 0)" filter="url(#Path_1436)">
    <path id="Path_1436-2" data-name="Path 1436" d="M1093.327,453.61s-24.163,20.9-30.306,35.295-36.871,38.537-36.871,38.537" transform="translate(716.68 261.37)" fill="none" stroke="#fff" stroke-miterlimit="10" stroke-width="2"/>
  </g>
  <path id="Path_1437" data-name="Path 1437" d="M579.263,418.585v1.852H524.33v-1.5a18.459,18.459,0,0,0,4.241-2.259A18.046,18.046,0,0,0,536.111,402a17.814,17.814,0,0,0-.561-4.444,18.062,18.062,0,0,0-9.977-11.968h53.316a18.061,18.061,0,0,0-9.978,11.968,17.807,17.807,0,0,0-.552,4.444,18.037,18.037,0,0,0,7.532,14.674,18.583,18.583,0,0,0,3.372,1.909Z" transform="translate(810.772 274.12)" fill="#dfe6f5"/>
  <path id="Path_1438" data-name="Path 1438" d="M579.176,385.59a18.061,18.061,0,0,0-9.977,11.968H535.837a18.062,18.062,0,0,0-9.977-11.968Z" transform="translate(810.485 274.12)" opacity="0.1"/>
  <path id="Path_1439" data-name="Path 1439" d="M446.92,373.94v10.432c0,5.752,4.209,10.424,9.409,10.424H617.942c5.2,0,9.417-4.672,9.417-10.424V373.94Z" transform="translate(825.287 276.305)" fill="#dfe6f5"/>
  <path id="Path_1440" data-name="Path 1440" d="M579.263,425.759v1.852H524.33v-1.5a18.459,18.459,0,0,0,4.241-2.259h47.32a18.583,18.583,0,0,0,3.372,1.909Z" transform="translate(810.772 266.946)" opacity="0.1"/>
  <rect id="Rectangle_131" data-name="Rectangle 131" width="91.235" height="5.501" rx="2.75" transform="translate(1316.951 691.373)" fill="#dfe6f5"/>
  <path id="Path_1441" data-name="Path 1441" d="M627.359,231.139a9.409,9.409,0,0,0-9.417-9.409H456.329a9.4,9.4,0,0,0-9.409,9.409V347.431H627.359Z" transform="translate(825.287 304.845)" fill="#2b2b2d"/>
  <path id="Path_1442" data-name="Path 1442" d="M623.571,237.411v99.937a4.631,4.631,0,0,1-4.631,4.639H457.611a4.631,4.631,0,0,1-4.631-4.639V237.411a4.566,4.566,0,0,1,.617-2.316,4.631,4.631,0,0,1,4.014-2.316H618.94a4.631,4.631,0,0,1,4.631,4.631Z" transform="translate(824.151 302.773)" fill="#fff"/>
  <circle id="Ellipse_37" data-name="Ellipse 37" cx="2.169" cy="2.169" r="2.169" transform="translate(1360.258 528.891)" fill="#fff"/>
  <circle id="Ellipse_38" data-name="Ellipse 38" cx="5.354" cy="5.354" r="5.354" transform="translate(1357.072 655.754)" fill="#fff"/>
  <path id="Path_1443" data-name="Path 1443" d="M623.575,237.411H453a4.631,4.631,0,0,1,4.631-4.631H618.944a4.631,4.631,0,0,1,4.631,4.631Z" transform="translate(824.147 302.773)" fill="#c8cad7"/>
  <circle id="Ellipse_39" data-name="Ellipse 39" cx="1.162" cy="1.162" r="1.162" transform="translate(1280.601 536.707)" fill="#ededf4"/>
  <circle id="Ellipse_40" data-name="Ellipse 40" cx="1.162" cy="1.162" r="1.162" transform="translate(1284.078 536.707)" fill="#ededf4"/>
  <circle id="Ellipse_41" data-name="Ellipse 41" cx="1.162" cy="1.162" r="1.162" transform="translate(1287.556 536.707)" fill="#ededf4"/>
  <g transform="matrix(1, 0, 0, 1, 0, 0)" filter="url(#Rectangle_216)">
    <rect id="Rectangle_216-2" data-name="Rectangle 216" width="96" height="130" transform="translate(1317 496)" fill="#fff"/>
  </g>
  <g id="ic_record_voice_over_24px-2" data-name="ic_record_voice_over_24px" transform="translate(1326.834 506.262)">
    <circle id="Ellipse_3-2" data-name="Ellipse 3" cx="4.5" cy="4.5" r="4.5" transform="translate(4.165 -0.262)" fill="#00087b"/>
    <path id="Path_3-3" data-name="Path 3" d="M9.458,21.842C6.635,21.842,1,23.259,1,26.071v2.114H17.916V26.071C17.916,23.259,12.281,21.842,9.458,21.842Z" transform="translate(-1 -11.135)" fill="#00087b"/>
  </g>
  <text id="Resume" transform="translate(1349 519)" fill="#00087b" font-size="15" font-family="Lato-Bold, Lato" font-weight="700"><tspan x="0" y="0">Resume</tspan></text>
  <line id="Line_11" data-name="Line 11" x2="76" transform="translate(1326.5 535.5)" fill="none" stroke="#00087b" stroke-width="1"/>
  <line id="Line_12" data-name="Line 12" x2="76" transform="translate(1326.5 542.5)" fill="none" stroke="#00087b" stroke-width="1"/>
  <line id="Line_13" data-name="Line 13" x2="76" transform="translate(1326.5 548.5)" fill="none" stroke="#00087b" stroke-width="1"/>
  <line id="Line_14" data-name="Line 14" x2="76" transform="translate(1326.5 554.5)" fill="none" stroke="#00087b" stroke-width="1"/>
  <line id="Line_15" data-name="Line 15" x2="76" transform="translate(1326.5 560.5)" fill="none" stroke="#00087b" stroke-width="1"/>
  <path id="ic_add_circle_24px" d="M12,2A10,10,0,1,0,22,12,10,10,0,0,0,12,2Zm5,11H13v4H11V13H7V11h4V7h2v4h4Z" transform="translate(1370.04 587.592) rotate(-47)" fill="red" opacity="0.72"/>
  <path id="ic_add_circle_24px-2" data-name="ic_add_circle_24px" d="M12,2A10,10,0,1,0,22,12,10,10,0,0,0,12,2Zm7.134,11.928-10.03-.1h-2v-6h2v4l10.03.1Z" transform="translate(1329.04 587.592) rotate(-47)" fill="#00ff2b" opacity="0.72"/>
</g>
</svg>
