<svg xmlns="http://www.w3.org/2000/svg" xmlns:xlink="http://www.w3.org/1999/xlink" width="2000" height="1200" xmlns:v="https://vecta.io/nano"><style><![CDATA[.K{fill:#f2f2f2}.L{fill:#f1c27d}.M{fill:#42210b}.N{fill:#51e2c2}.O{fill:#4bccef}.P{fill:#3f51b5}]]></style><path d="M2000 0H0v1200h2000V0" opacity="0"/><path d="M229.27 1146.744h-64.183L154.4 953.686c0-25.734 16.762-46.6 37.437-46.6s37.437 20.86 37.437 46.6zm89.4 0h-64.183V953.686c0-25.734 16.76-46.6 37.436-46.6s37.438 20.86 37.438 46.6z" class="L"/><path d="M345.13 956.636c-22.62-79.1 26.345-166.8-4.766-237.225-2.1-4.747-18.58-7.817-23.21-7.817h-150.56c-4.63 0-21.1 3.07-23.2 7.817-31.11 70.42 17.85 158.122-4.77 237.225-3.71 12.97 4.934 26.627 17.33 29.927a10.44 10.44 0 0 0 2.594.412h166.656a10.44 10.44 0 0 0 2.594-.412c12.397-3.3 21.04-16.957 17.33-29.927z" fill="#3f51b5"/><g class="M"><path d="M233.69 129.7c-74.948 0-135.708 79.88-135.708 178.42v151.967c0 40.08 24.712 72.57 55.2 72.57h161.02c30.486 0 55.2-32.49 55.2-72.57V308.114C369.397 192.202 335.074 129.7 233.69 129.7z"/><path d="M220.865 199.466c-82.458 0-149.3 64.372-149.3 143.78v122.46c0 32.3 27.186 58.48 60.722 58.48H309.43c33.536 0 60.722-26.183 60.722-58.48v-122.46c0-93.41-37.763-143.78-149.286-143.78z"/><path d="M220.865 148.747v-18.255c-82.458 0-149.3 82.628-149.3 162.037V415c0 32.3 27.186 58.48 60.722 58.48H309.43c33.536 0 60.722-26.183 60.722-58.48V292.53c0-93.41-37.763-143.782-149.286-143.782z"/></g><g class="K"><path d="M341.234 621.892l15.773-101.57c0-43.555-31.817-78.864-71.066-78.864h-88.133c-39.248 0-71.064 35.31-71.064 78.864 0 0 8.278 48.342 15.742 101.48 5.473 38.966-1.7 78.686-16.49 115.3l-1.446 3.57c-2.475 6.145 1.075 13.414 6.55 13.414h221.48c5.475 0 9.025-7.27 6.55-13.414l-1.42-3.51c-14.784-36.602-21.948-76.315-16.476-115.273z"/><path d="M281.053 499.337c18.814 14.1 38.2 27.572 58.775 38.994 10.857 5.92 22.03 11.238 33.47 15.934a192.43 192.43 0 0 0 25.722 8.844 197.36 197.36 0 0 0 32.239 5.375c8.23.744 16.5.72 24.733-.07 10.924-.936 21.744-2.835 32.334-5.675a223.5 223.5 0 0 0 32.059-12.209c19.345-8.8 37.248-20.564 54.153-33.377q6.356-4.816 12.628-9.755c2.864-2.623 5-5.945 6.194-9.64a27.11 27.11 0 0 0 0-23.083 22.45 22.45 0 0 0-6.194-9.642c-5.7-5.24-13.2-9.13-21.183-8.773l-7.964 1.07a29.91 29.91 0 0 0-13.219 7.7q-1.713 1.348-3.437 2.68 3.033-2.34 6.063-4.684c-19.228 14.817-39.7 28.38-62.12 37.892l7.156-3.022c-12.557 5.4-25.765 9.113-39.3 11.073l7.962-1.07a135.82 135.82 0 0 1-35.783.009q3.982.537 7.964 1.07c-15.276-2.223-30.2-6.46-44.353-12.6q3.58 1.5 7.156 3.02c-22.962-9.74-44.3-22.977-64.728-37.22q-10.18-7.1-20.1-14.572a22.29 22.29 0 0 0-11.137-3.555 26.9 26.9 0 0 0-22.134 5.9 22.66 22.66 0 0 0-7.716 8.4c-3.673 6.955-5.514 15.375-3.02 23.084l3.02 7.156c2.605 4.443 6.305 8.143 10.748 10.748zM119.166 623.244a245.99 245.99 0 0 1-17.1-19.608q2.344 3.03 4.684 6.063a116.29 116.29 0 0 1-15.116-24.75l3.02 7.156c-2.094-4.83-3.54-9.914-4.3-15.123q.537 3.982 1.07 7.964c-.488-3.717-.497-7.48-.027-11.2q-.537 3.982-1.07 7.964c.515-3.68 1.508-7.277 2.953-10.7q-1.512 3.577-3.02 7.156a55.6 55.6 0 0 1 7.041-11.83l-4.683 6.063c5.87-7.6 13.145-13.967 20.7-19.82q-3.03 2.344-6.063 4.684c20.623-15.894 43.492-28.736 65.264-42.945q10.8-7.043 21.327-14.464a22.61 22.61 0 0 0 8.4-7.716 26.9 26.9 0 0 0 5.9-22.133 22.3 22.3 0 0 0-3.556-11.139c-4.123-6.4-10.264-12.027-17.9-13.766-7.464-1.7-16.58-1.586-23.083 3.02-31.352 22.2-65.57 40.264-95.56 64.383-5.243 4.125-10.124 8.7-14.6 13.644-5.44 6.166-10.9 12.95-14.367 20.494a87.94 87.94 0 0 0-5.6 14.361 81.25 81.25 0 0 0-2.3 15.9c-.3 5.483.64 11 1.445 16.38a56.32 56.32 0 0 0 2.094 8.977 118.1 118.1 0 0 0 14.647 29.9c8.187 11.902 17.363 23.1 27.43 33.45 5.253 5.472 13.662 8.773 21.183 8.773a22.56 22.56 0 0 0 11.542-2.58c3.695-1.197 7.017-3.33 9.64-6.194 5.24-5.7 9.13-13.2 8.775-21.183a31.74 31.74 0 0 0-8.782-21.182z"/></g><g class="L"><path d="M201.94 447.998v-39.944h79.877v39.944c0 22.06-39.937 91.078-39.937 91.078s-39.94-69.023-39.94-91.078z"/><circle cx="358.748" cy="314.853" r="26.628"/></g><g class="K"><path d="M78.047 1200H229.27v-53.256h-99.4c-28.616 0-51.814 23.198-51.814 51.814zm327.665 0H254.477v-53.256h99.42a51.81 51.81 0 0 1 51.815 51.814z"/><path d="M153.657 1120.116c-13.918 0-25.2 11.282-25.2 25.2v1.426h50.4v-1.423a25.2 25.2 0 0 0-25.209-25.203zm176.433 0c-13.92 0-25.203 11.28-25.206 25.2v1.426h50.4v-1.423c-.001-13.92-11.285-25.203-25.205-25.203z"/></g><path d="M255.03 434.678a106.51 106.51 0 0 1-106.514-106.512V288.41c0-51.573 41.808-93.382 93.38-93.383 31.732 0 62.164 12.605 84.6 35.042s35.043 52.87 35.044 84.6v13.5c-.002 58.824-47.688 106.51-106.512 106.51z" class="L"/><path d="M188.46 195.025v133.14c.01 51.12 36.33 95.026 86.54 104.616-31.185 5.967-63.405-2.295-87.87-22.53s-38.625-50.335-38.614-82.085v-133.14z" opacity=".02"/><path d="M315.448 368.033c-.958.833-23.738 20.147-52.964-.155-1.9-1.32-4.328-.536-5.427 1.748a5.34 5.34 0 0 0 1.453 6.53c13.528 9.4 25.906 11.373 35.97 10.3a49.29 49.29 0 0 0 25.663-10.709 5.43 5.43 0 0 0 .853-6.663c-.5-.986-1.43-1.684-2.515-1.9s-2.206.104-3.032.84z" fill="#b23b36" opacity=".3"/><path d="M355.297 290.723a58.66 58.66 0 0 0-40.447 0c-3.533 1.283-7.683.1-9.427-3.136-1.742-3.228.334-7.7 4.836-9.362a72 72 0 0 1 49.628 0c4.5 1.652 6.578 6.134 4.836 9.362-1.74 3.247-5.9 4.42-9.426 3.136zm-93.2 6.657c-13.056-4.794-27.4-4.794-40.447 0-3.533 1.283-7.684.1-9.427-3.134-1.742-3.228.334-7.7 4.836-9.363a71.97 71.97 0 0 1 49.628 0c4.5 1.65 6.578 6.134 4.836 9.363-1.744 3.245-5.893 4.416-9.426 3.134z" class="M"/><path d="M148.516 288.408c-14.7 0-25.184 11.74-25.184 26.445s12.08 26.62 26.008 26.62" class="L"/><path d="M241.713 311.983l-.848.042-.128-.316q-2.16-4.18-4.32-8.366a4 4 0 0 0-5.466-1.435c-1.906 1.113-2.548 3.56-1.435 5.465q1.945 3.764 3.886 7.527c-.966.776-1.82 1.682-2.538 2.692l-7.437-4.72c-4.353-2.763-8.366 4.148-4.03 6.9q3.975 2.52 7.95 5.044a4.15 4.15 0 0 0 1.052.467v.01c0 5.385 3.243 10.24 8.218 12.3s10.702.922 14.5-2.885 4.947-9.534 2.887-14.5a13.33 13.33 0 0 0-12.3-8.22zm114.095 1.04l-7.452 4.727a13.5 13.5 0 0 0-2.53-2.689l3.892-7.538c1.06-1.9.43-4.32-1.433-5.464a4.04 4.04 0 0 0-5.466 1.433l-4.32 8.366-.13.317-.87-.045c-5.385 0-10.24 3.244-12.3 8.22s-.922 10.702 2.886 14.5 9.534 4.947 14.5 2.886 8.22-6.916 8.22-12.3a4.12 4.12 0 0 0 1.073-.475l7.95-5.042c4.332-2.753.33-9.674-4.03-6.904z"/><g class="L"><path d="M602.492 490.09c0 22.06-17.883 39.942-39.942 39.942s-39.942-17.883-39.942-39.942 17.883-39.942 39.942-39.942a39.94 39.94 0 0 1 39.942 39.942z"/><circle cx="39.942" cy="39.942" r="39.942" transform="matrix(.971267 -.237991 .237991 .971267 69.236938 637.178911)"/></g><path d="M148.675 192.37h133.14c0 34.887-75.158 96.04-133.3 96.04z" class="M"/><g fill="#fff"><path d="M201.94 447.994l-33.1 38.223h33.1l-16.55 20.055 56.488 32.8z"/><path d="M281.818 447.994l33.1 38.223h-33.1l16.55 20.055-56.49 32.8z"/></g><path d="M188.202 544.236h-14.294c-41.93 0-75.924-33.992-75.925-75.923l103.953-38.21v100.4c-.001 7.584-6.15 13.732-13.734 13.732z" class="M"/><path d="M136.336 341.474c0-7.18 5.82-13 13-13s13 5.82 13 13-5.82 13-13 13-13-5.82-13-13z" class="K"/><path d="M535.808 623.77l-143.86-21.573c-12.8-1.92-21.62-13.855-19.7-26.655l32.476-216.586c1.92-12.8 13.855-21.62 26.655-19.7l143.86 21.572c12.8 1.922 21.62 13.855 19.7 26.655l-32.475 216.582a23.44 23.44 0 0 1-26.655 19.705z" fill="#fff"/><path d="M601.463 497.4c-3.27 21.816-17.475 37.77-31.727 35.63s-23.15-21.55-19.88-43.37 17.477-37.767 31.727-35.63 23.15 21.55 19.88 43.37z" class="L"/><g fill="#2c3773"><path d="M1747.784 1199.634h228.778c6.216 0 12.178-2.47 16.573-6.864s6.865-10.357 6.865-16.573V586.934a28.51 28.51 0 0 0-28.511-28.511h-223.7z"/><path d="M1959.028 558.427H751.474l-193.24 641.207h1335.11l99.934-600.786a34.72 34.72 0 0 0-34.248-40.421z"/></g><g fill="#3f51b5"><path d="M1856.953 1037.76H545.282c-12.942 0-23.435 10.49-23.438 23.433v115c0 6.216 2.47 12.178 6.865 16.573s10.357 6.865 16.573 6.865h1324.623c6.216 0 12.178-2.47 16.573-6.864s6.865-10.357 6.865-16.573v-115c-.001-12.944-10.493-23.436-23.437-23.437z"/><rect width="1354.481" height="161.87" rx="15" x="592.818" y="798.094"/><rect width="1333.853" height="161.87" rx="15" x="666.147" y="558.427"/></g><path d="M852.26 911.025h-179a23.44 23.44 0 0 0-16.573 6.865c-4.396 4.395-6.864 10.357-6.864 16.573v103.3H875.7v-103.3c0-12.944-10.494-23.438-23.438-23.438zm298.644 0h-179c-12.944.001-23.437 10.494-23.437 23.438v103.3h225.863v-103.3c0-12.944-10.493-23.437-23.437-23.438zm298.643 0h-179c-12.944.001-23.437 10.494-23.437 23.438v103.3h225.866v-103.3a23.44 23.44 0 0 0-23.439-23.438zm298.64 0H1569.2c-12.944 0-23.438 10.494-23.438 23.438v103.3h225.864v-103.3a23.44 23.44 0 0 0-23.438-23.438zM1229.956 671.36h-178.988a23.44 23.44 0 0 0-23.437 23.438V798.1h225.863V694.8c-.004-12.942-10.496-23.43-23.438-23.43zm298.642 0H1349.6a23.44 23.44 0 0 0-16.573 6.865c-4.396 4.395-6.864 10.357-6.864 16.573V798.1h225.864V694.8a23.44 23.44 0 0 0-23.439-23.43zm298.642 0h-178.988a23.44 23.44 0 0 0-23.437 23.438V798.1h225.863V694.8a23.44 23.44 0 0 0-23.438-23.43zm-816.875-239.668h-179c-12.944.001-23.437 10.494-23.437 23.438v103.3h225.864v-103.3c-.001-12.944-10.494-23.437-23.438-23.437zm298.645 0h-179c-12.944.001-23.437 10.494-23.437 23.438v103.3h225.866v-103.3c-.001-12.944-10.494-23.437-23.438-23.437zm298.64 0h-178.988a23.44 23.44 0 0 0-16.573 6.865c-4.396 4.395-6.864 10.357-6.864 16.573v103.3h225.862v-103.3c0-12.944-10.493-23.437-23.437-23.437zm298.642 0h-178.988a23.44 23.44 0 0 0-16.573 6.865c-4.396 4.395-6.864 10.357-6.864 16.573v103.3h225.864v-103.3a23.44 23.44 0 0 0-23.439-23.437z" fill="#fff"/><use xlink:href="#B" fill="#ffd67b"/><path d="M1008.08 513.254H833.663a6.9 6.9 0 0 1 0-13.8h174.417a6.9 6.9 0 1 1 0 13.8zm0 25.096H833.663a6.9 6.9 0 1 1 0-13.8h174.417a6.9 6.9 0 1 1 0 13.8z" class="K"/><use xlink:href="#B" x="298.644" class="N"/><path d="M1306.724 513.254h-174.417a6.9 6.9 0 0 1 0-13.8h174.417a6.9 6.9 0 1 1 0 13.8zm0 25.096h-174.417a6.9 6.9 0 1 1 0-13.8h174.417a6.9 6.9 0 1 1 0 13.8z" class="K"/><use xlink:href="#B" x="597.286" class="O"/><path d="M1605.366 513.254H1430.95a6.9 6.9 0 0 1 0-13.8h174.417a6.9 6.9 0 1 1 0 13.8zm0 25.096H1430.95a6.9 6.9 0 1 1 0-13.8h174.417a6.9 6.9 0 0 1 0 13.8z" class="K"/><path d="M1786.683 481.884h-52.7c-4.06.038-7.828-2.106-9.87-5.616s-2.04-7.845 0-11.355 5.81-5.654 9.87-5.616h52.7c6.196.058 11.188 5.097 11.188 11.294s-4.992 11.235-11.188 11.293z" class="P"/><path d="M1904.007 513.254H1729.6a6.9 6.9 0 0 1 0-13.8H1904a6.9 6.9 0 1 1 0 13.8zm0 25.096H1729.6a6.9 6.9 0 0 1 0-13.8H1904a6.9 6.9 0 0 1 0 13.8z" class="K"/><path d="M1155.542 722.895l-22.586-.134c-4.035-.024-7.75-2.198-9.747-5.704s-1.97-7.81.066-11.293 5.78-5.613 9.813-5.59l22.587.134c6.237.037 11.263 5.123 11.226 11.36s-5.123 11.263-11.36 11.226z" class="N"/><path d="M1227.508 754.7l-99.13-.586a6.9 6.9 0 1 1 .081-13.8l99.13.586a6.9 6.9 0 1 1-.083 13.8zm.162 24.58h-174.417a6.9 6.9 0 1 1 0-13.8h174.417a6.9 6.9 0 1 1 0 13.8z" class="K"/><path d="M758.134 967.08h-68.167a9.9 9.9 0 0 1-8.822-14.931 9.9 9.9 0 0 1 8.822-4.86h68.167a9.9 9.9 0 0 1 8.822 14.931 9.9 9.9 0 0 1-8.822 4.86z" fill="#ffd67b"/><path d="M723.502 994.566H686.12a6.05 6.05 0 0 1-6.047-6.047 6.05 6.05 0 0 1 6.047-6.047h37.383a6.05 6.05 0 0 1 6.047 6.047 6.05 6.05 0 0 1-6.047 6.047zm24.188 22h-61.57a6.05 6.05 0 0 1 0-12.1h61.57a6.05 6.05 0 1 1 0 12.1zm63.77-22h-37.383a6.05 6.05 0 0 1-5.237-9.07c1.08-1.87 3.076-3.024 5.237-3.023h37.383a6.05 6.05 0 0 1 6.047 6.047 6.05 6.05 0 0 1-6.047 6.047zm24.2 22h-61.57a6.05 6.05 0 1 1 0-12.1h61.57a6.05 6.05 0 1 1 0 12.1z" class="K"/><use xlink:href="#C" class="N"/><g class="K"><path d="M1018.745 996.353h-42.662a6.9 6.9 0 0 1 0-13.8h42.662a6.9 6.9 0 1 1 0 13.8zm27.605 25.1h-70.268a6.9 6.9 0 1 1 0-13.8h70.27a6.9 6.9 0 1 1 0 13.8z"/><use xlink:href="#D"/><use xlink:href="#E"/></g><use xlink:href="#C" x="300.522" class="O"/><g class="K"><path d="M1319.27 996.353h-42.665a6.9 6.9 0 0 1 0-13.8h42.664a6.9 6.9 0 0 1 5.976 10.35 6.9 6.9 0 0 1-5.976 3.45z"/><use xlink:href="#E" x="200.141"/><path d="M1419.654 996.353h-42.663a6.9 6.9 0 1 1 0-13.8h42.664a6.9 6.9 0 1 1 0 13.8zm27.606 25.1h-70.268a6.9 6.9 0 1 1 0-13.8h70.27a6.9 6.9 0 1 1 0 13.8z"/></g><use xlink:href="#C" x="601.05" class="P"/><g class="K"><path d="M1619.795 996.353h-42.664a6.9 6.9 0 0 1 0-13.8h42.664a6.9 6.9 0 0 1 5.976 10.35 6.9 6.9 0 0 1-5.976 3.45z"/><use xlink:href="#E" x="500.666"/><use xlink:href="#D" x="601.05"/><use xlink:href="#E" x="601.048"/><path d="M1048.86 726.57c0-14.554 11.798-26.352 26.352-26.352s26.352 11.798 26.352 26.35-11.797 26.352-26.35 26.353a26.35 26.35 0 0 1-26.353-26.352z"/></g><path d="M1454.186 722.895l-22.588-.134c-4.035-.024-7.75-2.198-9.747-5.705s-1.97-7.81.067-11.293 5.78-5.612 9.814-5.588l22.586.134c6.237.037 11.263 5.123 11.226 11.36s-5.123 11.263-11.36 11.226z" class="O"/><path d="M1526.15 754.7l-99.13-.586a6.9 6.9 0 1 1 .083-13.8l99.13.586a6.9 6.9 0 1 1-.081 13.8zm.163 24.58h-174.415a6.9 6.9 0 1 1 0-13.8h174.417a6.9 6.9 0 1 1 0 13.8zm-178.813-52.7c.001-14.553 11.798-26.35 26.35-26.35s26.35 11.798 26.35 26.35-11.797 26.35-26.35 26.35-26.352-11.798-26.352-26.352z" class="K"/><path d="M1752.826 722.895l-22.587-.134c-6.237-.037-11.263-5.123-11.226-11.36s5.123-11.263 11.36-11.226l22.588.134c6.237.037 11.263 5.124 11.225 11.36s-5.124 11.263-11.36 11.226z" class="P"/><path d="M1824.794 754.7l-99.13-.586a6.9 6.9 0 1 1 .08-13.8l99.133.586a6.9 6.9 0 1 1-.083 13.8zm.162 24.58h-174.418a6.9 6.9 0 1 1 0-13.8h174.417a6.9 6.9 0 1 1 0 13.8zm-178.81-52.7c0-14.554 11.798-26.352 26.352-26.352s26.352 11.798 26.352 26.352-11.798 26.352-26.352 26.352a26.35 26.35 0 0 1-26.352-26.352z" class="K"/><defs ><path id="B" d="M890.756 481.884h-52.7c-6.196-.058-11.188-5.097-11.188-11.294s4.992-11.235 11.188-11.293h52.7c6.196.058 11.188 5.097 11.188 11.294s-4.992 11.235-11.188 11.293z"/><path id="C" d="M1058.272 964.983h-77.8c-6.237 0-11.293-5.056-11.293-11.293s5.056-11.293 11.293-11.293h77.8c6.237 0 11.293 5.056 11.293 11.293s-5.056 11.293-11.293 11.293z"/><path id="D" d="M1119.13 996.353h-42.664a6.9 6.9 0 0 1-5.976-10.35 6.9 6.9 0 0 1 5.976-3.45h42.664a6.9 6.9 0 0 1 5.976 10.35 6.9 6.9 0 0 1-5.976 3.45z"/><path id="E" d="M1146.736 1021.452h-70.27a6.9 6.9 0 1 1 0-13.8h70.27a6.9 6.9 0 1 1 0 13.8z"/></defs></svg>
