<svg id="Capa_1" enable-background="new 0 0 512 512" height="512" viewBox="0 0 512 512" width="512" xmlns="http://www.w3.org/2000/svg"><g><g><path d="m15.484 177.215h481.032c8.551 0 15.484-11.813 15.484-24.484v-137.247c0-8.552-6.932-15.484-15.484-15.484h-481.032c-8.552 0-15.484 6.932-15.484 15.484v137.247c0 14.921 6.932 24.484 15.484 24.484z" fill="#de5974"/><path d="m496.516 168.215h-481.032c-8.552 0-15.484-6.933-15.484-15.484v18.581c0 8.551 6.932 15.484 15.484 15.484h481.032c8.552 0 15.484-6.933 15.484-15.484v-18.581c0 8.551-6.932 15.484-15.484 15.484z" fill="#c7495d"/><path d="m451.02 66.986-18.029-2.62c-2.875-.418-5.359-2.223-6.645-4.828l-8.062-16.337c-3.237-6.559-12.591-6.559-15.828 0l-8.063 16.337c-1.286 2.605-3.77 4.41-6.645 4.828l-18.029 2.62c-7.239 1.052-10.129 9.948-4.891 15.053l13.046 12.716c2.08 2.027 3.029 4.949 2.538 7.812l-2.6 15.158h65.115l-2.6-15.158c-.491-2.863.458-5.784 2.538-7.812l13.045-12.716c5.239-5.105 2.349-14.001-4.89-15.053z" fill="#ffe07d"/><path d="m373.987 270.638c-10.851 0-19.647 8.796-19.647 19.647v-13.499c0-10.851-8.796-19.647-19.647-19.647-10.851 0-19.647 8.796-19.647 19.647v-13.499c0-10.851-8.796-19.647-19.647-19.647-10.851 0-19.647 8.796-19.647 19.647v-87.956c0-10.851-8.796-19.647-19.647-19.647-10.851 0-19.647 8.796-19.647 19.647v175.619h-.294l-31.614-35.431c-9.894-11.089-24.049-17.429-38.911-17.429-7.656 0-12.524 8.192-8.863 14.916l30.832 56.641c7.248 13.315 16.531 25.417 27.514 35.867l35.263 33.554v8.694l57.156 9 57.156-9v-8.694s28.936-30.516 28.936-101.496v-47.288c.001-10.85-8.795-19.646-19.646-19.646z" fill="#f0c69e"/><g><path d="m250.386 466.343 56.9 9 57.412-9v-18.58h-114.312z" fill="#e6ba94"/></g><path d="m296.653 66.986-18.029-2.62c-2.875-.418-5.359-2.223-6.645-4.828l-8.062-16.337c-3.237-6.559-12.591-6.559-15.828 0l-8.063 16.337c-1.285 2.605-3.77 4.41-6.645 4.828l-18.028 2.62c-7.239 1.052-10.129 9.948-4.891 15.053l13.046 12.716c2.08 2.027 3.029 4.949 2.538 7.812l-2.6 15.158h65.115l-2.6-15.158c-.491-2.863.458-5.784 2.538-7.812l13.046-12.716c5.238-5.105 2.347-14.001-4.892-15.053z" fill="#ffe07d"/><path d="m142.286 66.986-18.028-2.62c-2.875-.418-5.359-2.223-6.645-4.828l-8.062-16.337c-3.237-6.559-12.591-6.559-15.828 0l-8.063 16.338c-1.286 2.605-3.77 4.41-6.645 4.828l-18.028 2.62c-7.239 1.052-10.129 9.948-4.891 15.053l13.045 12.716c2.08 2.027 3.029 4.949 2.538 7.812l-2.6 15.158h65.114l-2.6-15.158c-.491-2.863.458-5.784 2.538-7.812l13.046-12.716c5.238-5.106 2.348-14.002-4.891-15.054z" fill="#ffe07d"/><path d="m246.251 502.419h122.071c5.5 0 9.959-7.181 9.959-18.959v-7.158c0-5.5-4.459-9.959-9.959-9.959h-122.071c-5.5 0-9.959 4.459-9.959 9.959v7.158c0 11.539 4.458 18.959 9.959 18.959z" fill="#e5ecf7"/><path d="m368.322 493.419h-122.071c-5.5 0-9.959-4.459-9.959-9.959v18.581c0 5.5 4.459 9.959 9.959 9.959h122.071c5.5 0 9.959-4.459 9.959-9.959v-18.581c0 5.5-4.459 9.959-9.959 9.959z" fill="#b9cbea"/><g><g><path d="m134.194 117.726-28.451-14.957c-2.571-1.352-5.642-1.352-8.213 0l-28.451 14.957-.48 2.797c-1.237 7.209 6.33 12.707 12.805 9.303l16.125-8.477c2.571-1.352 5.642-1.352 8.213 0l16.125 8.477c6.475 3.404 14.042-2.094 12.805-9.303z" fill="#ffd064"/></g></g><g><g><path d="m288.561 117.726-28.451-14.957c-2.571-1.352-5.643-1.352-8.214 0l-28.451 14.957-.48 2.797c-1.237 7.209 6.331 12.707 12.805 9.303l16.125-8.477c2.571-1.352 5.642-1.352 8.214 0l16.125 8.477c6.475 3.404 14.042-2.094 12.805-9.303z" fill="#ffd064"/></g></g><g><g><path d="m442.928 117.726-28.451-14.957c-2.571-1.352-5.643-1.352-8.214 0l-28.451 14.957-.48 2.797c-1.237 7.209 6.33 12.707 12.805 9.303l16.125-8.477c2.571-1.352 5.642-1.352 8.214 0l16.125 8.477c6.474 3.404 14.042-2.094 12.805-9.303z" fill="#ffd064"/></g></g></g></g></svg>