<svg id="eexwltderwmi1" xmlns="http://www.w3.org/2000/svg" xmlns:xlink="http://www.w3.org/1999/xlink" viewBox="0 0 412 367" shape-rendering="geometricPrecision" text-rendering="geometricPrecision"><defs><path id="eexwltderwmi2" d="M0.090000,70.284000L30.174000,70.284000L28.146000,100.537000C26.319182,99.573226,25.384770,97.488123,25.881210,95.483211C26.377650,93.478299,28.177040,92.070118,30.242500,92.070118C32.307960,92.070118,34.107350,93.478299,34.603790,95.483211C35.100230,97.488123,34.165818,99.573226,32.339000,100.537000L6.602000,100.537000C8.428818,101.500774,9.363230,103.585877,8.866790,105.590789C8.370350,107.595701,6.570960,109.003882,4.505500,109.003882C2.440040,109.003882,0.640650,107.595701,0.144210,105.590789C-0.352230,103.585877,0.582182,101.500774,2.409000,100.537000L0.090000,70.284000Z"/><path id="eexwltderwmi3" d="M3.700000,70.284000L23.470000,70.284000L21.718000,100.497000C19.899786,99.526020,18.975480,97.442401,19.475945,95.442841C19.976410,93.443281,21.773261,92.040734,23.834500,92.040734C25.895739,92.040734,27.692590,93.443281,28.193055,95.442841C28.693520,97.442401,27.769214,99.526020,25.951000,100.497000L9.937000,100.497000C11.755214,101.467980,12.679520,103.551599,12.179055,105.551159C11.678590,107.550719,9.881739,108.953266,7.820500,108.953266C5.759261,108.953266,3.962410,107.550719,3.461945,105.551159C2.961480,103.551599,3.885786,101.467980,5.704000,100.497000L3.700000,70.284000Z"/><path id="eexwltderwmi4" d="M126.837000,234.683000C182.590000,235.473000,237.235000,223.012000,247.543000,155.777000C257.850000,88.542000,218.733000,6.723000,152.388000,6.444000C86.045000,6.164000,9.398000,81.248000,6.346000,147.882000C5.097000,175.152000,10.720000,201.751000,26.743000,216.197000C48.838000,236.117000,89.233000,234.150000,126.837000,234.683000Z"/><path id="eexwltderwmi5" d="M17.895000,1.780000C7.647000,10.245000,1.987000,15.310000,0.915000,16.970000C-0.693000,19.460000,-0.330000,22.829000,4.070000,23.193000C6.207000,23.369000,11.658000,21.122000,20.423000,16.449000C22.600000,15.289000,26.327000,13.210000,31.603000,10.215000C32.533000,9.449000,32.765000,8.337000,32.300000,6.879000C244.565943,61.274729,374.345792,275.446661,324.315480,488.783704C274.285169,702.120746,62.820326,836.266359,-151.498049,790.622517C-365.816423,744.978675,-504.271354,536.309900,-463.033188,321.100376C-421.795021,105.890851,-216.010119,-36.815139,0,0C23.687000,5.110000,19.600000,7.548000,17.820000,7.548000C16.040000,7.548000,16.066000,5.625000,17.895000,1.779000Z"/><path id="eexwltderwmi6" d="M97.322000,8.131000C96.902000,19.289000,91.002000,24.867000,79.621000,24.867000L22.816000,24.867000L22.816000,99.026000L8.320000,99.026000L1.018000,16.596000C0.334000,8.896000,6.025000,2.099000,13.727000,1.417000L60.507000,0.217000L95.750000,4.905000L97.320000,8.132000Z"/><path id="eexwltderwmi7" d="M21.070000,1.780000C8.822000,12.046000,2.162000,18.011000,1.090000,19.671000C-0.517000,22.161000,-0.156000,25.530000,4.245000,25.894000C6.382000,26.071000,15.004000,22.566000,23.769000,17.894000C25.946000,16.733000,29.615000,14.173000,34.776000,10.214000C35.706000,9.448000,35.939000,8.336000,35.474000,6.878000C248.210027,58.128240,381.054854,269.917288,334.592303,483.750015C288.129752,697.582743,79.375709,835.147630,-135.445987,793.496177C-350.267682,751.844725,-492.483318,546.230860,-455.663950,330.528431C-418.844581,114.826001,-216.474488,-31.968735,0,0C26.862000,5.110000,22.773000,7.548000,20.994000,7.548000C19.216000,7.548000,19.241000,5.625000,21.069000,1.779000Z"/><path id="eexwltderwmi8" d="M97.322000,8.131000C96.902000,22.813000,91.002000,30.153000,79.621000,30.153000C68.239000,30.153000,49.304000,28.391000,22.816000,24.867000L22.816000,99.026000L8.320000,99.026000L1.018000,16.596000C0.334000,8.896000,6.025000,2.099000,13.727000,1.417000L60.507000,0.217000L95.750000,4.905000L97.320000,8.132000Z"/><path id="eexwltderwmi9" d="M26.865000,0.327000L40.483000,0.772000C46.955000,0.982000,52.092000,6.290000,52.092000,12.765000L52.092000,23.718000C50.943000,35.934000,50.316000,44.834000,50.212000,50.419000C50.020000,60.598000,50.020000,72.426000,50.212000,85.903000L5.966000,68.595000C7.111000,55.227000,7.749000,47.110000,7.882000,44.246000C8.015000,41.382000,8.082000,34.045000,8.082000,22.235000L0.244000,22.235000L0.410000,8.068000L10.557000,8.068000L19.865000,7.245000Z"/><path id="eexwltderwmi10" d="M7.417000,0.503000L10.888000,11.068000L0.272000,19.628000L1.107000,3.718000Z"/><path id="eexwltderwmi11" d="M9.630000,20.257000C9.498000,21.258000,9.431000,23.290000,9.431000,26.353000C9.431000,30.948000,9.333000,31.855000,9.631000,35.939000C9.928000,40.024000,10.019000,44.006000,13.185000,45.129000C16.351000,46.252000,21.840000,43.908000,24.296000,42.106000C25.933000,40.905000,27.766000,38.604000,29.795000,35.204000C32.202000,35.002000,33.850000,34.262000,34.738000,32.984000C36.069000,31.067000,35.890000,28.386000,33.901000,27.614000C33.195000,27.341000,28.509000,32.384000,27.337000,31.839000C25.914000,31.177000,25.773000,27.317000,26.914000,20.257000L9.630000,20.257000Z"/><linearGradient id="eexwltderwmi36-fill" x1="0.322080" y1="1.065970" x2="0.690060" y2="-0.014790" spreadMethod="pad" gradientUnits="objectBoundingBox"><stop id="eexwltderwmi36-fill-0" offset="0%" stop-color="rgb(162,248,228)"/><stop id="eexwltderwmi36-fill-1" offset="100%" stop-color="rgb(75,195,157)"/></linearGradient><linearGradient id="eexwltderwmi117-fill" x1="0" y1="0.064110" x2="1.640250" y2="1.397460" spreadMethod="pad" gradientUnits="objectBoundingBox"><stop id="eexwltderwmi117-fill-0" offset="0%" stop-color="rgb(190,113,241)"/><stop id="eexwltderwmi117-fill-1" offset="100%" stop-color="rgb(21,27,78)"/></linearGradient></defs><g id="eexwltderwmi12"><path id="eexwltderwmi13" d="M54,173L208,173L208,299C206.432128,298.094789,205.667725,296.249356,206.136297,294.500622C206.604869,292.751888,208.189577,291.535898,210,291.535898C211.810423,291.535898,213.395131,292.751888,213.863703,294.500622C214.332275,296.249356,213.567872,298.094789,212,299L54,299C55.567872,299.905211,56.332275,301.750644,55.863703,303.499378C55.395131,305.248112,53.810423,306.464102,52,306.464102C50.189577,306.464102,48.604869,305.248112,48.136297,303.499378C47.667725,301.750644,48.432128,299.905211,50,299L50,177Z" fill="rgb(255,255,255)" fill-rule="evenodd" stroke="none" stroke-width="1"/><ellipse id="eexwltderwmi14" rx="68" ry="6" transform="matrix(1 0 0 1 68 307)" opacity="0.1" fill="rgb(63,70,173)" fill-rule="evenodd" stroke="none" stroke-width="1"/><ellipse id="eexwltderwmi15" rx="52.500000" ry="9" transform="matrix(1 0 0 1 146.50000000000000 343)" opacity="0.1" fill="rgb(63,70,173)" fill-rule="evenodd" stroke="none" stroke-width="1"/><ellipse id="eexwltderwmi16" rx="100" ry="6" transform="matrix(1 0 0 1 312 338)" opacity="0.3" fill="rgb(63,70,173)" fill-rule="evenodd" stroke="none" stroke-width="1"/><g id="eexwltderwmi17" transform="matrix(1 0 0 1 345 232)" opacity="0.9"><use id="eexwltderwmi18" width="30.084000" height="34.445999" xlink:href="#eexwltderwmi2" fill="rgb(0,0,0)" fill-rule="evenodd" stroke="none" stroke-width="1"/><use id="eexwltderwmi19" width="30.084000" height="34.445999" xlink:href="#eexwltderwmi2" fill="rgb(85,97,201)" fill-rule="evenodd" stroke="none" stroke-width="1"/></g><g id="eexwltderwmi20" transform="matrix(1 0 0 1 345 232)"><use id="eexwltderwmi21" width="19.770000" height="34.445999" xlink:href="#eexwltderwmi3" fill="rgb(0,0,0)" fill-rule="evenodd" stroke="none" stroke-width="1"/><use id="eexwltderwmi22" width="19.770000" height="34.445999" xlink:href="#eexwltderwmi3" fill="rgb(63,70,173)" fill-rule="evenodd" stroke="none" stroke-width="1"/></g><path id="eexwltderwmi23" d="M371.002000,267.719000L368.115000,267.719000L368.115000,235.418000L368.115000,267.718000L368.059000,267.718000L368.115000,267.718000L368.115000,295.119000L374.871000,295.119000L374.871000,267.718000L381.106000,267.718000C379.596948,267.642145,378.196928,268.503165,377.583840,269.884148C376.970753,271.265131,377.271137,272.881047,378.339545,273.949455C379.407953,275.017863,381.023869,275.318247,382.404852,274.705160C383.785835,274.092072,384.646855,272.692052,384.571000,271.183000L384.571000,256.260000L384.571000,267.720000Z" fill="rgb(255,255,255)" fill-rule="evenodd" stroke="none" stroke-width="1"/><path id="eexwltderwmi24" d="M353.466000,274.883000L353.466000,298.906000L346.710000,298.906000L346.710000,274.883000ZM53,173L95,173L95,299C93.432128,298.094789,92.667725,296.249356,93.136297,294.500622C93.604869,292.751888,95.189577,291.535898,97,291.535898C98.810423,291.535898,100.395131,292.751888,100.863703,294.500622C101.332275,296.249356,100.567872,298.094789,99,299L53,299C54.567872,299.905211,55.332275,301.750644,54.863703,303.499378C54.395131,305.248112,52.810423,306.464102,51,306.464102C49.189577,306.464102,47.604869,305.248112,47.136297,303.499378C46.667725,301.750644,47.432128,299.905211,49,299L49,177Z" fill="rgb(32,41,96)" fill-rule="evenodd" stroke="none" stroke-width="1"/><path id="eexwltderwmi25" d="M59,296L124,296L124,298L59,298Z" fill="rgb(235,188,70)" fill-rule="evenodd" stroke="none" stroke-width="1"/><path id="eexwltderwmi26" d="M59,181L124,181L124,183L59,183Z" opacity="0.4" fill="rgb(255,255,255)" fill-rule="evenodd" stroke="none" stroke-width="1"/><g id="eexwltderwmi27" transform="matrix(1 0 0 1 71 139)"><path id="eexwltderwmi28" d="M8.136000,6.287000L8.136000,12.881000M12.720000,0L12.720000,8.892000M17.298000,8.380000L17.298000,10.789000" opacity="0.2" fill="none" fill-rule="evenodd" stroke="rgb(51,48,158)" stroke-width="4" stroke-linecap="round"/><ellipse id="eexwltderwmi29" rx="3.816000" ry="3.923000" transform="matrix(1 0 0 1 25.18400000000000 21.70800000000000)" fill="none" fill-rule="evenodd" stroke="rgb(98,109,205)" stroke-width="5"/><path id="eexwltderwmi30" d="M21.124000,17.262000L22.894000,17.262000C23.457000,17.262000,23.912000,17.730000,23.912000,18.308000L23.912000,25.892000C23.912000,30.370000,20.382000,34,16.026000,34L10.940000,34C6.584000,34,3.054000,30.370000,3.054000,25.892000L3.054000,18.308000C3.054000,17.730000,3.509000,17.262000,4.071000,17.262000L8.422000,17.262000" fill="rgb(98,109,205)" fill-rule="evenodd" stroke="none" stroke-width="1"/><path id="eexwltderwmi31" d="M17.157000,17.262000L18.539000,17.262000C18.978000,17.262000,19.333000,17.730000,19.333000,18.308000L19.333000,25.892000C19.333000,30.370000,16.578000,34,13.178000,34L9.208000,34C5.808000,34,3.053000,30.370000,3.053000,25.892000L3.053000,18.308000C3.053000,17.730000,3.408000,17.262000,3.847000,17.262000L7.243000,17.262000" fill="rgb(63,70,173)" fill-rule="evenodd" stroke="none" stroke-width="1"/><path id="eexwltderwmi32" d="M7.118000,20.410000L7.118000,27.004000" fill="none" fill-rule="evenodd" stroke="rgb(98,109,205)" stroke-width="3" stroke-linecap="round"/><path id="eexwltderwmi33" d="M0.114000,33.215000L27.125000,33.215000" fill="none" fill-rule="evenodd" stroke="rgb(63,70,173)" stroke-width="3" stroke-linecap="round"/></g><path id="eexwltderwmi34" d="M268,216L268,19.123000C262.719329,93.129156,198.444657,148.842170,124.438501,143.561500C50.432345,138.280830,-5.280670,74.006158,0,0L113.766000,0C113.766000,31.415613,88.298613,56.883000,56.883000,56.883000C25.467387,56.883000,0,31.415613,0,0L0,216" opacity="0.7" fill="none" fill-rule="evenodd" stroke="rgb(112,112,112)" stroke-width="3"/><path id="eexwltderwmi35" d="M283.200000,30L370.800000,30L370.800000,198.600000C369.545702,197.875831,368.934180,196.399485,369.309037,195.000498C369.683895,193.601511,370.951662,192.628719,372.400000,192.628719C373.848338,192.628719,375.116105,193.601511,375.490963,195.000498C375.865820,196.399485,375.254298,197.875831,374,198.600000L286.400000,198.600000C287.654298,199.324169,288.265820,200.800515,287.890963,202.199502C287.516105,203.598489,286.248338,204.571281,284.800000,204.571281C283.351662,204.571281,282.083895,203.598489,281.709037,202.199502C281.334180,200.800515,281.945702,199.324169,283.200000,198.600000L283.200000,33.200000Z" transform="matrix(1 0 0 1 0.85399999999873 3.50518620000028)" fill="rgb(232,232,232)" fill-rule="evenodd" stroke="none" stroke-width="1"/><path id="eexwltderwmi36" d="M266.346000,153.810000C273.838000,151.735000,279.073000,149.672000,282.052000,147.623000C292.428000,140.485000,290.877000,132.950000,304.550000,131.403000C310.860000,130.689000,318.923000,133.013000,323.164000,131.403000C330.513000,128.613000,332.202000,121.310000,335.249000,118.467000C339.809000,114.212000,347.392000,113.873000,358,117.452000L358,198.800000C356.745702,198.075831,356.134180,196.599485,356.509037,195.200498C356.883895,193.801511,358.151662,192.828719,359.600000,192.828719C361.048338,192.828719,362.316105,193.801511,362.690963,195.200498C363.065820,196.599485,362.454298,198.075831,361.200000,198.800000L273.600000,198.800000C274.854298,199.524169,275.465820,201.000515,275.090963,202.399502C274.716105,203.798489,273.448338,204.771281,272,204.771281C270.551662,204.771281,269.283895,203.798489,268.909037,202.399502C268.534180,201.000515,269.145702,199.524169,270.400000,198.800000L270.400000,156.894000Z" opacity="0.5" fill="url(#eexwltderwmi36-fill)" fill-rule="evenodd" stroke="none" stroke-width="1"/><path id="eexwltderwmi37" d="M371.654000,122.810000C364.162000,120.735000,358.927000,118.672000,355.948000,116.623000C345.572000,109.485000,347.123000,101.950000,333.450000,100.403000C327.140000,99.689000,319.077000,102.013000,314.836000,100.403000C307.487000,97.613000,305.798000,90.310000,302.751000,87.467000C298.191000,83.212000,290.608000,82.873000,280,86.452000L280,167.800000L367.600000,167.800000L367.600000,125.894000C366.639809,126.422043,365.476191,126.422043,364.516000,125.894000Z" transform="matrix(1 0 0 1 3.62699999999938 10.30709462000078)" fill="rgb(63,70,173)" fill-rule="evenodd" stroke="none" stroke-width="1"/><path id="eexwltderwmi38" d="M282.346000,156.810000C289.838000,154.735000,295.073000,152.672000,298.052000,150.623000C308.428000,143.485000,306.877000,135.950000,320.550000,134.403000C326.860000,133.689000,334.923000,136.013000,339.164000,134.403000C346.513000,131.613000,348.202000,124.310000,351.249000,121.467000C355.809000,117.212000,363.392000,116.873000,374,120.452000L374,201.800000C372.745702,201.075831,372.134180,199.599485,372.509037,198.200498C372.883895,196.801511,374.151662,195.828719,375.600000,195.828719C377.048338,195.828719,378.316105,196.801511,378.690963,198.200498C379.065820,199.599485,378.454298,201.075831,377.200000,201.800000L289.600000,201.800000C290.854298,202.524169,291.465820,204.000515,291.090963,205.399502C290.716105,206.798489,289.448338,207.771281,288,207.771281C286.551662,207.771281,285.283895,206.798489,284.909037,205.399502C284.534180,204.000515,285.145702,202.524169,286.400000,201.800000L286.400000,159.894000Z" transform="matrix(1 0 0 1 -2.34599999500301 -5.14120042499982)" fill="rgb(189,189,189)" fill-rule="evenodd" stroke="none" stroke-width="1"/><ellipse id="eexwltderwmi39" rx="10.500000" ry="10" transform="matrix(1 0 0 1 329.44146348999891 64.91406745999994)" opacity="0.572" fill="rgb(252,252,255)" fill-rule="evenodd" stroke="none" stroke-width="1"/><g id="eexwltderwmi40" transform="matrix(1 0 0 1 172 71)" opacity="0.8"><circle id="eexwltderwmi41" r="1" transform="matrix(1 0 0 1 0.80100000000000 0.79300000000000)" fill="rgb(154,162,177)" fill-rule="evenodd" stroke="none" stroke-width="1"/><circle id="eexwltderwmi42" r="1" transform="matrix(1 0 0 1 11.47500000000000 0.79300000000000)" fill="rgb(154,162,177)" fill-rule="evenodd" stroke="none" stroke-width="1"/><circle id="eexwltderwmi43" r="1" transform="matrix(1 0 0 1 22.15000000000000 0.79300000000000)" fill="rgb(154,162,177)" fill-rule="evenodd" stroke="none" stroke-width="1"/><circle id="eexwltderwmi44" r="1" transform="matrix(1 0 0 1 32.82500000000000 0.79300000000000)" fill="rgb(154,162,177)" fill-rule="evenodd" stroke="none" stroke-width="1"/><circle id="eexwltderwmi45" r="1" transform="matrix(1 0 0 1 43.50000000000000 0.79300000000000)" fill="rgb(154,162,177)" fill-rule="evenodd" stroke="none" stroke-width="1"/><circle id="eexwltderwmi46" r="1" transform="matrix(1 0 0 1 54.17500000000000 0.79300000000000)" fill="rgb(154,162,177)" fill-rule="evenodd" stroke="none" stroke-width="1"/><circle id="eexwltderwmi47" r="1" transform="matrix(1 0 0 1 64.84999999999999 0.79300000000000)" fill="rgb(154,162,177)" fill-rule="evenodd" stroke="none" stroke-width="1"/><circle id="eexwltderwmi48" r="1" transform="matrix(1 0 0 1 75.52500000000001 0.79300000000000)" fill="rgb(154,162,177)" fill-rule="evenodd" stroke="none" stroke-width="1"/><circle id="eexwltderwmi49" r="1" transform="matrix(1 0 0 1 86.19900000000000 0.79300000000000)" fill="rgb(154,162,177)" fill-rule="evenodd" stroke="none" stroke-width="1"/><circle id="eexwltderwmi50" r="1" transform="matrix(1 0 0 1 0.80100000000000 11.36200000000000)" fill="rgb(154,162,177)" fill-rule="evenodd" stroke="none" stroke-width="1"/><circle id="eexwltderwmi51" r="1" transform="matrix(1 0 0 1 11.47500000000000 11.36200000000000)" fill="rgb(154,162,177)" fill-rule="evenodd" stroke="none" stroke-width="1"/><circle id="eexwltderwmi52" r="1" transform="matrix(1 0 0 1 22.15000000000000 11.36200000000000)" fill="rgb(154,162,177)" fill-rule="evenodd" stroke="none" stroke-width="1"/><circle id="eexwltderwmi53" r="1" transform="matrix(1 0 0 1 32.82500000000000 11.36200000000000)" fill="rgb(154,162,177)" fill-rule="evenodd" stroke="none" stroke-width="1"/><circle id="eexwltderwmi54" r="1" transform="matrix(1 0 0 1 43.50000000000000 11.36200000000000)" fill="rgb(154,162,177)" fill-rule="evenodd" stroke="none" stroke-width="1"/><circle id="eexwltderwmi55" r="1" transform="matrix(1 0 0 1 54.17500000000000 11.36200000000000)" fill="rgb(154,162,177)" fill-rule="evenodd" stroke="none" stroke-width="1"/><circle id="eexwltderwmi56" r="1" transform="matrix(1 0 0 1 64.84999999999999 11.36200000000000)" fill="rgb(154,162,177)" fill-rule="evenodd" stroke="none" stroke-width="1"/><circle id="eexwltderwmi57" r="1" transform="matrix(1 0 0 1 75.52500000000001 11.36200000000000)" fill="rgb(154,162,177)" fill-rule="evenodd" stroke="none" stroke-width="1"/><circle id="eexwltderwmi58" r="1" transform="matrix(1 0 0 1 86.19900000000000 11.36200000000000)" fill="rgb(154,162,177)" fill-rule="evenodd" stroke="none" stroke-width="1"/><circle id="eexwltderwmi59" r="1" transform="matrix(1 0 0 1 0.80100000000000 21.93100000000000)" fill="rgb(154,162,177)" fill-rule="evenodd" stroke="none" stroke-width="1"/><circle id="eexwltderwmi60" r="1" transform="matrix(1 0 0 1 11.47500000000000 21.93100000000000)" fill="rgb(154,162,177)" fill-rule="evenodd" stroke="none" stroke-width="1"/><circle id="eexwltderwmi61" r="1" transform="matrix(1 0 0 1 22.15000000000000 21.93100000000000)" fill="rgb(154,162,177)" fill-rule="evenodd" stroke="none" stroke-width="1"/><circle id="eexwltderwmi62" r="1" transform="matrix(1 0 0 1 32.82500000000000 21.93100000000000)" fill="rgb(154,162,177)" fill-rule="evenodd" stroke="none" stroke-width="1"/><circle id="eexwltderwmi63" r="1" transform="matrix(1 0 0 1 43.50000000000000 21.93100000000000)" fill="rgb(154,162,177)" fill-rule="evenodd" stroke="none" stroke-width="1"/><circle id="eexwltderwmi64" r="1" transform="matrix(1 0 0 1 54.17500000000000 21.93100000000000)" fill="rgb(154,162,177)" fill-rule="evenodd" stroke="none" stroke-width="1"/><circle id="eexwltderwmi65" r="1" transform="matrix(1 0 0 1 64.84999999999999 21.93100000000000)" fill="rgb(154,162,177)" fill-rule="evenodd" stroke="none" stroke-width="1"/><circle id="eexwltderwmi66" r="1" transform="matrix(1 0 0 1 75.52500000000001 21.93100000000000)" fill="rgb(154,162,177)" fill-rule="evenodd" stroke="none" stroke-width="1"/><circle id="eexwltderwmi67" r="1" transform="matrix(1 0 0 1 86.19900000000000 21.93100000000000)" fill="rgb(154,162,177)" fill-rule="evenodd" stroke="none" stroke-width="1"/><circle id="eexwltderwmi68" r="1" transform="matrix(1 0 0 1 0.80100000000000 32.50000000000000)" fill="rgb(154,162,177)" fill-rule="evenodd" stroke="none" stroke-width="1"/><circle id="eexwltderwmi69" r="1" transform="matrix(1 0 0 1 11.47500000000000 32.50000000000000)" fill="rgb(154,162,177)" fill-rule="evenodd" stroke="none" stroke-width="1"/><circle id="eexwltderwmi70" r="1" transform="matrix(1 0 0 1 22.15000000000000 32.50000000000000)" fill="rgb(154,162,177)" fill-rule="evenodd" stroke="none" stroke-width="1"/><circle id="eexwltderwmi71" r="1" transform="matrix(1 0 0 1 32.82500000000000 32.50000000000000)" fill="rgb(154,162,177)" fill-rule="evenodd" stroke="none" stroke-width="1"/><circle id="eexwltderwmi72" r="1" transform="matrix(1 0 0 1 43.50000000000000 32.50000000000000)" fill="rgb(154,162,177)" fill-rule="evenodd" stroke="none" stroke-width="1"/><circle id="eexwltderwmi73" r="1" transform="matrix(1 0 0 1 54.17500000000000 32.50000000000000)" fill="rgb(154,162,177)" fill-rule="evenodd" stroke="none" stroke-width="1"/><circle id="eexwltderwmi74" r="1" transform="matrix(1 0 0 1 64.84999999999999 32.50000000000000)" fill="rgb(154,162,177)" fill-rule="evenodd" stroke="none" stroke-width="1"/><circle id="eexwltderwmi75" r="1" transform="matrix(1 0 0 1 75.52500000000001 32.50000000000000)" fill="rgb(154,162,177)" fill-rule="evenodd" stroke="none" stroke-width="1"/><circle id="eexwltderwmi76" r="1" transform="matrix(1 0 0 1 86.19900000000000 32.50000000000000)" fill="rgb(154,162,177)" fill-rule="evenodd" stroke="none" stroke-width="1"/><circle id="eexwltderwmi77" r="1" transform="matrix(1 0 0 1 0.80100000000000 43.06900000000000)" fill="rgb(154,162,177)" fill-rule="evenodd" stroke="none" stroke-width="1"/><circle id="eexwltderwmi78" r="1" transform="matrix(1 0 0 1 11.47500000000000 43.06900000000000)" fill="rgb(154,162,177)" fill-rule="evenodd" stroke="none" stroke-width="1"/><circle id="eexwltderwmi79" r="1" transform="matrix(1 0 0 1 22.15000000000000 43.06900000000000)" fill="rgb(154,162,177)" fill-rule="evenodd" stroke="none" stroke-width="1"/><circle id="eexwltderwmi80" r="1" transform="matrix(1 0 0 1 32.82500000000000 43.06900000000000)" fill="rgb(154,162,177)" fill-rule="evenodd" stroke="none" stroke-width="1"/><circle id="eexwltderwmi81" r="1" transform="matrix(1 0 0 1 43.50000000000000 43.06900000000000)" fill="rgb(154,162,177)" fill-rule="evenodd" stroke="none" stroke-width="1"/><circle id="eexwltderwmi82" r="1" transform="matrix(1 0 0 1 54.17500000000000 43.06900000000000)" fill="rgb(154,162,177)" fill-rule="evenodd" stroke="none" stroke-width="1"/><circle id="eexwltderwmi83" r="1" transform="matrix(1 0 0 1 64.84999999999999 43.06900000000000)" fill="rgb(154,162,177)" fill-rule="evenodd" stroke="none" stroke-width="1"/><circle id="eexwltderwmi84" r="1" transform="matrix(1 0 0 1 75.52500000000001 43.06900000000000)" fill="rgb(154,162,177)" fill-rule="evenodd" stroke="none" stroke-width="1"/><circle id="eexwltderwmi85" r="1" transform="matrix(1 0 0 1 86.19900000000000 43.06900000000000)" fill="rgb(154,162,177)" fill-rule="evenodd" stroke="none" stroke-width="1"/><circle id="eexwltderwmi86" r="1" transform="matrix(1 0 0 1 0.80100000000000 53.63800000000000)" fill="rgb(154,162,177)" fill-rule="evenodd" stroke="none" stroke-width="1"/><circle id="eexwltderwmi87" r="1" transform="matrix(1 0 0 1 11.47500000000000 53.63800000000000)" fill="rgb(154,162,177)" fill-rule="evenodd" stroke="none" stroke-width="1"/><circle id="eexwltderwmi88" r="1" transform="matrix(1 0 0 1 22.15000000000000 53.63800000000000)" fill="rgb(154,162,177)" fill-rule="evenodd" stroke="none" stroke-width="1"/><circle id="eexwltderwmi89" r="1" transform="matrix(1 0 0 1 32.82500000000000 53.63800000000000)" fill="rgb(154,162,177)" fill-rule="evenodd" stroke="none" stroke-width="1"/><circle id="eexwltderwmi90" r="1" transform="matrix(1 0 0 1 43.50000000000000 53.63800000000000)" fill="rgb(154,162,177)" fill-rule="evenodd" stroke="none" stroke-width="1"/><circle id="eexwltderwmi91" r="1" transform="matrix(1 0 0 1 54.17500000000000 53.63800000000000)" fill="rgb(154,162,177)" fill-rule="evenodd" stroke="none" stroke-width="1"/><circle id="eexwltderwmi92" r="1" transform="matrix(1 0 0 1 64.84999999999999 53.63800000000000)" fill="rgb(154,162,177)" fill-rule="evenodd" stroke="none" stroke-width="1"/><circle id="eexwltderwmi93" r="1" transform="matrix(1 0 0 1 75.52500000000001 53.63800000000000)" fill="rgb(154,162,177)" fill-rule="evenodd" stroke="none" stroke-width="1"/><circle id="eexwltderwmi94" r="1" transform="matrix(1 0 0 1 86.19900000000000 53.63800000000000)" fill="rgb(154,162,177)" fill-rule="evenodd" stroke="none" stroke-width="1"/><circle id="eexwltderwmi95" r="1" transform="matrix(1 0 0 1 0.80100000000000 64.20699999999999)" fill="rgb(154,162,177)" fill-rule="evenodd" stroke="none" stroke-width="1"/><circle id="eexwltderwmi96" r="1" transform="matrix(1 0 0 1 11.47500000000000 64.20699999999999)" fill="rgb(154,162,177)" fill-rule="evenodd" stroke="none" stroke-width="1"/><circle id="eexwltderwmi97" r="1" transform="matrix(1 0 0 1 22.15000000000000 64.20699999999999)" fill="rgb(154,162,177)" fill-rule="evenodd" stroke="none" stroke-width="1"/><circle id="eexwltderwmi98" r="1" transform="matrix(1 0 0 1 32.82500000000000 64.20699999999999)" fill="rgb(154,162,177)" fill-rule="evenodd" stroke="none" stroke-width="1"/><circle id="eexwltderwmi99" r="1" transform="matrix(1 0 0 1 43.50000000000000 64.20699999999999)" fill="rgb(154,162,177)" fill-rule="evenodd" stroke="none" stroke-width="1"/><circle id="eexwltderwmi100" r="1" transform="matrix(1 0 0 1 54.17500000000000 64.20699999999999)" fill="rgb(154,162,177)" fill-rule="evenodd" stroke="none" stroke-width="1"/><circle id="eexwltderwmi101" r="1" transform="matrix(1 0 0 1 64.84999999999999 64.20699999999999)" fill="rgb(154,162,177)" fill-rule="evenodd" stroke="none" stroke-width="1"/><circle id="eexwltderwmi102" r="1" transform="matrix(1 0 0 1 75.52500000000001 64.20699999999999)" fill="rgb(154,162,177)" fill-rule="evenodd" stroke="none" stroke-width="1"/><circle id="eexwltderwmi103" r="1" transform="matrix(1 0 0 1 86.19900000000000 64.20699999999999)" fill="rgb(154,162,177)" fill-rule="evenodd" stroke="none" stroke-width="1"/></g><g id="eexwltderwmi104" transform="matrix(1 0 0 1 85 107)"><use id="eexwltderwmi105" width="243.002884" height="228.274063" xlink:href="#eexwltderwmi4" transform="matrix(0.99863000000000 0.05233600000000 -0.05233600000000 0.99863000000000 6.21086448500004 -7.45889375500002)" fill="rgb(6,1,129)" fill-rule="evenodd" stroke="none" stroke-width="1"/><g id="eexwltderwmi106" mask="url(#eexwltderwmi114)"><path id="eexwltderwmi107" d="M100.330000,218.758000C156.083000,219.548000,210.727000,207.087000,221.035000,139.852000C231.343000,72.617000,192.225000,-9.202000,125.881000,-9.481000C59.538000,-9.761000,-17.109000,65.323000,-20.161000,131.957000C-21.411000,159.227000,-15.787000,185.825000,0.236000,200.272000C22.330000,220.192000,62.726000,218.225000,100.330000,218.758000Z" transform="matrix(0.99863000000000 0.05233600000000 -0.05233600000000 0.99863000000000 5.29258633499998 -5.14638577999997)" fill="rgb(164,164,255)" fill-rule="evenodd" stroke="none" stroke-width="1"/><path id="eexwltderwmi108" d="M92.908000,210.796000C148.661000,211.586000,203.305000,199.124000,213.613000,131.889000C223.921000,64.654000,184.803000,-17.165000,118.459000,-17.444000C52.116000,-17.724000,-24.531000,57.361000,-27.583000,123.995000C-28.833000,151.265000,-23.209000,177.863000,-7.186000,192.309000C14.908000,212.229000,55.304000,210.263000,92.908000,210.796000Z" transform="matrix(0.99863000000000 0.05233600000000 -0.05233600000000 0.99863000000000 5.18900000000000 -4.77398000000000)" opacity="0.4" fill="none" fill-rule="evenodd" stroke="rgb(255,255,255)" stroke-width="3" stroke-dasharray="10"/><ellipse id="eexwltderwmi109" rx="5.946000" ry="5.959000" transform="matrix(1 0 0 1 162.03100000000001 176.28299999999999)" opacity="0.2" fill="rgb(255,255,255)" fill-rule="evenodd" stroke="none" stroke-width="1"/><path id="eexwltderwmi110" d="M133.727000,138.804000C151.531000,138.707000,164.920000,140.514000,173.895000,144.224000" fill="none" fill-rule="evenodd" stroke="rgb(119,119,204)" stroke-width="3" stroke-linecap="round"/><path id="eexwltderwmi111" d="M121.530000,140.385000C139.277000,140.721000,152.670000,142.535000,161.706000,145.825000" transform="matrix(0.93969300000000 0.34202000000000 -0.34202000000000 0.93969300000000 57.48540000000000 -39.80590000000000)" fill="none" fill-rule="evenodd" stroke="rgb(119,119,204)" stroke-width="3" stroke-linecap="round"/><ellipse id="eexwltderwmi112" rx="3.243000" ry="3.250000" transform="matrix(1 0 0 1 175.99199999999999 167.07300000000001)" opacity="0.2" fill="rgb(255,255,255)" fill-rule="evenodd" stroke="none" stroke-width="1"/><path id="eexwltderwmi113" d="M82.406000,232.395000L46.795000,229.071000L46.795000,171.680000L42.942000,133.268000L96.879000,121.700000L100.125000,138.274000C108.235813,134.003190,117.930187,134.003190,126.041000,138.274000L126.041000,206.479000ZM144.933000,6.014000L154.887000,6.331000C152.067000,12.313000,150.441000,15.734000,150.012000,16.591000C146.960000,22.696000,145.405000,26.116000,150.012000,28.008000C154.620000,29.901000,163.406000,30.358000,168.805000,64.105000C174.205000,97.853000,168.283000,130.178000,155.835000,135.458000C147.536000,138.978000,134.088000,139.690000,115.492000,137.594000L143.909000,88.308000L124.280000,49.386000L122.743000,34.621000L129.409000,18.529000L136.565000,8.774000L144.933000,6.014000Z" opacity="0.2" fill="rgb(63,70,173)" fill-rule="evenodd" stroke="none" stroke-width="1"/><mask id="eexwltderwmi114" mask-type="luminance"><use id="eexwltderwmi115" width="243.002884" height="228.274063" xlink:href="#eexwltderwmi4" fill="rgb(255,255,255)" fill-rule="evenodd" stroke="none" stroke-width="1"/></mask></g></g><g id="eexwltderwmi116" transform="matrix(1 0 0 1 21.88300000000000 61)"><ellipse id="eexwltderwmi117" rx="4.676000" ry="4.675000" transform="matrix(1 0 0 1 80.40300000000001 5.00800000000000)" opacity="0.3" fill="url(#eexwltderwmi117-fill)" fill-rule="evenodd" stroke="none" stroke-width="1"/><ellipse id="eexwltderwmi118" rx="21.277000" ry="21.272000" transform="matrix(1 0 0 1 22.18200000000000 29.55200000000000)" opacity="0.2" fill="rgb(255,255,255)" fill-rule="evenodd" stroke="none" stroke-width="1"/></g><path id="eexwltderwmi119" d="M189.496000,183.369000L188.278000,206.663000C185.781439,205.319425,184.517300,202.451085,185.210089,199.701894C185.902879,196.952703,188.375362,195.025983,191.210500,195.025983C194.045638,195.025983,196.518121,196.952703,197.210911,199.701894C197.903700,202.451085,196.639561,205.319425,194.143000,206.663000L185.381000,206.663000C179.961000,206.663000,173.935000,204.241000,171.511000,204.203000C169.894000,204.177000,167.904000,204.759000,165.540000,205.949000L169.817000,214.400000L173.840000,211.462000C184.634000,216.455000,192.152000,219.199000,196.395000,219.691000C202.758000,220.430000,208.569000,221.201000,210.747000,216.936000C212.199000,214.092000,213.905000,201.268000,215.864000,178.464000L201.541000,177.504000ZM125.436000,333.023000L125.414000,344.953000L107.602000,355.923000C105.218000,357.617000,105.412000,358.959000,108.182000,359.953000C110.953000,360.948000,120.894000,359.204000,138.005000,354.724000L137.510000,344.958000L137.505000,332.805000C137.255000,333.525000,136.166000,334.092000,134.238000,334.507000C132.310000,334.920000,129.377000,334.426000,125.436000,333.023000Z" fill="rgb(237,146,97)" fill-rule="evenodd" stroke="none" stroke-width="1"/><g id="eexwltderwmi120" transform="matrix(0.96592600000000 0.25881900000000 -0.25881900000000 0.96592600000000 108.54200000000000 338.71199999999999)"><use id="eexwltderwmi121" width="32.493279" height="22.966589" xlink:href="#eexwltderwmi5" fill="rgb(63,70,173)" fill-rule="evenodd" stroke="none" stroke-width="1"/><g id="eexwltderwmi122" mask="url(#eexwltderwmi124)"><ellipse id="eexwltderwmi123" rx="3.707000" ry="6.421000" transform="matrix(1 0 0 1 31.59200000000000 10.09100000000000)" opacity="0.2" fill="rgb(255,211,140)" fill-rule="evenodd" stroke="none" stroke-width="1"/><mask id="eexwltderwmi124" mask-type="luminance"><use id="eexwltderwmi125" width="32.493279" height="22.966589" xlink:href="#eexwltderwmi5" fill="rgb(255,255,255)" fill-rule="evenodd" stroke="none" stroke-width="1"/></mask></g></g><g id="eexwltderwmi126" transform="matrix(1 0 0 1 116.14900000000000 237.65199999999999)"><use id="eexwltderwmi127" width="96.359734" height="98.859001" xlink:href="#eexwltderwmi6" fill="rgb(24,136,12)" fill-rule="evenodd" stroke="none" stroke-width="1"/><g id="eexwltderwmi128" mask="url(#eexwltderwmi132)"><ellipse id="eexwltderwmi129" rx="11.552000" ry="7.346000" transform="matrix(1 0 0 1 81.25200000000000 35.22700000000000)" opacity="0.4" fill="rgb(247,173,166)" fill-rule="evenodd" stroke="none" stroke-width="1"/><ellipse id="eexwltderwmi130" rx="11.552000" ry="7.346000" transform="matrix(1 0 0 1 -1.96500000000000 4.70600000000000)" fill="rgb(24,136,12)" fill-rule="evenodd" stroke="none" stroke-width="1"/><path id="eexwltderwmi131" d="M58.438000,2.522000L95.628000,17.322000C96.172000,15.194000,96.542000,13.576000,96.736000,12.465000C96.931000,11.355000,97.098000,9.915000,97.236000,8.145000L58.439000,2.522000Z" opacity="0.2" fill="rgb(6,30,72)" fill-rule="evenodd" stroke="none" stroke-width="1"/><mask id="eexwltderwmi132" mask-type="luminance"><use id="eexwltderwmi133" width="96.359734" height="98.859001" xlink:href="#eexwltderwmi6" fill="rgb(255,255,255)" fill-rule="evenodd" stroke="none" stroke-width="1"/></mask></g></g><path id="eexwltderwmi134" d="M145.541000,335.137000L145.519000,347.068000L127.707000,358.038000C125.323000,359.732000,125.517000,361.074000,128.287000,362.068000C131.058000,363.062000,140.999000,361.319000,158.110000,356.838000L157.615000,347.073000L157.610000,334.920000C157.360000,335.640000,156.271000,336.207000,154.343000,336.621000C152.415000,337.034000,149.482000,336.540000,145.541000,335.137000Z" fill="rgb(242,175,135)" fill-rule="evenodd" stroke="none" stroke-width="1"/><use id="eexwltderwmi135" width="35.491810" height="25.664415" xlink:href="#eexwltderwmi7" transform="matrix(0.96592600000000 0.25881900000000 -0.25881900000000 0.96592600000000 125.58100000000000 340.00500000000000)" fill="rgb(63,70,173)" fill-rule="evenodd" stroke="none" stroke-width="1"/><g id="eexwltderwmi136" transform="matrix(1 0 0 1 136.78399999999999 237.65199999999999)"><use id="eexwltderwmi137" width="96.359734" height="98.859001" xlink:href="#eexwltderwmi8" fill="rgb(24,136,12)" fill-rule="evenodd" stroke="none" stroke-width="1"/><g id="eexwltderwmi138" mask="url(#eexwltderwmi142)"><ellipse id="eexwltderwmi139" rx="11.552000" ry="7.346000" transform="matrix(1 0 0 1 82.84000000000000 33.64100000000000)" opacity="0.4" fill="rgb(63,70,173)" fill-rule="evenodd" stroke="none" stroke-width="1"/><ellipse id="eexwltderwmi140" rx="11.552000" ry="7.346000" transform="matrix(1 0 0 1 -0.96100000000000 5.18100000000000)" opacity="0.2" fill="rgb(63,70,173)" fill-rule="evenodd" stroke="none" stroke-width="1"/><path id="eexwltderwmi141" d="M59.510000,1.997000L94.680000,23.194000C95.856000,18.561000,96.542000,15.690000,96.736000,14.580000C96.931000,13.470000,97.098000,12.029000,97.236000,10.260000L59.510000,1.996000Z" fill="rgb(24,136,12)" fill-rule="evenodd" stroke="none" stroke-width="1"/><mask id="eexwltderwmi142" mask-type="luminance"><use id="eexwltderwmi143" width="96.359734" height="98.859001" xlink:href="#eexwltderwmi8" fill="rgb(255,255,255)" fill-rule="evenodd" stroke="none" stroke-width="1"/></mask></g></g><g id="eexwltderwmi144" transform="matrix(1 0 0 1 188.66000000000000 170.33799999999999)"><use id="eexwltderwmi145" width="51.848003" height="85.576004" xlink:href="#eexwltderwmi9" fill="rgb(255,255,255)" fill-rule="evenodd" stroke="none" stroke-width="1"/><g id="eexwltderwmi146" mask="url(#eexwltderwmi149)"><path id="eexwltderwmi147" d="M14.433000,2.993000L9.717000,11.603000L13.674000,9.590000L22.028000,13.705000L28.828000,0.944000" opacity="0.5" fill="none" fill-rule="evenodd" stroke="rgb(255,255,255)" stroke-width="1" stroke-linecap="round" stroke-linejoin="round"/><path id="eexwltderwmi148" d="M38.632000,22.746000C34.967000,29.240000,33.585000,34.861000,34.488000,39.608000C35.842000,46.728000,35.096000,52.321000,33.418000,54.295000C32.300000,55.612000,31.322000,62.889000,30.484000,76.128000L50.274000,83.969000L50.274000,23.754000L38.632000,22.746000Z" fill="rgb(230,230,255)" fill-rule="evenodd" stroke="none" stroke-width="1"/><mask id="eexwltderwmi149" mask-type="luminance"><use id="eexwltderwmi150" width="51.848003" height="85.576004" xlink:href="#eexwltderwmi9" fill="rgb(255,255,255)" fill-rule="evenodd" stroke="none" stroke-width="1"/></mask></g></g><path id="eexwltderwmi151" d="M227.368000,193.182000L227.368000,224.376000C205.615000,221.178000,193.931000,219.566000,192.315000,219.541000C190.698000,219.515000,187.021000,221.126000,181.283000,224.376000L182.743000,236.604000L192.315000,227.890000C221.911000,237.830000,237.435000,241.377000,238.888000,238.533000C240.340000,235.690000,240.932000,220.791000,240.663000,193.836000L227.368000,193.182000Z" fill="rgb(242,175,135)" fill-rule="evenodd" stroke="none" stroke-width="1"/><g id="eexwltderwmi152" transform="matrix(0.98480800000000 -0.17364800000000 0.17364800000000 0.98480800000000 47.41950000000000 71.26690000000001)"><path id="eexwltderwmi153" d="M33.114000,20.392000L33.114000,71.700000C32.565353,71.435911,32.272255,70.827503,32.407692,70.233859C32.543129,69.640215,33.071102,69.219131,33.680000,69.219131C34.288898,69.219131,34.816871,69.640215,34.952308,70.233859C35.087745,70.827503,34.794647,71.435911,34.246000,71.700000L1.376000,55.764000C-8.585279,56.009799,-17.921013,50.922647,-23.114520,42.418826C-28.308028,33.915004,-28.570292,23.286446,-23.802521,14.536825C-19.034749,5.787205,-9.961279,0.245799,0,0L0,2.046000C-0.534455,2.469303,-1.304690,2.409858,-1.767864,1.909561C-2.231038,1.409263,-2.231038,0.636737,-1.767864,0.136439C-1.304690,-0.363858,-0.534455,-0.423303,0,0L31.810000,18.134000Z" fill="rgb(255,255,255)" fill-rule="evenodd" stroke="none" stroke-width="1"/><ellipse id="eexwltderwmi154" rx="3.211000" ry="4.229000" transform="matrix(0.86602500000000 -0.50000000000000 -0.50000000000000 -0.86602500000000 10.81109627499999 20.57149972500000)" fill="rgb(63,70,173)" fill-rule="evenodd" stroke="none" stroke-width="1"/><path id="eexwltderwmi155" d="M7.546000,32.883000L20.016000,40.150000M7.638000,41.046000L20.108000,48.313000M7.730000,49.210000L20.200000,56.476000" opacity="0.7" fill="none" fill-rule="evenodd" stroke="rgb(63,70,173)" stroke-width="3.456000" stroke-linecap="round"/></g><g id="eexwltderwmi156" transform="matrix(0.98480800000000 0.17364800000000 -0.17364800000000 0.98480800000000 213.72900000000001 28.99630000000000)"><path id="eexwltderwmi157" d="M25.755000,15.846000L25.755000,55.707000C25.328389,55.501493,25.100564,55.028302,25.205962,54.566651C25.311359,54.105001,25.721971,53.777569,26.195500,53.777569C26.669029,53.777569,27.079641,54.105001,27.185038,54.566651C27.290436,55.028302,27.062611,55.501493,26.636000,55.707000L1.071000,43.328000C-6.668802,43.519316,-13.922739,39.566964,-17.958325,32.959757C-21.993910,26.352550,-22.198041,18.094279,-18.493825,11.295757C-14.789608,4.497234,-7.739802,0.191316,0,0L0,1.591000C-0.415654,1.920389,-1.014828,1.874252,-1.375155,1.485113C-1.735482,1.095973,-1.735482,0.495027,-1.375155,0.105887C-1.014828,-0.283252,-0.415654,-0.329389,0,0L24.740000,14.089000Z" fill="rgb(255,255,255)" fill-rule="evenodd" stroke="none" stroke-width="1"/><ellipse id="eexwltderwmi158" rx="2.497000" ry="3.286000" transform="matrix(0.86602500000000 -0.50000000000000 -0.50000000000000 -0.86602500000000 7.73376735000000 17.72017097500000)" fill="rgb(63,70,173)" fill-rule="evenodd" stroke="none" stroke-width="1"/><path id="eexwltderwmi159" d="M6.005000,30.495000L15.704000,36.141000M6.005000,37.242000L15.704000,42.888000" opacity="0.7" fill="none" fill-rule="evenodd" stroke="rgb(63,70,173)" stroke-width="2.688000" stroke-linecap="round"/><path id="eexwltderwmi160" d="M26.002000,15.256000L35.198000,56.854000C34.821095,56.616573,34.646679,56.158473,34.770241,55.730500C34.893803,55.302527,35.285547,55.007885,35.731000,55.007885C36.176453,55.007885,36.568197,55.302527,36.691759,55.730500C36.815321,56.158473,36.640905,56.616573,36.264000,56.854000L32.088000,54.270000" opacity="0.3" fill="none" fill-rule="evenodd" stroke="rgb(168,168,229)" stroke-width="2"/></g><g id="eexwltderwmi161" transform="matrix(1 0 0 1 186.69800000000001 120.36700000000000)"><path id="eexwltderwmi162" d="M5.790000,19.432000C3.087000,18.030000,1.596000,15.788000,0.828000,12.238000C0.059000,8.688000,2.559000,-0.547000,9.778000,0.158000C11.668000,0.343000,13.383000,2.712000,16.438000,3.381000C17.381000,3.588000,23,3.257000,27.566000,8.226000C29.016000,9.803000,32.973000,10.546000,34.721000,12.238000C40.673000,18.002000,36.667000,24.198000,35.537000,27.663000C23.327317,25.995936,14.495952,15.155584,15.331406,2.860972C16.166860,-9.433640,26.383535,-18.979623,38.706500,-18.979623C51.029465,-18.979623,61.246140,-9.433640,62.081594,2.860972C62.917048,15.155584,54.085683,25.995936,41.876000,27.663000C40.656000,29.936000,39.513000,31.529000,38.450000,32.439000C37.386000,33.350000,35.406000,33.707000,32.510000,33.509000L31.105000,21.324000L26.506000,14.491000C20.839000,14.493000,17.103000,14.027000,15.300000,13.093000Z" fill="rgb(0,0,0)" fill-rule="evenodd" stroke="none" stroke-width="1"/><g id="eexwltderwmi163" transform="matrix(1 0 0 1 17.35300000000000 39.37900000000000)"><use id="eexwltderwmi164" width="10.616000" height="19.125000" xlink:href="#eexwltderwmi10" fill="rgb(242,175,135)" fill-rule="evenodd" stroke="none" stroke-width="1"/><g id="eexwltderwmi165" mask="url(#eexwltderwmi167)"><path id="eexwltderwmi166" d="M8.354000,1.040000L-0.826000,15.063000C0.294000,8.658000,0.937000,5.118000,1.104000,4.444000C1.409000,3.211000,3.825000,2.077000,8.354000,1.040000Z" fill="rgb(237,146,97)" fill-rule="evenodd" stroke="none" stroke-width="1"/><mask id="eexwltderwmi167" mask-type="luminance"><use id="eexwltderwmi168" width="10.616000" height="19.125000" xlink:href="#eexwltderwmi10" fill="rgb(255,255,255)" fill-rule="evenodd" stroke="none" stroke-width="1"/></mask></g></g><use id="eexwltderwmi169" width="26.178211" height="25.164818" xlink:href="#eexwltderwmi11" fill="rgb(242,175,135)" fill-rule="evenodd" stroke="none" stroke-width="1"/><g id="eexwltderwmi170" mask="url(#eexwltderwmi173)"><path id="eexwltderwmi171" d="M14.469000,38.237000C15.999000,39.053000,17.635000,38.810000,19.375000,37.509000" fill="none" fill-rule="evenodd" stroke="rgb(183,64,25)" stroke-width="2.080000" stroke-linecap="round"/><path id="eexwltderwmi172" d="M9.627000,20.244000L26.954000,20.244000L26.376000,24.284000L9.448000,24.284000C9.428000,23.396000,9.428000,22.723000,9.448000,22.264000C9.468000,21.807000,9.528000,21.134000,9.628000,20.244000Z" fill="rgb(237,146,97)" fill-rule="evenodd" stroke="none" stroke-width="1"/><mask id="eexwltderwmi173" mask-type="luminance"><use id="eexwltderwmi174" width="26.178211" height="25.164818" xlink:href="#eexwltderwmi11" fill="rgb(255,255,255)" fill-rule="evenodd" stroke="none" stroke-width="1"/></mask></g></g><path id="eexwltderwmi175" d="M227.380000,193.077000L240.740000,193.793000L240.837000,199.119000L227.490000,198.389000Z" fill="rgb(237,146,97)" fill-rule="evenodd" stroke="none" stroke-width="1"/><g id="eexwltderwmi176" transform="matrix(1 0 0 1 105.39900000000000 0.15700000000000)"><path id="eexwltderwmi177" d="M39.280000,0.007000L48.664000,9.577000L45.613000,10.209000L37.882000,10.406000L37.882000,4.497000Z" fill="rgb(63,70,173)" fill-rule="evenodd" stroke="none" stroke-width="1"/><path id="eexwltderwmi178" d="M45.304000,49.773000L9.870000,56.042000C10.325896,56.244404,10.577991,56.738205,10.474539,57.226167C10.371088,57.714128,9.940307,58.063155,9.441500,58.063155C8.942693,58.063155,8.511912,57.714128,8.408461,57.226167C8.305009,56.738205,8.557104,56.244404,9.013000,56.042000L0.413000,8.333000L10.078000,6.623000" opacity="0.3" fill="none" fill-rule="evenodd" stroke="rgb(63,70,173)" stroke-width="2"/><path id="eexwltderwmi179" d="M12.582000,0L39.280000,0L39.280000,7.557000L46.679000,7.557000L46.679000,45.686000C45.895064,45.233394,45.512862,44.310678,45.747148,43.436311C45.981434,42.561944,46.773789,41.953949,47.679000,41.953949C48.584211,41.953949,49.376566,42.561944,49.610852,43.436311C49.845138,44.310678,49.462936,45.233394,48.679000,45.686000L12.582000,45.686000C13.365936,46.138606,13.748138,47.061322,13.513852,47.935689C13.279566,48.810056,12.487211,49.418051,11.582000,49.418051C10.676789,49.418051,9.884434,48.810056,9.650148,47.935689C9.415862,47.061322,9.798064,46.138606,10.582000,45.686000L10.582000,2Z" fill="rgb(255,255,255)" fill-rule="evenodd" stroke="none" stroke-width="1"/><ellipse id="eexwltderwmi180" rx="3.968000" ry="3.964000" transform="matrix(1 0 0 1 21.42900000000000 11.89300000000000)" fill="rgb(14,247,1)" fill-rule="evenodd" stroke="none" stroke-width="1"/><path id="eexwltderwmi181" d="M18.827000,24.700000L29.547000,24.700000M18.827000,32.410000L40.130000,32.410000M18.827000,40.338000L40.130000,40.338000" opacity="0.7" fill="none" fill-rule="evenodd" stroke="rgb(63,70,173)" stroke-width="3.456000" stroke-linecap="round"/></g><g id="eexwltderwmi182" transform="matrix(1 0 0 1 125.50500000000000 199.95800000000000)"><path id="eexwltderwmi183" d="M1.886000,0L49.978000,0L57.788000,37.077000L8.066000,37.077000L0.389000,1.845000C0.888683,2.265105,1.599880,2.321888,2.159892,1.986391C2.719904,1.650895,3.005359,0.997029,2.870680,0.358254C2.736001,-0.280521,2.210857,-0.763480,1.563064,-0.844323C0.915271,-0.925166,0.287539,-0.586083,0,0Z" fill="rgb(255,137,36)" fill-rule="evenodd" stroke="none" stroke-width="1"/><ellipse id="eexwltderwmi184" rx="3.593000" ry="4.731000" transform="matrix(0.92718400000000 -0.37460700000000 0.37460700000000 0.92718400000000 28.74401433200000 20.94794682400000)" fill="rgb(179,177,250)" fill-rule="evenodd" stroke="none" stroke-width="1"/><path id="eexwltderwmi185" d="M8.723000,38.742000L76.892000,38.742000" fill="none" fill-rule="evenodd" stroke="rgb(255,255,255)" stroke-width="3.400000" stroke-linecap="round"/></g><path id="eexwltderwmi186" d="M56.027000,175C55.702000,209.564000,58.284000,232.245000,63.771000,243.045000C69.259000,253.845000,72.335000,275.495000,73,308M64.027000,175C63.702000,209.564000,66.284000,232.245000,71.771000,243.045000C77.259000,253.845000,80.335000,275.495000,81,308M73.027000,175C72.702000,209.564000,75.284000,232.245000,80.771000,243.045000C86.259000,253.845000,89.335000,275.495000,90,308M54,241C58.660000,253.015000,61.553000,266.009000,62.677000,279.980000C63.802000,293.953000,64.210000,303.292000,63.899000,308M52,260C53.620000,266.172000,54.753000,272.564000,55.401000,279.177000C56.761000,293.051000,57.253000,302.325000,56.878000,307M82,175C82.724000,209.105000,85.136000,229.103000,89.236000,234.994000C93.336000,240.886000,94.086000,220.888000,91.486000,175" opacity="0.3" fill="none" fill-rule="evenodd" stroke="rgb(206,158,35)" stroke-width="2"/></g></svg>