<svg height="512" viewBox="0 0 64 64" width="512" xmlns="http://www.w3.org/2000/svg" style="fill:#1f2641"><g id="Safe"><path d="m55.42 52.11a1.413 1.413 0 0 0 -1.27-.23l-13.87 4.08a.863.863 0 0 1 -.28.04h-8a.947.947 0 0 1 -.49-.13l-9-5a1 1 0 0 1 .49-1.87h13v-1.59l-1.49-1.49-14.61-2.92h-5.71l-4.19 1.68v11.32h3a1.185 1.185 0 0 1 .32.05l11.84 3.95h14.67l15.21-5.37a1.446 1.446 0 0 0 .38-2.52z"/><path d="m4 58.82 4-.67v-16.3l-4-.67z"/><path d="m32 38c7.72 0 14-8.523 14-19v-11.231l-14-3.734-14 3.734v11.231c0 10.477 6.28 19 14 19zm-9-15v-4a2 2 0 0 1 2-2h3v-3a2 2 0 0 1 2-2h4a2 2 0 0 1 2 2v3h3a2 2 0 0 1 2 2v4a2 2 0 0 1 -2 2h-3v3a2 2 0 0 1 -2 2h-4a2 2 0 0 1 -2-2v-3h-3a2 2 0 0 1 -2-2z"/><path d="m52 8h2v-2h2v-2h-2v-2h-2v2h-2v2h2z"/><path d="m62 10h-2v-2h-2v2h-2v2h2v2h2v-2h2z"/><path d="m46 35v2h2v2h2v-2h2v-2h-2v-2h-2v2z"/><path d="m56 27h-2v2h-2v2h2v2h2v-2h2v-2h-2z"/><path d="m10 8h2v-2h2v-2h-2v-2h-2v2h-2v2h2z"/><path d="m4 14h2v-2h2v-2h-2v-2h-2v2h-2v2h2z"/><path d="m14 33v2h-2v2h2v2h2v-2h2v-2h-2v-2z"/><path d="m10 33v-2h2v-2h-2v-2h-2v2h-2v2h2v2z"/><path d="m30 25v3h4v-3a2 2 0 0 1 2-2h3v-4h-3a2 2 0 0 1 -2-2v-3h-4v3a2 2 0 0 1 -2 2h-3v4h3a2 2 0 0 1 2 2z"/></g></svg>
