<svg xmlns="http://www.w3.org/2000/svg" xmlns:xlink="http://www.w3.org/1999/xlink" viewBox="0 0 144 82"><defs><filter id="a" width="121.4%" height="137.5%" x="-10.7%" y="-14.1%" filterUnits="objectBoundingBox"><feOffset dy="3" in="SourceAlpha" result="shadowOffsetOuter1"/><feGaussianBlur in="shadowOffsetOuter1" result="shadowBlurOuter1" stdDeviation="3.5"/><feColorMatrix in="shadowBlurOuter1" values="0 0 0 0 0 0 0 0 0 0.062745098 0 0 0 0 0.317647059 0 0 0 0.06 0"/></filter><rect id="b" width="112" height="64" x="16" y="8" rx="2"/><path id="c" d="M8.8 8v2.8l.9-1a.8.8 0 01.7-.1.8.8 0 01.6.5.8.8 0 01-.2.8l-2.3 2.3a.8.8 0 01-1 0L5.1 11a.8.8 0 010-1.1.8.8 0 011.1 0l1 .9V5.2l-1 1a.8.8 0 01-1-.1.8.8 0 010-1.1l2.1-2.3a.8.8 0 011.2 0L10.8 5a.8.8 0 01.2.8.8.8 0 01-.6.5.8.8 0 01-.7-.2l-1-.9V8z"/></defs><path fill="#F3F4F6" fill-rule="evenodd" d="M0 0h144v80H0z"/><use width="100%" height="100%" fill-rule="evenodd" filter="url(#a)" xlink:href="#b"/><use width="100%" height="100%" fill="#FFF" fill-rule="evenodd" xlink:href="#b"/><g fill="none" fill-rule="evenodd" transform="translate(76 32)"><mask id="d" fill="#fff"><use width="100%" height="100%" xlink:href="#c"/></mask><use width="100%" height="100%" fill="#000" fill-rule="nonzero" xlink:href="#c"/><g fill="#050505" mask="url(#d)"><path d="M-35-38H65V62H-35z"/></g></g><rect width="72" height="16" x="48" y="16" fill="#F3F4F6" fill-rule="evenodd" rx="2"/><rect width="16" height="48" x="24" y="16" fill="#F3F4F6" fill-rule="evenodd" rx="2"/><rect width="72" height="16" x="48" y="48" fill="#F3F4F6" fill-rule="evenodd" rx="2"/></svg>