<?xml version="1.0" encoding="UTF-8"?>
<svg width="546px" height="159px" viewBox="0 0 546 159" version="1.1" xmlns="http://www.w3.org/2000/svg" xmlns:xlink="http://www.w3.org/1999/xlink">
    <!-- Generator: Sketch 50.2 (55047) - http://www.bohemiancoding.com/sketch -->
    <title>Group 7</title>
    <desc>Created with Sketch.</desc>
    <defs></defs>
    <g id="messageIcon" stroke="none" stroke-width="1" fill="none" fill-rule="evenodd">
        <g id="Group-7" transform="translate(0.000000, -1.000000)">
            <g id="powered_by_stripe" transform="translate(162.000000, 54.000000)">
                <path d="M15.4630872,0 L368.536913,0 C377.077691,0 384,6.94429268 384,15.5121951 L384,90.4878049 C384,99.0557073 377.077691,106 368.536913,106 L15.4630872,106 C6.92230872,106 0,99.0557073 0,90.4878049 L0,15.5121951 C0,6.94429268 6.92230872,0 15.4630872,0 Z" id="Shape" fill="#32364E"></path>
                <path d="M183.37744,69 L179.614401,69 L182.528054,61.6713666 L176.729061,46.7703362 L180.705734,46.7703362 L184.350374,56.9114244 L188.023327,46.7703362 L192,46.7703362 L183.37744,69 Z M168.925001,62.5992408 C167.620034,62.5992408 166.284181,62.1064714 165.069301,61.1471439 L165.069301,62.2296638 L161.185288,62.2296638 L161.185288,40 L165.069301,40 L165.069301,47.8240239 C166.284181,46.8961497 167.620034,46.4007592 168.925001,46.4007592 C172.994334,46.4007592 175.787014,49.7400578 175.787014,54.5 C175.787014,59.2599422 172.994334,62.5992408 168.925001,62.5992408 Z M168.106501,49.8003435 C167.043481,49.8003435 165.980461,50.2642805 165.069301,51.1921547 L165.069301,57.8078453 C165.980461,58.7357195 167.043481,59.1996565 168.106501,59.1996565 C170.291741,59.1996565 171.810341,57.2836226 171.810341,54.5 C171.810341,51.7189986 170.291741,49.8003435 168.106501,49.8003435 Z M145.456195,61.1471439 C144.272202,62.1064714 142.936349,62.5992408 141.600495,62.5992408 C137.562049,62.5992408 134.741056,59.2599422 134.741056,54.5 C134.741056,49.7400578 137.562049,46.4007592 141.600495,46.4007592 C142.936349,46.4007592 144.272202,46.8961497 145.456195,47.8240239 L145.456195,40 L149.373669,40 L149.373669,62.2296638 L145.456195,62.2296638 L145.456195,61.1471439 Z M145.456195,51.1921547 C144.575922,50.2642805 143.512902,49.8003435 142.449882,49.8003435 C140.233755,49.8003435 138.717729,51.7189986 138.717729,54.5 C138.717729,57.2836226 140.233755,59.1996565 142.449882,59.1996565 C143.512902,59.1996565 144.575922,58.7357195 145.456195,57.8078453 L145.456195,51.1921547 Z M122.321996,55.5825199 C122.563943,57.9310376 124.386263,59.5404013 126.936996,59.5404013 C128.332049,59.5404013 129.881536,59.0135575 131.459336,58.0856833 L131.459336,61.3935286 C129.729676,62.1982104 128.000016,62.5992408 126.298669,62.5992408 C121.714556,62.5992408 118.497183,59.1996565 118.497183,54.3768077 C118.497183,49.7086045 121.655357,46.4007592 125.994949,46.4007592 C129.971622,46.4007592 132.674216,49.5854121 132.674216,54.130423 C132.674216,54.5629067 132.674216,55.0556761 132.612442,55.5825199 L122.321996,55.5825199 Z M125.843089,49.4622198 C123.96157,49.4622198 122.504743,50.8828633 122.321996,53.0164497 L128.939489,53.0164497 C128.818516,50.9143167 127.572749,49.4622198 125.843089,49.4622198 Z M112.09075,51.9024765 L112.09075,62.2296638 L108.204164,62.2296638 L108.204164,46.7703362 L112.09075,46.7703362 L112.09075,48.3167932 C113.182083,47.0796276 114.517936,46.4007592 115.822903,46.4007592 C116.25017,46.4007592 116.674863,46.4322126 117.099556,46.5554049 L117.099556,50.0808026 C116.674863,49.9549892 116.188396,49.8947035 115.732816,49.8947035 C114.458737,49.8947035 113.091997,50.6050253 112.09075,51.9024765 Z M94.7529705,55.5825199 C94.9974909,57.9310376 96.817237,59.5404013 99.3679703,59.5404013 C100.765597,59.5404013 102.31251,59.0135575 103.892884,58.0856833 L103.892884,61.3935286 C102.16065,62.1982104 100.43099,62.5992408 98.7296435,62.5992408 C94.1455305,62.5992408 90.9281575,59.1996565 90.9281575,54.3768077 C90.9281575,49.7086045 94.0863308,46.4007592 98.4259235,46.4007592 C102.40517,46.4007592 105.10519,49.5854121 105.10519,54.130423 C105.10519,54.5629067 105.10519,55.0556761 105.04599,55.5825199 L94.7529705,55.5825199 Z M98.2740635,49.4622198 C96.3925438,49.4622198 94.9357173,50.8828633 94.7529705,53.0164497 L101.373037,53.0164497 C101.24949,50.9143167 100.006297,49.4622198 98.2740635,49.4622198 Z M81.1808042,62.2296638 L78.0844044,51.7189986 L75.0188914,62.2296638 L71.5261113,62.2296638 L66.3062453,46.7703362 L70.190258,46.7703362 L73.2583449,57.2836226 L76.3238579,46.7703362 L79.844951,46.7703362 L82.9104639,57.2836226 L85.9785508,46.7703362 L89.8625635,46.7703362 L84.6710105,62.2296638 L81.1808042,62.2296638 Z M57.4391653,62.5992408 C52.8550523,62.5992408 49.6067925,59.2311099 49.6067925,54.5 C49.6067925,49.7400578 52.8550523,46.4007592 57.4391653,46.4007592 C62.0232784,46.4007592 65.2406514,49.7400578 65.2406514,54.5 C65.2406514,59.2311099 62.0232784,62.5992408 57.4391653,62.5992408 Z M57.4391653,49.7086045 C55.1612653,49.7086045 53.5834655,51.6560918 53.5834655,54.5 C53.5834655,57.3439082 55.1612653,59.2913955 57.4391653,59.2913955 C59.6861787,59.2913955 61.2639784,57.3439082 61.2639784,54.5 C61.2639784,51.6560918 59.6861787,49.7086045 57.4391653,49.7086045 Z M40.3767928,54.5943601 L36.8840127,54.5943601 L36.8840127,62.2296638 L33,62.2296638 L33,40.9593275 L40.3767928,40.9593275 C44.6262991,40.9593275 47.6609253,43.7717824 47.6609253,47.7925705 C47.6609253,51.8107375 44.6262991,54.5943601 40.3767928,54.5943601 Z M39.8285525,44.1754338 L36.8840127,44.1754338 L36.8840127,51.3782538 L39.8285525,51.3782538 C42.0755658,51.3782538 43.6533655,49.9261569 43.6533655,47.7925705 C43.6533655,45.6275307 42.0755658,44.1754338 39.8285525,44.1754338 Z" id="Shape" fill="#FFFFFF"></path>
                <path d="M352.871344,55.856108 L334.216216,55.856108 C334.640781,60.3083915 337.913791,61.6189426 341.626805,61.6189426 C345.411866,61.6189426 348.39154,60.8264567 350.990392,59.5184702 L350.990392,67.1714736 C348.39926,68.6 344.982155,69.6335658 340.425157,69.6335658 C331.14391,69.6335658 324.63906,63.839955 324.63906,52.3835321 C324.63906,42.7095613 330.155831,35.0257818 339.22351,35.0257818 C348.27575,35.0257818 353,42.7069966 353,52.4348256 C353,53.3529809 352.915087,55.3431721 352.871344,55.856108 Z M339.161755,42.7711136 C336.779045,42.7711136 334.131303,44.5638245 334.131303,48.8442745 L343.983784,48.8442745 C343.983784,44.5689539 341.503295,42.7711136 339.161755,42.7711136 Z M309.524546,69.6335658 C306.189782,69.6335658 304.15187,68.2306862 302.782969,67.2304612 L302.762384,77.9790326 L293.234117,80 L293.228971,35.6592576 L301.622492,35.6592576 L302.116531,38.0059393 C303.436542,36.7774578 305.847556,35.0257818 309.583728,35.0257818 C316.276416,35.0257818 322.580563,41.0348256 322.580563,52.0937233 C322.580563,64.1656693 316.343317,69.6335658 309.524546,69.6335658 Z M307.306516,43.4404949 C305.11679,43.4404949 303.74789,44.2381102 302.754665,45.3229696 L302.811274,59.4389651 C303.735024,60.4366254 305.070474,61.2419348 307.306516,61.2419348 C310.829119,61.2419348 313.191244,57.4179978 313.191244,52.304027 C313.191244,47.3336783 310.793095,43.4404949 307.306516,43.4404949 Z M279.768974,35.6592576 L289.335839,35.6592576 L289.335839,68.9539258 L279.768974,68.9539258 L279.768974,35.6592576 Z M279.768974,25.0286614 L289.335839,23 L289.335839,30.7376378 L279.768974,32.7637345 L279.768974,25.0286614 Z M269.885616,46.3821822 L269.885616,68.9539258 L260.359922,68.9539258 L260.359922,35.6592576 L268.599056,35.6592576 L269.198593,38.4675816 C271.426916,34.3794826 275.883562,35.207874 277.15211,35.6618223 L277.15211,44.391991 C275.94017,44.0021597 272.137097,43.4328009 269.885616,46.3821822 Z M249.771529,57.271811 C249.771529,62.8705062 255.784913,61.1290889 257.007146,60.6417998 L257.007146,68.3743082 C255.736024,69.0693363 253.43308,69.6335658 250.317031,69.6335658 C244.661311,69.6335658 240.418234,65.4813498 240.418234,59.8570079 L240.459404,29.3809224 L249.76381,27.4112486 L249.771529,35.6592576 L257.009719,35.6592576 L257.009719,43.7585152 L249.771529,43.7585152 L249.771529,57.271811 Z M238.207923,58.8926884 C238.207923,65.7301237 232.74776,69.6335658 224.822547,69.6335658 C221.536672,69.6335658 217.944595,68.9975253 214.401407,67.4766704 L214.401407,58.407964 C217.599796,60.1416873 221.67562,61.4419798 224.83284,61.4419798 C226.958238,61.4419798 228.489245,60.8726209 228.489245,59.1183802 C228.489245,54.584027 214,56.2921035 214,45.7743532 C214,39.0497638 219.153961,35.0257818 226.883617,35.0257818 C230.040837,35.0257818 233.198056,35.5105062 236.355276,36.7646344 L236.355276,45.7102362 C233.455368,44.1509111 229.775805,43.2660967 226.875898,43.2660967 C224.879156,43.2660967 223.638912,43.8405849 223.638912,45.3255343 C223.638912,49.5982902 238.207923,47.5670641 238.207923,58.8926884 Z" id="Shape" fill="#FFFFFF"></path>
            </g>
            <path d="M87.8590883,71 C87.9030639,70.7442869 87.9622845,70.5624593 87.9616981,70.3806317 C87.9414693,63.8437854 88.1188377,57.2988578 87.8467751,50.772113 C87.3589388,39.0699199 77.1357779,28.9300011 65.272326,28.0736797 C50.2174162,26.9867547 38.059914,38.051974 38.0094886,52.9018048 C37.9904325,58.477851 38.0059706,64.0538973 38.0059706,69.6299435 L38.0059706,71 L87.8590883,71 Z M62,10.0003925 C63.0525773,10.0003925 63.6117572,10.0752238 65.6035637,10.2922113 C67.5953702,10.5091988 68.7589171,10.7637997 69.2772376,10.8486448 C89.3509463,14.1316898 104.804137,31.8574428 105.287967,52.2767665 C105.434512,58.4621543 105.33856,64.6533901 105.353389,70.8419943 C105.354843,71.3998897 105.35368,71.9572004 105.35368,72.5995988 C107.294815,72.5995988 108.989964,72.6612948 110.679298,72.5890725 C118.426974,72.2580779 124.131166,78.4294306 123.997706,85.9425979 C123.782832,98.0241919 123.940426,110.112219 123.940135,122.197614 C123.940135,130.579203 123.966885,138.961085 123.929958,147.342674 C123.902336,153.579232 120.070368,158.339764 114.065526,159.738304 C113.836405,159.79152 113.622403,159.911403 113.401423,160 L10.4712557,160 C10.2552186,159.908187 10.0473229,159.782748 9.82227224,159.728947 C4.53706982,158.462279 0.915323587,154.539759 0.105257354,149.166946 C0.0186099247,148.592383 0.00814245004,148.001739 0.00785168685,147.418405 C0.00319947589,126.756391 0.00756092367,106.094085 1.0808539e-06,85.4320709 C-0.00116197189,82.2370377 0.936258537,79.3879114 3.02306592,76.9674405 C5.51461565,74.0773784 8.71126611,72.6703591 12.4935136,72.6072012 C14.5053041,72.5735754 16.5179669,72.6013532 18.6114618,72.6013532 C18.6114618,65.9943274 18.5620321,59.6150797 18.6207662,53.237294 C18.7952241,34.1928259 31.6164268,17.2299393 49.8100608,12.0059562 C52.3530756,11.2758383 55.2760559,10.6074631 57.5748916,10.2922113 C59.8737274,9.97695952 60.9474227,10.0003925 62,10.0003925 Z" id="Fill-1" fill="#32364E"></path>
            <path d="M196.437,23.702 C197.749007,24.4126702 199.05416,25.000331 200.3525,25.465 C201.65084,25.929669 202.96966,26.162 204.309,26.162 C205.812341,26.162 206.973996,25.8545031 207.794,25.2395 C208.614004,24.6244969 209.024,23.8113384 209.024,22.8 C209.024,21.8433286 208.696003,21.1053359 208.04,20.586 C207.383997,20.0666641 206.557172,19.6225018 205.5595,19.2535 C204.561828,18.8844982 203.489006,18.5155018 202.341,18.1465 C201.192994,17.7774982 200.120172,17.2855031 199.1225,16.6705 C198.124828,16.0554969 197.298003,15.2491717 196.642,14.2515 C195.985997,13.2538283 195.658,11.9213417 195.658,10.254 C195.658,8.83265956 195.917664,7.54800574 196.437,6.4 C196.956336,5.25199426 197.687495,4.28167063 198.6305,3.489 C199.573505,2.69632937 200.700993,2.08133552 202.013,1.644 C203.325007,1.20666448 204.773659,0.988 206.359,0.988 C207.971675,0.988 209.495493,1.19299795 210.9305,1.603 C212.365507,2.01300205 213.670661,2.57332978 214.846,3.284 L213.288,9.024 C212.249328,8.31332978 211.135506,7.72566899 209.9465,7.261 C208.757494,6.79633101 207.575339,6.564 206.4,6.564 C205.115327,6.564 204.11767,6.85099713 203.407,7.425 C202.69633,7.99900287 202.341,8.73699549 202.341,9.639 C202.341,10.513671 202.668997,11.1901643 203.325,11.6685 C203.981003,12.1468357 204.807828,12.5568316 205.8055,12.8985 C206.803172,13.2401684 207.875994,13.5886649 209.024,13.944 C210.172006,14.2993351 211.244828,14.7844969 212.2425,15.3995 C213.240172,16.0145031 214.066997,16.8344949 214.723,17.8595 C215.379003,18.8845051 215.707,20.2443249 215.707,21.939 C215.707,23.4150074 215.433669,24.7406608 214.887,25.916 C214.340331,27.0913392 213.575005,28.0958292 212.591,28.9295 C211.606995,29.7631708 210.418007,30.3986645 209.024,30.836 C207.629993,31.2733355 206.085675,31.492 204.391,31.492 C202.778325,31.492 201.138342,31.2938353 199.471,30.8975 C197.803658,30.5011647 196.273007,29.9203372 194.879,29.155 L196.437,23.702 Z M228.909,14.108 C227.897662,14.108 227.064003,14.4769963 226.408,15.215 C225.751997,15.9530037 225.355667,17.1009922 225.219,18.659 L232.107,18.659 C232.107,17.0189918 231.806336,15.8505035 231.205,15.1535 C230.603664,14.4564965 229.838338,14.108 228.909,14.108 Z M225.301,22.472 C225.410334,23.3193376 225.615332,24.0231639 225.916,24.5835 C226.216668,25.1438361 226.578831,25.5879984 227.0025,25.916 C227.426169,26.2440016 227.911331,26.4763327 228.458,26.613 C229.004669,26.7496673 229.59233,26.818 230.221,26.818 C231.177671,26.818 232.154828,26.6813347 233.1525,26.408 C234.150172,26.1346653 235.222994,25.7520025 236.371,25.26 L237.601,29.729 C236.480328,30.2483359 235.188841,30.6719984 233.7265,31 C232.264159,31.3280016 230.781341,31.492 229.278,31.492 C225.997984,31.492 223.387676,30.6036755 221.447,28.827 C219.506324,27.0503245 218.536,24.3990176 218.536,20.873 C218.536,19.0416575 218.802497,17.4221737 219.3355,16.0145 C219.868503,14.6068263 220.606495,13.4246715 221.5495,12.468 C222.492505,11.5113286 223.606327,10.7938357 224.891,10.3155 C226.175673,9.83716427 227.569659,9.598 229.073,9.598 C230.439674,9.598 231.683328,9.80983122 232.804,10.2335 C233.924672,10.6571688 234.881329,11.2926624 235.674,12.14 C236.466671,12.9873376 237.081664,14.0601602 237.519,15.3585 C237.956336,16.6568398 238.175,18.1806579 238.175,19.93 C238.175,20.3126686 238.161333,20.7294977 238.134,21.1805 C238.106667,21.6315023 238.065667,22.061998 238.011,22.472 L225.301,22.472 Z M255.805,16.076 C255.17633,15.6933314 254.561336,15.3585014 253.96,15.0715 C253.358664,14.7844986 252.675337,14.641 251.91,14.641 C250.65266,14.641 249.607171,15.1124953 248.7735,16.0555 C247.939829,16.9985047 247.523,18.5359893 247.523,20.668 C247.523,22.8000107 247.939829,24.330662 248.7735,25.26 C249.607171,26.189338 250.69366,26.654 252.033,26.654 C252.771004,26.654 253.467997,26.5310012 254.124,26.285 C254.780003,26.0389988 255.381331,25.711002 255.928,25.301 L257.199,29.934 C256.378996,30.398669 255.436005,30.7744986 254.37,31.0615 C253.303995,31.3485014 252.156006,31.492 250.926,31.492 C249.449993,31.492 248.097006,31.2665023 246.867,30.8155 C245.636994,30.3644977 244.577838,29.6948378 243.6895,28.8065 C242.801162,27.9181622 242.117836,26.8111733 241.6395,25.4855 C241.161164,24.1598267 240.922,22.6086756 240.922,20.832 C240.922,19.0006575 241.181664,17.388007 241.701,15.994 C242.220336,14.599993 242.944662,13.4315047 243.874,12.4885 C244.803338,11.5454953 245.910327,10.8280025 247.195,10.336 C248.479673,9.84399754 249.900992,9.598 251.459,9.598 C252.743673,9.598 253.830162,9.74149856 254.7185,10.0285 C255.606838,10.3155014 256.378997,10.6503314 257.035,11.033 L255.805,16.076 Z M279.257,31 L272.656,31 L272.656,28.458 C271.726662,29.387338 270.681172,30.1253306 269.5195,30.672 C268.357828,31.2186694 267.06634,31.492 265.645,31.492 C264.879663,31.492 264.16217,31.3963343 263.4925,31.205 C262.82283,31.0136657 262.235169,30.6925023 261.7295,30.2415 C261.223831,29.7904977 260.827501,29.1960037 260.5405,28.458 C260.253499,27.7199963 260.11,26.7906723 260.11,25.67 L260.11,10.09 L266.711,10.09 L266.711,23.825 C266.711,24.699671 266.881832,25.3078316 267.2235,25.6495 C267.565168,25.9911684 268.05033,26.162 268.679,26.162 C269.38967,26.162 270.072997,25.9911684 270.729,25.6495 C271.385003,25.3078316 272.02733,24.8636694 272.656,24.317 L272.656,10.09 L279.257,10.09 L279.257,31 Z M297.707,15.379 C297.515666,15.3516665 297.310668,15.338 297.092,15.338 L296.395,15.338 C295.738997,15.338 295.110336,15.4268324 294.509,15.6045 C293.907664,15.7821676 293.367836,15.9939988 292.8895,16.24 C292.411164,16.4860012 291.994335,16.738832 291.639,16.9985 C291.283665,17.258168 291.010334,17.4699992 290.819,17.634 L290.819,31 L284.218,31 L284.218,10.09 L290.819,10.09 L290.819,13.247 C291.420336,12.1809947 292.206162,11.3063367 293.1765,10.623 C294.146838,9.93966325 295.246994,9.598 296.477,9.598 C296.695668,9.598 296.914332,9.60483326 297.133,9.6185 C297.351668,9.63216673 297.542999,9.66633306 297.707,9.721 L297.707,15.379 Z M309.925,14.108 C308.913662,14.108 308.080003,14.4769963 307.424,15.215 C306.767997,15.9530037 306.371667,17.1009922 306.235,18.659 L313.123,18.659 C313.123,17.0189918 312.822336,15.8505035 312.221,15.1535 C311.619664,14.4564965 310.854338,14.108 309.925,14.108 Z M306.317,22.472 C306.426334,23.3193376 306.631332,24.0231639 306.932,24.5835 C307.232668,25.1438361 307.594831,25.5879984 308.0185,25.916 C308.442169,26.2440016 308.927331,26.4763327 309.474,26.613 C310.020669,26.7496673 310.60833,26.818 311.237,26.818 C312.193671,26.818 313.170828,26.6813347 314.1685,26.408 C315.166172,26.1346653 316.238994,25.7520025 317.387,25.26 L318.617,29.729 C317.496328,30.2483359 316.204841,30.6719984 314.7425,31 C313.280159,31.3280016 311.797341,31.492 310.294,31.492 C307.013984,31.492 304.403676,30.6036755 302.463,28.827 C300.522324,27.0503245 299.552,24.3990176 299.552,20.873 C299.552,19.0416575 299.818497,17.4221737 300.3515,16.0145 C300.884503,14.6068263 301.622495,13.4246715 302.5655,12.468 C303.508505,11.5113286 304.622327,10.7938357 305.907,10.3155 C307.191673,9.83716427 308.585659,9.598 310.089,9.598 C311.455673,9.598 312.699328,9.80983122 313.82,10.2335 C314.940672,10.6571688 315.897329,11.2926624 316.69,12.14 C317.482671,12.9873376 318.097664,14.0601602 318.535,15.3585 C318.972336,16.6568398 319.191,18.1806579 319.191,19.93 C319.191,20.3126686 319.177333,20.7294977 319.15,21.1805 C319.122667,21.6315023 319.081667,22.061998 319.027,22.472 L306.317,22.472 Z M332.844,1.48 L343.914,1.48 C347.412684,1.48 350.132324,2.27265874 352.073,3.858 C354.013676,5.44334126 354.984,7.82131748 354.984,10.992 C354.984,14.1626825 353.95901,16.5406587 351.909,18.126 C349.85899,19.7113413 347.030018,20.504 343.422,20.504 L339.445,20.504 L339.445,31 L332.844,31 L332.844,1.48 Z M339.445,15.256 L343.422,15.256 C346.72935,15.256 348.383,13.8756805 348.383,11.115 C348.383,9.66632609 347.979837,8.60717002 347.1735,7.9375 C346.367163,7.26782998 345.116675,6.933 343.422,6.933 L339.445,6.933 L339.445,15.256 Z M366.054,14.641 C365.042662,14.641 364.024505,14.7981651 362.9995,15.1125 C361.974495,15.4268349 360.901672,15.816331 359.781,16.281 L358.551,11.443 C359.80834,10.9236641 361.181826,10.4863351 362.6715,10.131 C364.161174,9.77566489 365.766991,9.598 367.489,9.598 C368.773673,9.598 369.935328,9.72783204 370.974,9.9875 C372.012672,10.247168 372.900996,10.6708304 373.639,11.2585 C374.377004,11.8461696 374.944165,12.6388283 375.3405,13.6365 C375.736835,14.6341717 375.935,15.8709926 375.935,17.347 L375.935,26.244 C375.935,27.118671 375.948667,27.8361639 375.976,28.3965 C376.003333,28.9568361 376.0375,29.4078316 376.0785,29.7495 C376.1195,30.0911684 376.1605,30.3576657 376.2015,30.549 C376.2425,30.7403343 376.290333,30.8906661 376.345,31 L370.113,31 C370.003666,30.8359992 369.901167,30.6036682 369.8055,30.303 C369.709833,30.0023318 369.634667,29.4966702 369.58,28.786 C367.939992,30.590009 365.972011,31.492 363.676,31.492 C362.773995,31.492 361.94717,31.3485014 361.1955,31.0615 C360.44383,30.7744986 359.787836,30.3576694 359.2275,29.811 C358.667164,29.2643306 358.229835,28.5810041 357.9155,27.761 C357.601165,26.9409959 357.444,25.9980053 357.444,24.932 C357.444,22.7179889 358.175159,20.9960062 359.6375,19.766 C361.099841,18.5359939 363.416317,17.921 366.587,17.921 C366.969669,17.921 367.420664,17.9346665 367.94,17.962 C368.459336,17.9893335 368.978664,18.0303331 369.498,18.085 L369.498,17.839 C369.498,16.6636608 369.211003,15.8368357 368.637,15.3585 C368.062997,14.8801643 367.202006,14.641 366.054,14.641 Z M366.095,26.777 C366.696336,26.777 367.283997,26.6403347 367.858,26.367 C368.432003,26.0936653 368.978664,25.7656686 369.498,25.383 L369.498,21.816 C369.197332,21.7613331 368.903501,21.7135002 368.6165,21.6725 C368.329499,21.6314998 367.981002,21.611 367.571,21.611 C366.176993,21.611 365.213503,21.8364977 364.6805,22.2875 C364.147497,22.7385023 363.881,23.401329 363.881,24.276 C363.881,25.150671 364.085998,25.7861647 364.496,26.1825 C364.906002,26.5788353 365.438997,26.777 366.095,26.777 Z M379.174,34.526 C379.502002,34.5806669 379.850498,34.6284998 380.2195,34.6695 C380.588502,34.7105002 380.977998,34.731 381.388,34.731 C381.934669,34.731 382.419831,34.6763339 382.8435,34.567 C383.267169,34.4576661 383.663498,34.2458349 384.0325,33.9315 C384.401502,33.6171651 384.736332,33.1866694 385.037,32.64 C385.337668,32.0933306 385.638332,31.382671 385.939,30.508 L384.217,30.508 L377.903,10.09 L384.586,10.09 L388.44,24.768 L392.417,10.09 L398.854,10.09 L392.294,30.508 C391.719997,32.312009 391.11867,33.8084941 390.49,34.9975 C389.86133,36.1865059 389.164337,37.143163 388.399,37.8675 C387.633663,38.591837 386.765838,39.1043318 385.7955,39.405 C384.825162,39.7056682 383.725006,39.856 382.495,39.856 C380.827658,39.856 379.720669,39.8013339 379.174,39.692 L379.174,34.526 Z M401.273,10.09 L407.874,10.09 L407.874,12.591 C408.776005,11.6889955 409.787328,10.9646694 410.908,10.418 C412.028672,9.8713306 413.285993,9.598 414.68,9.598 C415.910006,9.598 416.955496,9.84399754 417.8165,10.336 C418.677504,10.8280025 419.285665,11.6069947 419.641,12.673 C420.652338,11.7163286 421.745661,10.9646694 422.921,10.418 C424.096339,9.8713306 425.39466,9.598 426.816,9.598 C427.581337,9.598 428.291997,9.69366571 428.948,9.885 C429.604003,10.0763343 430.164331,10.3974977 430.629,10.8485 C431.093669,11.2995023 431.462665,11.9008296 431.736,12.6525 C432.009335,13.4041704 432.146,14.3266612 432.146,15.42 L432.146,31 L425.545,31 L425.545,17.47 C425.545,16.595329 425.387835,15.9871684 425.0735,15.6455 C424.759165,15.3038316 424.315003,15.133 423.741,15.133 C423.057663,15.133 422.40167,15.3038316 421.773,15.6455 C421.14433,15.9871684 420.556669,16.4039975 420.01,16.896 L420.01,31 L413.409,31 L413.409,17.47 C413.409,16.5679955 413.251835,15.9530016 412.9375,15.625 C412.623165,15.2969984 412.179003,15.133 411.605,15.133 C410.948997,15.133 410.313503,15.2969984 409.6985,15.625 C409.083497,15.9530016 408.475336,16.3903306 407.874,16.937 L407.874,31 L401.273,31 L401.273,10.09 Z M445.84,14.108 C444.828662,14.108 443.995003,14.4769963 443.339,15.215 C442.682997,15.9530037 442.286667,17.1009922 442.15,18.659 L449.038,18.659 C449.038,17.0189918 448.737336,15.8505035 448.136,15.1535 C447.534664,14.4564965 446.769338,14.108 445.84,14.108 Z M442.232,22.472 C442.341334,23.3193376 442.546332,24.0231639 442.847,24.5835 C443.147668,25.1438361 443.509831,25.5879984 443.9335,25.916 C444.357169,26.2440016 444.842331,26.4763327 445.389,26.613 C445.935669,26.7496673 446.52333,26.818 447.152,26.818 C448.108671,26.818 449.085828,26.6813347 450.0835,26.408 C451.081172,26.1346653 452.153994,25.7520025 453.302,25.26 L454.532,29.729 C453.411328,30.2483359 452.119841,30.6719984 450.6575,31 C449.195159,31.3280016 447.712341,31.492 446.209,31.492 C442.928984,31.492 440.318676,30.6036755 438.378,28.827 C436.437324,27.0503245 435.467,24.3990176 435.467,20.873 C435.467,19.0416575 435.733497,17.4221737 436.2665,16.0145 C436.799503,14.6068263 437.537495,13.4246715 438.4805,12.468 C439.423505,11.5113286 440.537327,10.7938357 441.822,10.3155 C443.106673,9.83716427 444.500659,9.598 446.004,9.598 C447.370673,9.598 448.614328,9.80983122 449.735,10.2335 C450.855672,10.6571688 451.812329,11.2926624 452.605,12.14 C453.397671,12.9873376 454.012664,14.0601602 454.45,15.3585 C454.887336,16.6568398 455.106,18.1806579 455.106,19.93 C455.106,20.3126686 455.092333,20.7294977 455.065,21.1805 C455.037667,21.6315023 454.996667,22.061998 454.942,22.472 L442.232,22.472 Z M459.083,10.09 L465.684,10.09 L465.684,12.632 C466.613338,11.702662 467.658828,10.9646694 468.8205,10.418 C469.982172,9.8713306 471.27366,9.598 472.695,9.598 C473.460337,9.598 474.17783,9.69366571 474.8475,9.885 C475.51717,10.0763343 476.104831,10.3974977 476.6105,10.8485 C477.116169,11.2995023 477.512499,11.9008296 477.7995,12.6525 C478.086501,13.4041704 478.23,14.3266612 478.23,15.42 L478.23,31 L471.629,31 L471.629,17.47 C471.629,16.595329 471.458168,15.9871684 471.1165,15.6455 C470.774832,15.3038316 470.28967,15.133 469.661,15.133 C468.95033,15.133 468.267003,15.3038316 467.611,15.6455 C466.954997,15.9871684 466.31267,16.4313306 465.684,16.978 L465.684,31 L459.083,31 L459.083,10.09 Z M480.895,10.09 L483.888,10.09 L483.888,3.12 L490.489,3.12 L490.489,10.09 L494.384,10.09 L494.384,14.928 L490.489,14.928 L490.489,24.071 C490.489,24.945671 490.618832,25.5333318 490.8785,25.834 C491.138168,26.1346682 491.595997,26.285 492.252,26.285 C492.634669,26.285 493.010498,26.2508337 493.3795,26.1825 C493.748502,26.1141663 494.083332,26.0390004 494.384,25.957 L494.384,30.877 C493.809997,30.9863339 493.174503,31.0751663 492.4775,31.1435 C491.780497,31.2118337 491.035671,31.246 490.243,31.246 C489.067661,31.246 488.076837,31.1503343 487.2705,30.959 C486.464163,30.7676657 485.808169,30.4328357 485.3025,29.9545 C484.796831,29.4761643 484.434668,28.8406706 484.216,28.048 C483.997332,27.2553294 483.888,26.2576727 483.888,25.055 L483.888,14.928 L480.895,14.928 L480.895,10.09 Z M511.522,16.281 C510.701996,15.7616641 509.813671,15.3311684 508.857,14.9895 C507.900329,14.6478316 506.998338,14.477 506.151,14.477 C505.385663,14.477 504.818502,14.6273318 504.4495,14.928 C504.080498,15.2286682 503.896,15.611331 503.896,16.076 C503.896,16.5953359 504.128331,16.984832 504.593,17.2445 C505.057669,17.504168 505.64533,17.7296657 506.356,17.921 C507.06667,18.1123343 507.831996,18.3173322 508.652,18.536 C509.472004,18.7546678 510.23733,19.0758312 510.948,19.4995 C511.65867,19.9231688 512.246331,20.5108296 512.711,21.2625 C513.175669,22.0141704 513.408,23.0049939 513.408,24.235 C513.408,26.5310115 512.588008,28.3144936 510.948,29.5855 C509.307992,30.8565064 507.10768,31.492 504.347,31.492 C502.952993,31.492 501.600007,31.3416682 500.288,31.041 C498.975993,30.7403318 497.787005,30.3166694 496.721,29.77 L497.951,24.932 C498.962338,25.4786694 500.000995,25.9296649 501.067,26.285 C502.133005,26.6403351 503.171662,26.818 504.183,26.818 C505.139671,26.818 505.857164,26.6335018 506.3355,26.2645 C506.813836,25.8954982 507.053,25.4376694 507.053,24.891 C507.053,24.3443306 506.820669,23.9275014 506.356,23.6405 C505.891331,23.3534986 505.30367,23.107501 504.593,22.9025 C503.88233,22.697499 503.117004,22.4788345 502.297,22.2465 C501.476996,22.0141655 500.71167,21.6793355 500.001,21.242 C499.29033,20.8046645 498.702669,20.2170037 498.238,19.479 C497.773331,18.7409963 497.541,17.7706727 497.541,16.568 C497.541,14.4086559 498.313159,12.7071729 499.8575,11.4635 C501.401841,10.2198271 503.458654,9.598 506.028,9.598 C507.312673,9.598 508.522161,9.75516509 509.6565,10.0695 C510.790839,10.3838349 511.822662,10.7869975 512.752,11.279 L511.522,16.281 Z" id="Secure-Payments" fill="#32364E"></path>
        </g>
    </g>
</svg>