<?xml version="1.0" encoding="iso-8859-1"?>
<!-- Generator: Adobe Illustrator 19.0.0, SVG Export Plug-In . SVG Version: 6.00 Build 0)  -->
<svg version="1.1" id="Capa_1" xmlns="http://www.w3.org/2000/svg" xmlns:xlink="http://www.w3.org/1999/xlink" x="0px" y="0px"
	 viewBox="0 0 512 512" style="enable-background:new 0 0 512 512;fill:#3f51b5;" xml:space="preserve">
<g>
	<g>
		<path d="M384.144,88.087H227.668c-4.142,0-7.5,3.358-7.5,7.5c0,4.142,3.358,7.5,7.5,7.5h153.975v66.236h-17.231v-33.118
			c0-4.142-3.358-7.5-7.5-7.5h-60.844c-4.142,0-7.5,3.358-7.5,7.5v156.127c0,4.142,3.358,7.5,7.5,7.5s7.5-3.357,7.501-7.5V143.705
			h45.844v28.118c0,6.893,5.607,12.5,12.5,12.5h22.231c6.893,0,12.5-5.607,12.5-12.5v-71.236
			C396.644,93.694,391.037,88.087,384.144,88.087z"/>
	</g>
</g>
<g>
	<g>
		<path d="M341.431,379.22h-37.863v-33.555c0-4.142-3.358-7.5-7.5-7.5c-4.142,0-7.5,3.358-7.5,7.5v41.054c0,4.142,3.358,7.5,7.5,7.5
			h42.863v14.693H173.068V394.22h42.863c4.142,0,7.5-3.358,7.5-7.5V136.205c0-4.142-3.358-7.5-7.5-7.5h-60.844
			c-4.142,0-7.5,3.358-7.5,7.5v33.118h-17.231v-66.236h44.644c4.142,0,7.5-3.358,7.5-7.5c0-4.142-3.358-7.5-7.5-7.5h-47.144
			c-6.893,0-12.5,5.607-12.5,12.5v71.236c0,6.893,5.607,12.5,12.5,12.5h22.231c6.893,0,12.5-5.607,12.5-12.5v-28.118h45.844V379.22
			h-37.863c-6.893,0-12.5,5.607-12.5,12.5v19.693c0,6.893,5.607,12.5,12.5,12.5h170.865c6.892,0,12.5-5.607,12.499-12.5V391.72
			C353.931,384.827,348.324,379.22,341.431,379.22z"/>
	</g>
</g>
<g>
	<g>
		<path d="M54.553,0H22.182c-6.893,0-12.5,5.607-12.5,12.5v32.372c0,6.893,5.607,12.5,12.5,12.5h32.372
			c6.892,0,12.5-5.608,12.5-12.5V12.5C67.053,5.607,61.446,0,54.553,0z M52.053,42.371H24.682V15h27.372V42.371z"/>
	</g>
</g>
<g>
	<g>
		<path d="M489.818,0h-32.372c-6.893,0-12.5,5.607-12.5,12.5v8.686H422.2c-4.142,0-7.5,3.358-7.5,7.5s3.358,7.5,7.5,7.5h22.747
			v8.686c0,6.893,5.607,12.5,12.5,12.5h8.686v22.5c0,4.142,3.358,7.5,7.5,7.5c4.142,0,7.5-3.358,7.5-7.5v-22.5h8.686
			c6.893,0,12.5-5.607,12.5-12.5V12.5C502.318,5.607,496.71,0,489.818,0z M487.318,42.371h-27.372V15h27.372V42.371z"/>
	</g>
</g>
<g>
	<g>
		<path d="M489.818,454.629h-8.686v-29.764c0-4.142-3.358-7.5-7.5-7.5c-4.142,0-7.5,3.358-7.5,7.5v29.764h-8.686
			c-6.893,0-12.5,5.607-12.5,12.5v8.686H422.2c-4.142,0-7.5,3.358-7.5,7.5s3.358,7.5,7.5,7.5h22.747v8.686
			c0,6.893,5.607,12.5,12.5,12.5h32.372c6.893,0,12.5-5.607,12.5-12.5v-32.372C502.318,460.237,496.71,454.629,489.818,454.629z
			 M487.318,497h-27.372v-27.372h27.372V497z"/>
	</g>
</g>
<g>
	<g>
		<path d="M38.368,192.369c-4.142,0-7.5,3.358-7.5,7.5v30c0,4.142,3.358,7.5,7.5,7.5c4.142,0,7.5-3.358,7.5-7.5v-30
			C45.867,195.727,42.509,192.369,38.368,192.369z"/>
	</g>
</g>
<g>
	<g>
		<path d="M38.368,117.37c-4.142,0-7.5,3.358-7.5,7.5v30c0,4.142,3.358,7.5,7.5,7.5c4.142,0,7.5-3.358,7.5-7.5v-30
			C45.867,120.728,42.509,117.37,38.368,117.37z"/>
	</g>
</g>
<g>
	<g>
		<path d="M38.368,267.368c-4.142,0-7.5,3.358-7.5,7.5v30c0,4.142,3.358,7.5,7.5,7.5c4.142,0,7.5-3.358,7.5-7.5v-30
			C45.867,270.726,42.509,267.368,38.368,267.368z"/>
	</g>
</g>
<g>
	<g>
		<path d="M38.368,42.371c-4.142,0-7.5,3.358-7.5,7.5v30c0,4.142,3.358,7.5,7.5,7.5c4.142,0,7.5-3.358,7.5-7.5v-30
			C45.867,45.729,42.509,42.371,38.368,42.371z"/>
	</g>
</g>
<g>
	<g>
		<path d="M38.368,342.367c-4.142,0-7.5,3.358-7.5,7.5v30c0,4.142,3.358,7.5,7.5,7.5c4.142,0,7.5-3.358,7.5-7.5v-30
			C45.867,345.725,42.509,342.367,38.368,342.367z"/>
	</g>
</g>
<g>
	<g>
		<path d="M473.633,117.37c-4.142,0-7.5,3.358-7.5,7.5v30c0,4.142,3.358,7.5,7.5,7.5c4.142,0,7.5-3.358,7.5-7.5v-30
			C481.132,120.728,477.775,117.37,473.633,117.37z"/>
	</g>
</g>
<g>
	<g>
		<path d="M473.633,267.368c-4.142,0-7.5,3.358-7.5,7.5v30c0,4.142,3.358,7.5,7.5,7.5c4.142,0,7.5-3.358,7.5-7.5v-30
			C481.132,270.726,477.775,267.368,473.633,267.368z"/>
	</g>
</g>
<g>
	<g>
		<path d="M473.633,342.367c-4.142,0-7.5,3.358-7.5,7.5v30c0,4.142,3.358,7.5,7.5,7.5c4.142,0,7.5-3.358,7.5-7.5v-30
			C481.132,345.725,477.775,342.367,473.633,342.367z"/>
	</g>
</g>
<g>
	<g>
		<path d="M473.633,192.369c-4.142,0-7.5,3.358-7.5,7.5v30c0,4.142,3.358,7.5,7.5,7.5c4.142,0,7.5-3.358,7.5-7.5v-30
			C481.132,195.727,477.775,192.369,473.633,192.369z"/>
	</g>
</g>
<g>
	<g>
		<path d="M302.202,475.815h-30c-4.142,0-7.5,3.358-7.5,7.5s3.358,7.5,7.5,7.5h30c4.142,0,7.5-3.358,7.5-7.5
			S306.344,475.815,302.202,475.815z"/>
	</g>
</g>
<g>
	<g>
		<path d="M227.203,475.815h-30c-4.142,0-7.5,3.358-7.5,7.5s3.358,7.5,7.5,7.5h30c4.142,0,7.5-3.358,7.5-7.5
			S231.345,475.815,227.203,475.815z"/>
	</g>
</g>
<g>
	<g>
		<path d="M77.205,475.815H67.053v-8.686c0-6.893-5.607-12.5-12.5-12.5h-8.686v-29.764c0-4.142-3.358-7.5-7.5-7.5
			c-4.142,0-7.5,3.358-7.5,7.5v29.764h-8.686c-6.893,0-12.5,5.607-12.5,12.5V499.5c0,6.893,5.607,12.5,12.5,12.5h32.372
			c6.893,0,12.5-5.607,12.5-12.5v-8.686h10.152c4.142,0,7.5-3.358,7.5-7.5S81.347,475.815,77.205,475.815z M52.053,497H24.682
			v-27.372h27.372V497z"/>
	</g>
</g>
<g>
	<g>
		<path d="M152.204,475.815h-30c-4.142,0-7.5,3.358-7.5,7.5s3.358,7.5,7.5,7.5h30c4.142,0,7.5-3.358,7.5-7.5
			S156.346,475.815,152.204,475.815z"/>
	</g>
</g>
<g>
	<g>
		<path d="M377.201,475.815h-30c-4.142,0-7.5,3.358-7.5,7.5s3.358,7.5,7.5,7.5h30c4.142,0,7.5-3.358,7.5-7.5
			S381.343,475.815,377.201,475.815z"/>
	</g>
</g>
<g>
	<g>
		<path d="M377.201,21.186h-30c-4.142,0-7.5,3.358-7.5,7.5s3.358,7.5,7.5,7.5h30c4.142,0,7.5-3.358,7.5-7.5
			S381.343,21.186,377.201,21.186z"/>
	</g>
</g>
<g>
	<g>
		<path d="M227.203,21.186h-30c-4.142,0-7.5,3.358-7.5,7.5s3.358,7.5,7.5,7.5h30c4.142,0,7.5-3.358,7.5-7.5
			S231.345,21.186,227.203,21.186z"/>
	</g>
</g>
<g>
	<g>
		<path d="M302.202,21.186h-30c-4.142,0-7.5,3.358-7.5,7.5s3.358,7.5,7.5,7.5h30c4.142,0,7.5-3.358,7.5-7.5
			S306.344,21.186,302.202,21.186z"/>
	</g>
</g>
<g>
	<g>
		<path d="M152.204,21.186h-30c-4.142,0-7.5,3.358-7.5,7.5s3.358,7.5,7.5,7.5h30c4.142,0,7.5-3.358,7.5-7.5
			S156.346,21.186,152.204,21.186z"/>
	</g>
</g>
<g>
	<g>
		<path d="M77.205,21.186H61.374c-4.142,0-7.5,3.358-7.5,7.5s3.358,7.5,7.5,7.5h15.831c4.142,0,7.5-3.358,7.5-7.5
			S81.347,21.186,77.205,21.186z"/>
	</g>
</g>
<g>
</g>
<g>
</g>
<g>
</g>
<g>
</g>
<g>
</g>
<g>
</g>
<g>
</g>
<g>
</g>
<g>
</g>
<g>
</g>
<g>
</g>
<g>
</g>
<g>
</g>
<g>
</g>
<g>
</g>
</svg>
