<svg width="1366" height="714" viewBox="0 0 1366 714" fill="none" xmlns="http://www.w3.org/2000/svg">
<g filter="url(#filter0_f)">
<path fill-rule="evenodd" clip-rule="evenodd" d="M298.424 128.847C161.5 74.33 24.2491 3.13298 -73.0755 -83.187C-168.642 -167.948 -191.874 -255.672 -232.676 -342.2C-273.306 -428.363 -343.187 -524.33 -311.893 -589.643C-280.71 -654.727 -151.462 -658.59 -65.4824 -691.15C25.1614 -725.478 76.5362 -798 208.818 -786.838C341.933 -775.607 493.617 -701.079 629.044 -632.55C754.863 -568.884 858.889 -489.811 957.033 -408.227C1054.93 -326.853 1151.73 -243.496 1199.71 -158.183C1249.17 -70.2215 1266.08 15.9057 1232.03 80.7718C1198.49 144.658 1106.75 175.829 1011.42 200.471C919.305 224.281 812.558 233.058 690.373 220.784C564.563 208.146 430.937 181.608 298.424 128.847Z" fill="#7d89ff"/>
</g>
<defs>
<filter id="filter0_f" x="-728" y="-1226" width="2378.15" height="1939.35" filterUnits="userSpaceOnUse" color-interpolation-filters="sRGB">
<feFlood flood-opacity="0" result="BackgroundImageFix"/>
<feBlend mode="normal" in="SourceGraphic" in2="BackgroundImageFix" result="shape"/>
<feGaussianBlur stdDeviation="125" result="effect1_foregroundBlur"/>
</filter>
</defs>
</svg>
